STARTFONT 2.1
FONT -Galmuri11-Bold-R-Bold--16-16-75-75-c-80-iso10646-1
SIZE 16 75 75
FONTBOUNDINGBOX 18 17 0 -3
STARTPROPERTIES 10
FAMILY_NAME Galmuri11
WEIGHT_NAME Bold
FONT_VERSION 2.22.27
COPYRIGHT Copyright (c) 2019-2022 Minseo Lee (itoupluk427@gmail.com)
FOUNDRY Made with Bits'n'Picas by Kreative Software
FONT_ASCENT 14
FONT_DESCENT 2
CAP_HEIGHT 12
POINT_SIZE 12
X_HEIGHT 8
ENDPROPERTIES
CHARS 6094
STARTCHAR U+0020
ENCODING 32
SWIDTH 277 0
DWIDTH 5 0
BBX 0 0 0 0
BITMAP
ENDCHAR
STARTCHAR U+0021
ENCODING 33
SWIDTH 166 0
DWIDTH 3 0
BBX 2 11 0 0
BITMAP
C0
C0
C0
C0
C0
C0
C0
C0
00
C0
C0
ENDCHAR
STARTCHAR U+0022
ENCODING 34
SWIDTH 333 0
DWIDTH 6 0
BBX 5 4 0 7
BITMAP
D8
D8
D8
D8
ENDCHAR
STARTCHAR U+0023
ENCODING 35
SWIDTH 555 0
DWIDTH 10 0
BBX 9 11 0 0
BITMAP
1B00
1B00
7F80
7F80
3600
3600
FF00
FF00
6C00
6C00
6C00
ENDCHAR
STARTCHAR U+0024
ENCODING 36
SWIDTH 500 0
DWIDTH 9 0
BBX 8 11 0 0
BITMAP
18
7E
FF
DB
F8
7E
1F
DB
FF
7E
18
ENDCHAR
STARTCHAR U+0025
ENCODING 37
SWIDTH 666 0
DWIDTH 12 0
BBX 11 11 0 0
BITMAP
7000
F8C0
D9C0
FB80
7700
0E00
1DC0
3BE0
7360
63E0
01C0
ENDCHAR
STARTCHAR U+0026
ENCODING 38
SWIDTH 500 0
DWIDTH 9 0
BBX 8 11 0 0
BITMAP
78
F8
C0
C6
FF
FF
C6
C6
C6
FE
7C
ENDCHAR
STARTCHAR U+0027
ENCODING 39
SWIDTH 166 0
DWIDTH 3 0
BBX 2 4 0 7
BITMAP
C0
C0
C0
C0
ENDCHAR
STARTCHAR U+0028
ENCODING 40
SWIDTH 277 0
DWIDTH 5 0
BBX 4 11 0 0
BITMAP
30
70
60
E0
C0
C0
C0
E0
60
70
30
ENDCHAR
STARTCHAR U+0029
ENCODING 41
SWIDTH 277 0
DWIDTH 5 0
BBX 4 11 0 0
BITMAP
C0
E0
60
70
30
30
30
70
60
E0
C0
ENDCHAR
STARTCHAR U+002A
ENCODING 42
SWIDTH 388 0
DWIDTH 7 0
BBX 6 7 0 1
BITMAP
30
B4
FC
78
FC
B4
30
ENDCHAR
STARTCHAR U+002B
ENCODING 43
SWIDTH 500 0
DWIDTH 9 0
BBX 8 8 0 1
BITMAP
18
18
18
FF
FF
18
18
18
ENDCHAR
STARTCHAR U+002C
ENCODING 44
SWIDTH 166 0
DWIDTH 3 0
BBX 2 4 0 -2
BITMAP
C0
C0
40
80
ENDCHAR
STARTCHAR U+002D
ENCODING 45
SWIDTH 333 0
DWIDTH 6 0
BBX 5 2 0 4
BITMAP
F8
F8
ENDCHAR
STARTCHAR U+002E
ENCODING 46
SWIDTH 166 0
DWIDTH 3 0
BBX 2 2 0 0
BITMAP
C0
C0
ENDCHAR
STARTCHAR U+002F
ENCODING 47
SWIDTH 388 0
DWIDTH 7 0
BBX 6 11 0 0
BITMAP
0C
0C
1C
18
38
30
70
60
E0
C0
C0
ENDCHAR
STARTCHAR U+0030
ENCODING 48
SWIDTH 444 0
DWIDTH 8 0
BBX 7 11 0 0
BITMAP
7C
FE
C6
CE
DE
FE
F6
E6
C6
FE
7C
ENDCHAR
STARTCHAR U+0031
ENCODING 49
SWIDTH 277 0
DWIDTH 5 0
BBX 4 11 0 0
BITMAP
60
E0
E0
60
60
60
60
60
60
F0
F0
ENDCHAR
STARTCHAR U+0032
ENCODING 50
SWIDTH 444 0
DWIDTH 8 0
BBX 7 11 0 0
BITMAP
7C
FE
C6
C6
0E
1C
38
70
E0
FE
FE
ENDCHAR
STARTCHAR U+0033
ENCODING 51
SWIDTH 444 0
DWIDTH 8 0
BBX 7 11 0 0
BITMAP
7C
FE
C6
06
3E
3C
06
06
C6
FE
7C
ENDCHAR
STARTCHAR U+0034
ENCODING 52
SWIDTH 444 0
DWIDTH 8 0
BBX 7 11 0 0
BITMAP
1C
3C
3C
6C
6C
CC
CC
FE
FE
0C
0C
ENDCHAR
STARTCHAR U+0035
ENCODING 53
SWIDTH 444 0
DWIDTH 8 0
BBX 7 11 0 0
BITMAP
FE
FE
C0
C0
FC
FE
C6
06
C6
FE
7C
ENDCHAR
STARTCHAR U+0036
ENCODING 54
SWIDTH 444 0
DWIDTH 8 0
BBX 7 11 0 0
BITMAP
7C
FC
C0
C0
FC
FE
C6
C6
C6
FE
7C
ENDCHAR
STARTCHAR U+0037
ENCODING 55
SWIDTH 444 0
DWIDTH 8 0
BBX 7 11 0 0
BITMAP
FE
FE
06
0E
0C
1C
18
38
30
30
30
ENDCHAR
STARTCHAR U+0038
ENCODING 56
SWIDTH 444 0
DWIDTH 8 0
BBX 7 11 0 0
BITMAP
7C
FE
C6
C6
FE
7C
C6
C6
C6
FE
7C
ENDCHAR
STARTCHAR U+0039
ENCODING 57
SWIDTH 444 0
DWIDTH 8 0
BBX 7 11 0 0
BITMAP
7C
FE
C6
C6
C6
FE
7E
06
06
7E
7C
ENDCHAR
STARTCHAR U+003A
ENCODING 58
SWIDTH 166 0
DWIDTH 3 0
BBX 2 6 0 2
BITMAP
C0
C0
00
00
C0
C0
ENDCHAR
STARTCHAR U+003B
ENCODING 59
SWIDTH 166 0
DWIDTH 3 0
BBX 2 8 0 0
BITMAP
C0
C0
00
00
C0
C0
40
80
ENDCHAR
STARTCHAR U+003C
ENCODING 60
SWIDTH 388 0
DWIDTH 7 0
BBX 6 9 0 0
BITMAP
0C
1C
38
70
E0
70
38
1C
0C
ENDCHAR
STARTCHAR U+003D
ENCODING 61
SWIDTH 333 0
DWIDTH 6 0
BBX 5 5 0 2
BITMAP
F8
F8
00
F8
F8
ENDCHAR
STARTCHAR U+003E
ENCODING 62
SWIDTH 388 0
DWIDTH 7 0
BBX 6 9 0 0
BITMAP
C0
E0
70
38
1C
38
70
E0
C0
ENDCHAR
STARTCHAR U+003F
ENCODING 63
SWIDTH 388 0
DWIDTH 7 0
BBX 6 11 0 0
BITMAP
78
FC
CC
CC
1C
38
30
30
00
30
30
ENDCHAR
STARTCHAR U+0040
ENCODING 64
SWIDTH 500 0
DWIDTH 9 0
BBX 8 11 0 0
BITMAP
3E
7F
E3
CF
DF
DB
DF
CF
E0
7E
3E
ENDCHAR
STARTCHAR U+0041
ENCODING 65
SWIDTH 444 0
DWIDTH 8 0
BBX 7 11 0 0
BITMAP
7C
FE
C6
C6
C6
C6
FE
FE
C6
C6
C6
ENDCHAR
STARTCHAR U+0042
ENCODING 66
SWIDTH 444 0
DWIDTH 8 0
BBX 7 11 0 0
BITMAP
FC
FE
C6
C6
FE
FC
C6
C6
C6
FE
FC
ENDCHAR
STARTCHAR U+0043
ENCODING 67
SWIDTH 444 0
DWIDTH 8 0
BBX 7 11 0 0
BITMAP
7C
FE
C6
C0
C0
C0
C0
C0
C6
FE
7C
ENDCHAR
STARTCHAR U+0044
ENCODING 68
SWIDTH 444 0
DWIDTH 8 0
BBX 7 11 0 0
BITMAP
FC
FE
C6
C6
C6
C6
C6
C6
C6
FE
FC
ENDCHAR
STARTCHAR U+0045
ENCODING 69
SWIDTH 388 0
DWIDTH 7 0
BBX 6 11 0 0
BITMAP
FC
FC
C0
C0
FC
FC
C0
C0
C0
FC
FC
ENDCHAR
STARTCHAR U+0046
ENCODING 70
SWIDTH 388 0
DWIDTH 7 0
BBX 6 11 0 0
BITMAP
FC
FC
C0
C0
C0
FC
FC
C0
C0
C0
C0
ENDCHAR
STARTCHAR U+0047
ENCODING 71
SWIDTH 444 0
DWIDTH 8 0
BBX 7 11 0 0
BITMAP
7C
FE
C6
C0
DE
DE
C6
C6
C6
FE
7C
ENDCHAR
STARTCHAR U+0048
ENCODING 72
SWIDTH 444 0
DWIDTH 8 0
BBX 7 11 0 0
BITMAP
C6
C6
C6
C6
FE
FE
C6
C6
C6
C6
C6
ENDCHAR
STARTCHAR U+0049
ENCODING 73
SWIDTH 277 0
DWIDTH 5 0
BBX 4 11 0 0
BITMAP
F0
F0
60
60
60
60
60
60
60
F0
F0
ENDCHAR
STARTCHAR U+004A
ENCODING 74
SWIDTH 444 0
DWIDTH 8 0
BBX 7 11 0 0
BITMAP
06
06
06
06
06
06
06
06
C6
FE
7C
ENDCHAR
STARTCHAR U+004B
ENCODING 75
SWIDTH 500 0
DWIDTH 9 0
BBX 8 11 0 0
BITMAP
C3
C7
CE
DC
F8
F0
F8
DC
CE
C7
C3
ENDCHAR
STARTCHAR U+004C
ENCODING 76
SWIDTH 444 0
DWIDTH 8 0
BBX 7 11 0 0
BITMAP
C0
C0
C0
C0
C0
C0
C0
C0
C0
FE
FE
ENDCHAR
STARTCHAR U+004D
ENCODING 77
SWIDTH 555 0
DWIDTH 10 0
BBX 9 11 0 0
BITMAP
C180
C180
E380
E380
F780
F780
FF80
DD80
DD80
C980
C980
ENDCHAR
STARTCHAR U+004E
ENCODING 78
SWIDTH 444 0
DWIDTH 8 0
BBX 7 11 0 0
BITMAP
C6
E6
E6
F6
F6
FE
DE
DE
CE
CE
C6
ENDCHAR
STARTCHAR U+004F
ENCODING 79
SWIDTH 444 0
DWIDTH 8 0
BBX 7 11 0 0
BITMAP
7C
FE
C6
C6
C6
C6
C6
C6
C6
FE
7C
ENDCHAR
STARTCHAR U+0050
ENCODING 80
SWIDTH 444 0
DWIDTH 8 0
BBX 7 11 0 0
BITMAP
FC
FE
C6
C6
C6
FE
FC
C0
C0
C0
C0
ENDCHAR
STARTCHAR U+0051
ENCODING 81
SWIDTH 444 0
DWIDTH 8 0
BBX 7 11 0 0
BITMAP
7C
FE
C6
C6
C6
C6
C6
DE
DC
FE
76
ENDCHAR
STARTCHAR U+0052
ENCODING 82
SWIDTH 444 0
DWIDTH 8 0
BBX 7 11 0 0
BITMAP
FC
FE
C6
C6
C6
FE
FC
CC
CE
C6
C6
ENDCHAR
STARTCHAR U+0053
ENCODING 83
SWIDTH 444 0
DWIDTH 8 0
BBX 7 11 0 0
BITMAP
7C
FE
C6
C0
F0
7C
1E
06
C6
FE
7C
ENDCHAR
STARTCHAR U+0054
ENCODING 84
SWIDTH 500 0
DWIDTH 9 0
BBX 8 11 0 0
BITMAP
FF
FF
18
18
18
18
18
18
18
18
18
ENDCHAR
STARTCHAR U+0055
ENCODING 85
SWIDTH 444 0
DWIDTH 8 0
BBX 7 11 0 0
BITMAP
C6
C6
C6
C6
C6
C6
C6
C6
C6
FE
7C
ENDCHAR
STARTCHAR U+0056
ENCODING 86
SWIDTH 444 0
DWIDTH 8 0
BBX 7 11 0 0
BITMAP
C6
C6
C6
C6
C6
C6
C6
EE
7C
38
10
ENDCHAR
STARTCHAR U+0057
ENCODING 87
SWIDTH 555 0
DWIDTH 10 0
BBX 9 11 0 0
BITMAP
C180
C180
C980
C980
DD80
DD80
FF80
F780
7700
6300
6300
ENDCHAR
STARTCHAR U+0058
ENCODING 88
SWIDTH 444 0
DWIDTH 8 0
BBX 7 11 0 0
BITMAP
C6
C6
EE
6C
7C
38
7C
6C
EE
C6
C6
ENDCHAR
STARTCHAR U+0059
ENCODING 89
SWIDTH 500 0
DWIDTH 9 0
BBX 8 11 0 0
BITMAP
C3
C3
E7
66
7E
3C
3C
18
18
18
18
ENDCHAR
STARTCHAR U+005A
ENCODING 90
SWIDTH 444 0
DWIDTH 8 0
BBX 7 11 0 0
BITMAP
FE
FE
06
0E
1C
38
70
E0
C0
FE
FE
ENDCHAR
STARTCHAR U+005B
ENCODING 91
SWIDTH 277 0
DWIDTH 5 0
BBX 4 11 0 0
BITMAP
F0
F0
C0
C0
C0
C0
C0
C0
C0
F0
F0
ENDCHAR
STARTCHAR U+005C
ENCODING 92
SWIDTH 388 0
DWIDTH 7 0
BBX 6 11 0 0
BITMAP
C0
C0
E0
60
70
30
38
18
1C
0C
0C
ENDCHAR
STARTCHAR U+005D
ENCODING 93
SWIDTH 277 0
DWIDTH 5 0
BBX 4 11 0 0
BITMAP
F0
F0
30
30
30
30
30
30
30
F0
F0
ENDCHAR
STARTCHAR U+005E
ENCODING 94
SWIDTH 333 0
DWIDTH 6 0
BBX 5 4 0 7
BITMAP
20
70
F8
D8
ENDCHAR
STARTCHAR U+005F
ENCODING 95
SWIDTH 333 0
DWIDTH 6 0
BBX 5 2 0 0
BITMAP
F8
F8
ENDCHAR
STARTCHAR U+0060
ENCODING 96
SWIDTH 277 0
DWIDTH 5 0
BBX 4 4 0 7
BITMAP
C0
E0
70
30
ENDCHAR
STARTCHAR U+0061
ENCODING 97
SWIDTH 388 0
DWIDTH 7 0
BBX 6 8 0 0
BITMAP
F8
FC
0C
7C
FC
CC
FC
7C
ENDCHAR
STARTCHAR U+0062
ENCODING 98
SWIDTH 444 0
DWIDTH 8 0
BBX 7 11 0 0
BITMAP
C0
C0
C0
FC
FE
C6
C6
C6
C6
FE
FC
ENDCHAR
STARTCHAR U+0063
ENCODING 99
SWIDTH 388 0
DWIDTH 7 0
BBX 6 8 0 0
BITMAP
7C
FC
C0
C0
C0
C0
FC
7C
ENDCHAR
STARTCHAR U+0064
ENCODING 100
SWIDTH 444 0
DWIDTH 8 0
BBX 7 11 0 0
BITMAP
06
06
06
7E
FE
C6
C6
C6
C6
FE
7E
ENDCHAR
STARTCHAR U+0065
ENCODING 101
SWIDTH 444 0
DWIDTH 8 0
BBX 7 8 0 0
BITMAP
7C
FE
C6
FE
FE
C0
FE
7E
ENDCHAR
STARTCHAR U+0066
ENCODING 102
SWIDTH 333 0
DWIDTH 6 0
BBX 5 11 0 0
BITMAP
38
78
60
F8
F8
60
60
60
60
60
60
ENDCHAR
STARTCHAR U+0067
ENCODING 103
SWIDTH 444 0
DWIDTH 8 0
BBX 7 10 0 -2
BITMAP
7E
FE
C6
C6
C6
FE
7E
06
7E
7C
ENDCHAR
STARTCHAR U+0068
ENCODING 104
SWIDTH 444 0
DWIDTH 8 0
BBX 7 11 0 0
BITMAP
C0
C0
C0
FC
FE
C6
C6
C6
C6
C6
C6
ENDCHAR
STARTCHAR U+0069
ENCODING 105
SWIDTH 166 0
DWIDTH 3 0
BBX 2 11 0 0
BITMAP
C0
C0
00
C0
C0
C0
C0
C0
C0
C0
C0
ENDCHAR
STARTCHAR U+006A
ENCODING 106
SWIDTH 277 0
DWIDTH 5 0
BBX 4 13 0 -2
BITMAP
30
30
00
30
30
30
30
30
30
30
30
F0
E0
ENDCHAR
STARTCHAR U+006B
ENCODING 107
SWIDTH 444 0
DWIDTH 8 0
BBX 7 11 0 0
BITMAP
C0
C0
C0
C6
CE
DC
F8
FC
CE
C6
C6
ENDCHAR
STARTCHAR U+006C
ENCODING 108
SWIDTH 166 0
DWIDTH 3 0
BBX 2 11 0 0
BITMAP
C0
C0
C0
C0
C0
C0
C0
C0
C0
C0
C0
ENDCHAR
STARTCHAR U+006D
ENCODING 109
SWIDTH 500 0
DWIDTH 9 0
BBX 8 8 0 0
BITMAP
FE
FF
DB
DB
DB
DB
DB
DB
ENDCHAR
STARTCHAR U+006E
ENCODING 110
SWIDTH 444 0
DWIDTH 8 0
BBX 7 8 0 0
BITMAP
FC
FE
C6
C6
C6
C6
C6
C6
ENDCHAR
STARTCHAR U+006F
ENCODING 111
SWIDTH 444 0
DWIDTH 8 0
BBX 7 8 0 0
BITMAP
7C
FE
C6
C6
C6
C6
FE
7C
ENDCHAR
STARTCHAR U+0070
ENCODING 112
SWIDTH 444 0
DWIDTH 8 0
BBX 7 10 0 -2
BITMAP
FC
FE
C6
C6
C6
FE
FC
C0
C0
C0
ENDCHAR
STARTCHAR U+0071
ENCODING 113
SWIDTH 444 0
DWIDTH 8 0
BBX 7 10 0 -2
BITMAP
7E
FE
C6
C6
C6
FE
7E
06
06
06
ENDCHAR
STARTCHAR U+0072
ENCODING 114
SWIDTH 333 0
DWIDTH 6 0
BBX 5 8 0 0
BITMAP
D8
F8
E0
C0
C0
C0
C0
C0
ENDCHAR
STARTCHAR U+0073
ENCODING 115
SWIDTH 388 0
DWIDTH 7 0
BBX 6 8 0 0
BITMAP
7C
FC
C0
F8
7C
0C
FC
F8
ENDCHAR
STARTCHAR U+0074
ENCODING 116
SWIDTH 333 0
DWIDTH 6 0
BBX 5 10 0 0
BITMAP
60
60
F8
F8
60
60
60
60
78
38
ENDCHAR
STARTCHAR U+0075
ENCODING 117
SWIDTH 444 0
DWIDTH 8 0
BBX 7 8 0 0
BITMAP
C6
C6
C6
C6
C6
C6
FE
7E
ENDCHAR
STARTCHAR U+0076
ENCODING 118
SWIDTH 444 0
DWIDTH 8 0
BBX 7 8 0 0
BITMAP
C6
C6
C6
C6
EE
7C
38
10
ENDCHAR
STARTCHAR U+0077
ENCODING 119
SWIDTH 500 0
DWIDTH 9 0
BBX 8 8 0 0
BITMAP
DB
DB
DB
DB
DB
DB
FF
7E
ENDCHAR
STARTCHAR U+0078
ENCODING 120
SWIDTH 444 0
DWIDTH 8 0
BBX 7 8 0 0
BITMAP
C6
EE
7C
38
38
7C
EE
C6
ENDCHAR
STARTCHAR U+0079
ENCODING 121
SWIDTH 444 0
DWIDTH 8 0
BBX 7 10 0 -2
BITMAP
C6
C6
C6
C6
C6
FE
7E
06
7E
7C
ENDCHAR
STARTCHAR U+007A
ENCODING 122
SWIDTH 388 0
DWIDTH 7 0
BBX 6 8 0 0
BITMAP
FC
FC
1C
38
70
E0
FC
FC
ENDCHAR
STARTCHAR U+007B
ENCODING 123
SWIDTH 333 0
DWIDTH 6 0
BBX 5 11 0 0
BITMAP
38
78
60
60
60
C0
60
60
60
78
38
ENDCHAR
STARTCHAR U+007C
ENCODING 124
SWIDTH 166 0
DWIDTH 3 0
BBX 2 11 0 0
BITMAP
C0
C0
C0
C0
C0
C0
C0
C0
C0
C0
C0
ENDCHAR
STARTCHAR U+007D
ENCODING 125
SWIDTH 333 0
DWIDTH 6 0
BBX 5 11 0 0
BITMAP
E0
F0
30
30
30
18
30
30
30
F0
E0
ENDCHAR
STARTCHAR U+007E
ENCODING 126
SWIDTH 555 0
DWIDTH 10 0
BBX 9 3 0 4
BITMAP
7980
FF80
CF00
ENDCHAR
STARTCHAR U+00A0
ENCODING 160
SWIDTH 277 0
DWIDTH 5 0
BBX 0 0 0 0
BITMAP
ENDCHAR
STARTCHAR U+00A1
ENCODING 161
SWIDTH 166 0
DWIDTH 3 0
BBX 2 11 0 -3
BITMAP
C0
C0
00
C0
C0
C0
C0
C0
C0
C0
C0
ENDCHAR
STARTCHAR U+00A2
ENCODING 162
SWIDTH 444 0
DWIDTH 8 0
BBX 7 11 0 0
BITMAP
18
18
7E
FE
D8
D8
D8
FE
7E
18
18
ENDCHAR
STARTCHAR U+00A3
ENCODING 163
SWIDTH 555 0
DWIDTH 10 0
BBX 9 11 0 0
BITMAP
0F00
1F00
1800
3E00
3E00
1800
7800
F980
D980
FF80
7700
ENDCHAR
STARTCHAR U+00A4
ENCODING 164
SWIDTH 500 0
DWIDTH 9 0
BBX 8 8 0 1
BITMAP
BD
7E
E7
C3
C3
E7
7E
BD
ENDCHAR
STARTCHAR U+00A5
ENCODING 165
SWIDTH 500 0
DWIDTH 9 0
BBX 8 10 0 0
BITMAP
C3
E7
7E
3C
FF
18
FF
FF
18
18
ENDCHAR
STARTCHAR U+00A6
ENCODING 166
SWIDTH 166 0
DWIDTH 3 0
BBX 2 11 0 0
BITMAP
C0
C0
C0
C0
C0
00
C0
C0
C0
C0
C0
ENDCHAR
STARTCHAR U+00A7
ENCODING 167
SWIDTH 333 0
DWIDTH 6 0
BBX 5 11 0 0
BITMAP
78
F8
C0
F0
78
D8
F0
78
18
F8
F0
ENDCHAR
STARTCHAR U+00A8
ENCODING 168
SWIDTH 333 0
DWIDTH 6 0
BBX 5 2 0 9
BITMAP
D8
D8
ENDCHAR
STARTCHAR U+00A9
ENCODING 169
SWIDTH 666 0
DWIDTH 12 0
BBX 11 11 0 0
BITMAP
3F80
7FC0
E0E0
CE60
DE60
D860
DE60
CE60
E0E0
7FC0
3F80
ENDCHAR
STARTCHAR U+00AA
ENCODING 170
SWIDTH 277 0
DWIDTH 5 0
BBX 4 7 0 5
BITMAP
E0
30
70
B0
70
00
F0
ENDCHAR
STARTCHAR U+00AB
ENCODING 171
SWIDTH 444 0
DWIDTH 8 0
BBX 7 5 0 2
BITMAP
36
6C
D8
6C
36
ENDCHAR
STARTCHAR U+00AC
ENCODING 172
SWIDTH 555 0
DWIDTH 10 0
BBX 9 6 0 0
BITMAP
FF80
FF80
0180
0180
0180
0180
ENDCHAR
STARTCHAR U+00AE
ENCODING 174
SWIDTH 666 0
DWIDTH 12 0
BBX 11 11 0 0
BITMAP
3F80
7FC0
E0E0
DE60
DB60
DB60
DE60
DB60
E0E0
7FC0
3F80
ENDCHAR
STARTCHAR U+00AF
ENCODING 175
SWIDTH 333 0
DWIDTH 6 0
BBX 5 2 0 9
BITMAP
F8
F8
ENDCHAR
STARTCHAR U+00B0
ENCODING 176
SWIDTH 333 0
DWIDTH 6 0
BBX 5 5 0 6
BITMAP
70
F8
D8
F8
70
ENDCHAR
STARTCHAR U+00B1
ENCODING 177
SWIDTH 500 0
DWIDTH 9 0
BBX 8 10 0 0
BITMAP
18
18
18
FF
FF
18
18
18
FF
FF
ENDCHAR
STARTCHAR U+00B2
ENCODING 178
SWIDTH 277 0
DWIDTH 5 0
BBX 4 6 0 6
BITMAP
60
B0
30
60
C0
F0
ENDCHAR
STARTCHAR U+00B3
ENCODING 179
SWIDTH 277 0
DWIDTH 5 0
BBX 4 6 0 6
BITMAP
F0
30
60
30
B0
60
ENDCHAR
STARTCHAR U+00B4
ENCODING 180
SWIDTH 277 0
DWIDTH 5 0
BBX 4 3 0 10
BITMAP
30
60
C0
ENDCHAR
STARTCHAR U+00B5
ENCODING 181
SWIDTH 444 0
DWIDTH 8 0
BBX 7 10 0 -2
BITMAP
C6
C6
C6
C6
C6
C6
FE
FE
C0
C0
ENDCHAR
STARTCHAR U+00B6
ENCODING 182
SWIDTH 388 0
DWIDTH 7 0
BBX 6 11 0 0
BITMAP
7C
F4
F4
F4
74
14
14
14
14
14
14
ENDCHAR
STARTCHAR U+00B7
ENCODING 183
SWIDTH 166 0
DWIDTH 3 0
BBX 2 2 0 5
BITMAP
C0
C0
ENDCHAR
STARTCHAR U+00B8
ENCODING 184
SWIDTH 222 0
DWIDTH 4 0
BBX 3 3 0 -2
BITMAP
40
20
C0
ENDCHAR
STARTCHAR U+00B9
ENCODING 185
SWIDTH 277 0
DWIDTH 5 0
BBX 4 6 0 6
BITMAP
60
E0
60
60
60
F0
ENDCHAR
STARTCHAR U+00BA
ENCODING 186
SWIDTH 277 0
DWIDTH 5 0
BBX 4 7 0 5
BITMAP
60
B0
B0
B0
60
00
F0
ENDCHAR
STARTCHAR U+00BB
ENCODING 187
SWIDTH 444 0
DWIDTH 8 0
BBX 7 5 0 2
BITMAP
D8
6C
36
6C
D8
ENDCHAR
STARTCHAR U+00BC
ENCODING 188
SWIDTH 666 0
DWIDTH 12 0
BBX 11 11 0 0
BITMAP
6000
E040
6080
6100
6200
F4C0
09C0
12C0
23E0
40C0
00C0
ENDCHAR
STARTCHAR U+00BD
ENCODING 189
SWIDTH 666 0
DWIDTH 12 0
BBX 11 11 0 0
BITMAP
6000
E040
6080
6100
6200
F5C0
0860
1060
20C0
4180
01E0
ENDCHAR
STARTCHAR U+00BE
ENCODING 190
SWIDTH 666 0
DWIDTH 12 0
BBX 11 11 0 0
BITMAP
E000
3040
6080
3100
3200
E4C0
09C0
12C0
23E0
40C0
00C0
ENDCHAR
STARTCHAR U+00BF
ENCODING 191
SWIDTH 333 0
DWIDTH 6 0
BBX 6 11 0 -3
BITMAP
30
30
00
30
30
70
E0
CC
CC
FC
78
ENDCHAR
STARTCHAR U+00C0
ENCODING 192
SWIDTH 444 0
DWIDTH 8 0
BBX 7 14 0 0
BITMAP
30
18
00
7C
FE
C6
C6
C6
C6
FE
FE
C6
C6
C6
ENDCHAR
STARTCHAR U+00C1
ENCODING 193
SWIDTH 444 0
DWIDTH 8 0
BBX 7 14 0 0
BITMAP
18
30
00
7C
FE
C6
C6
C6
C6
FE
FE
C6
C6
C6
ENDCHAR
STARTCHAR U+00C2
ENCODING 194
SWIDTH 444 0
DWIDTH 8 0
BBX 7 14 0 0
BITMAP
38
6C
00
7C
FE
C6
C6
C6
C6
FE
FE
C6
C6
C6
ENDCHAR
STARTCHAR U+00C3
ENCODING 195
SWIDTH 444 0
DWIDTH 8 0
BBX 7 14 0 0
BITMAP
34
58
00
7C
FE
C6
C6
C6
C6
FE
FE
C6
C6
C6
ENDCHAR
STARTCHAR U+00C4
ENCODING 196
SWIDTH 444 0
DWIDTH 8 0
BBX 7 14 0 0
BITMAP
6C
6C
00
7C
FE
C6
C6
C6
C6
FE
FE
C6
C6
C6
ENDCHAR
STARTCHAR U+00C5
ENCODING 197
SWIDTH 444 0
DWIDTH 8 0
BBX 7 14 0 0
BITMAP
10
28
10
7C
FE
C6
C6
C6
C6
FE
FE
C6
C6
C6
ENDCHAR
STARTCHAR U+00C6
ENCODING 198
SWIDTH 555 0
DWIDTH 10 0
BBX 9 11 0 0
BITMAP
7F80
FF80
CC00
CC00
CF80
CF80
FC00
FC00
CC00
CF80
CF80
ENDCHAR
STARTCHAR U+00C7
ENCODING 199
SWIDTH 444 0
DWIDTH 8 0
BBX 7 13 0 -2
BITMAP
7C
FE
C6
C0
C0
C0
C0
C0
C6
FE
7C
08
30
ENDCHAR
STARTCHAR U+00C8
ENCODING 200
SWIDTH 388 0
DWIDTH 7 0
BBX 6 14 0 0
BITMAP
60
30
00
FC
FC
C0
C0
FC
FC
C0
C0
C0
FC
FC
ENDCHAR
STARTCHAR U+00C9
ENCODING 201
SWIDTH 388 0
DWIDTH 7 0
BBX 6 14 0 0
BITMAP
18
30
00
FC
FC
C0
C0
FC
FC
C0
C0
C0
FC
FC
ENDCHAR
STARTCHAR U+00CA
ENCODING 202
SWIDTH 388 0
DWIDTH 7 0
BBX 6 14 0 0
BITMAP
38
6C
00
FC
FC
C0
C0
FC
FC
C0
C0
C0
FC
FC
ENDCHAR
STARTCHAR U+00CB
ENCODING 203
SWIDTH 388 0
DWIDTH 7 0
BBX 6 14 0 0
BITMAP
6C
6C
00
FC
FC
C0
C0
FC
FC
C0
C0
C0
FC
FC
ENDCHAR
STARTCHAR U+00CC
ENCODING 204
SWIDTH 277 0
DWIDTH 5 0
BBX 4 14 0 0
BITMAP
C0
60
00
F0
F0
60
60
60
60
60
60
60
F0
F0
ENDCHAR
STARTCHAR U+00CD
ENCODING 205
SWIDTH 277 0
DWIDTH 5 0
BBX 4 14 0 0
BITMAP
30
60
00
F0
F0
60
60
60
60
60
60
60
F0
F0
ENDCHAR
STARTCHAR U+00CE
ENCODING 206
SWIDTH 277 0
DWIDTH 5 0
BBX 5 14 0 0
BITMAP
70
D8
00
F0
F0
60
60
60
60
60
60
60
F0
F0
ENDCHAR
STARTCHAR U+00CF
ENCODING 207
SWIDTH 277 0
DWIDTH 5 0
BBX 5 14 0 0
BITMAP
D8
D8
00
F0
F0
60
60
60
60
60
60
60
F0
F0
ENDCHAR
STARTCHAR U+00D0
ENCODING 208
SWIDTH 500 0
DWIDTH 9 0
BBX 8 11 0 0
BITMAP
7E
7F
63
63
FB
FB
63
63
63
7F
7E
ENDCHAR
STARTCHAR U+00D1
ENCODING 209
SWIDTH 444 0
DWIDTH 8 0
BBX 7 14 0 0
BITMAP
34
58
00
C6
E6
E6
F6
F6
FE
DE
DE
CE
CE
C6
ENDCHAR
STARTCHAR U+00D2
ENCODING 210
SWIDTH 444 0
DWIDTH 8 0
BBX 7 14 0 0
BITMAP
30
18
00
7C
FE
C6
C6
C6
C6
C6
C6
C6
FE
7C
ENDCHAR
STARTCHAR U+00D3
ENCODING 211
SWIDTH 444 0
DWIDTH 8 0
BBX 7 14 0 0
BITMAP
18
30
00
7C
FE
C6
C6
C6
C6
C6
C6
C6
FE
7C
ENDCHAR
STARTCHAR U+00D4
ENCODING 212
SWIDTH 444 0
DWIDTH 8 0
BBX 7 14 0 0
BITMAP
38
6C
00
7C
FE
C6
C6
C6
C6
C6
C6
C6
FE
7C
ENDCHAR
STARTCHAR U+00D5
ENCODING 213
SWIDTH 444 0
DWIDTH 8 0
BBX 7 14 0 0
BITMAP
34
58
00
7C
FE
C6
C6
C6
C6
C6
C6
C6
FE
7C
ENDCHAR
STARTCHAR U+00D6
ENCODING 214
SWIDTH 444 0
DWIDTH 8 0
BBX 7 14 0 0
BITMAP
6C
6C
00
7C
FE
C6
C6
C6
C6
C6
C6
C6
FE
7C
ENDCHAR
STARTCHAR U+00D7
ENCODING 215
SWIDTH 500 0
DWIDTH 9 0
BBX 8 8 0 1
BITMAP
C3
E7
7E
3C
3C
7E
E7
C3
ENDCHAR
STARTCHAR U+00D8
ENCODING 216
SWIDTH 555 0
DWIDTH 10 0
BBX 9 11 0 0
BITMAP
3E80
7F80
6380
6700
6F00
7F00
7B00
7300
E300
FF00
BE00
ENDCHAR
STARTCHAR U+00D9
ENCODING 217
SWIDTH 444 0
DWIDTH 8 0
BBX 7 14 0 0
BITMAP
30
18
00
C6
C6
C6
C6
C6
C6
C6
C6
C6
FE
7C
ENDCHAR
STARTCHAR U+00DA
ENCODING 218
SWIDTH 444 0
DWIDTH 8 0
BBX 7 14 0 0
BITMAP
18
30
00
C6
C6
C6
C6
C6
C6
C6
C6
C6
FE
7C
ENDCHAR
STARTCHAR U+00DB
ENCODING 219
SWIDTH 444 0
DWIDTH 8 0
BBX 7 14 0 0
BITMAP
38
6C
00
C6
C6
C6
C6
C6
C6
C6
C6
C6
FE
7C
ENDCHAR
STARTCHAR U+00DC
ENCODING 220
SWIDTH 444 0
DWIDTH 8 0
BBX 7 14 0 0
BITMAP
6C
6C
00
C6
C6
C6
C6
C6
C6
C6
C6
C6
FE
7C
ENDCHAR
STARTCHAR U+00DD
ENCODING 221
SWIDTH 500 0
DWIDTH 9 0
BBX 8 14 0 0
BITMAP
0C
18
00
C3
C3
E7
66
7E
3C
3C
18
18
18
18
ENDCHAR
STARTCHAR U+00DE
ENCODING 222
SWIDTH 444 0
DWIDTH 8 0
BBX 7 14 0 0
BITMAP
C0
C0
C0
FC
FE
C6
C6
C6
FE
FC
C0
C0
C0
C0
ENDCHAR
STARTCHAR U+00DF
ENCODING 223
SWIDTH 444 0
DWIDTH 8 0
BBX 7 11 0 0
BITMAP
7C
FE
C6
C6
DE
DC
C6
C6
C6
DE
DC
ENDCHAR
STARTCHAR U+00E0
ENCODING 224
SWIDTH 388 0
DWIDTH 7 0
BBX 6 11 0 0
BITMAP
60
30
00
F8
FC
0C
7C
FC
CC
FC
7C
ENDCHAR
STARTCHAR U+00E1
ENCODING 225
SWIDTH 388 0
DWIDTH 7 0
BBX 6 11 0 0
BITMAP
18
30
00
F8
FC
0C
7C
FC
CC
FC
7C
ENDCHAR
STARTCHAR U+00E2
ENCODING 226
SWIDTH 388 0
DWIDTH 7 0
BBX 6 11 0 0
BITMAP
70
D8
00
F8
FC
0C
7C
FC
CC
FC
7C
ENDCHAR
STARTCHAR U+00E3
ENCODING 227
SWIDTH 388 0
DWIDTH 7 0
BBX 6 11 0 0
BITMAP
68
B0
00
F8
FC
0C
7C
FC
CC
FC
7C
ENDCHAR
STARTCHAR U+00E4
ENCODING 228
SWIDTH 388 0
DWIDTH 7 0
BBX 6 11 0 0
BITMAP
D8
D8
00
F8
FC
0C
7C
FC
CC
FC
7C
ENDCHAR
STARTCHAR U+00E5
ENCODING 229
SWIDTH 388 0
DWIDTH 7 0
BBX 6 12 0 0
BITMAP
20
50
20
00
F8
FC
0C
7C
FC
CC
FC
7C
ENDCHAR
STARTCHAR U+00E6
ENCODING 230
SWIDTH 555 0
DWIDTH 10 0
BBX 10 8 0 0
BITMAP
F780
FFC0
0CC0
7FC0
FFC0
CC00
FFC0
7BC0
ENDCHAR
STARTCHAR U+00E7
ENCODING 231
SWIDTH 388 0
DWIDTH 7 0
BBX 6 10 0 -2
BITMAP
7C
FC
C0
C0
C0
C0
FC
7C
08
30
ENDCHAR
STARTCHAR U+00E8
ENCODING 232
SWIDTH 444 0
DWIDTH 8 0
BBX 7 11 0 0
BITMAP
30
18
00
7C
FE
C6
FE
FE
C0
FE
7E
ENDCHAR
STARTCHAR U+00E9
ENCODING 233
SWIDTH 444 0
DWIDTH 8 0
BBX 7 11 0 0
BITMAP
18
30
00
7C
FE
C6
FE
FE
C0
FE
7E
ENDCHAR
STARTCHAR U+00EA
ENCODING 234
SWIDTH 444 0
DWIDTH 8 0
BBX 7 11 0 0
BITMAP
38
6C
00
7C
FE
C6
FE
FE
C0
FE
7E
ENDCHAR
STARTCHAR U+00EB
ENCODING 235
SWIDTH 444 0
DWIDTH 8 0
BBX 7 11 0 0
BITMAP
6C
6C
00
7C
FE
C6
FE
FE
C0
FE
7E
ENDCHAR
STARTCHAR U+00EC
ENCODING 236
SWIDTH 222 0
DWIDTH 4 0
BBX 3 11 0 0
BITMAP
C0
60
00
60
60
60
60
60
60
60
60
ENDCHAR
STARTCHAR U+00ED
ENCODING 237
SWIDTH 222 0
DWIDTH 4 0
BBX 3 11 0 0
BITMAP
60
C0
00
C0
C0
C0
C0
C0
C0
C0
C0
ENDCHAR
STARTCHAR U+00EE
ENCODING 238
SWIDTH 333 0
DWIDTH 6 0
BBX 5 11 0 0
BITMAP
70
D8
00
60
60
60
60
60
60
60
60
ENDCHAR
STARTCHAR U+00EF
ENCODING 239
SWIDTH 333 0
DWIDTH 6 0
BBX 5 11 0 0
BITMAP
D8
D8
00
60
60
60
60
60
60
60
60
ENDCHAR
STARTCHAR U+00F0
ENCODING 240
SWIDTH 444 0
DWIDTH 8 0
BBX 7 11 0 0
BITMAP
34
18
2C
06
7E
FE
C6
C6
C6
FE
7C
ENDCHAR
STARTCHAR U+00F1
ENCODING 241
SWIDTH 444 0
DWIDTH 8 0
BBX 7 11 0 0
BITMAP
34
58
00
FC
FE
C6
C6
C6
C6
C6
C6
ENDCHAR
STARTCHAR U+00F2
ENCODING 242
SWIDTH 444 0
DWIDTH 8 0
BBX 7 11 0 0
BITMAP
30
18
00
7C
FE
C6
C6
C6
C6
FE
7C
ENDCHAR
STARTCHAR U+00F3
ENCODING 243
SWIDTH 444 0
DWIDTH 8 0
BBX 7 11 0 0
BITMAP
18
30
00
7C
FE
C6
C6
C6
C6
FE
7C
ENDCHAR
STARTCHAR U+00F4
ENCODING 244
SWIDTH 444 0
DWIDTH 8 0
BBX 7 11 0 0
BITMAP
38
6C
00
7C
FE
C6
C6
C6
C6
FE
7C
ENDCHAR
STARTCHAR U+00F5
ENCODING 245
SWIDTH 444 0
DWIDTH 8 0
BBX 7 11 0 0
BITMAP
34
58
00
7C
FE
C6
C6
C6
C6
FE
7C
ENDCHAR
STARTCHAR U+00F6
ENCODING 246
SWIDTH 444 0
DWIDTH 8 0
BBX 7 11 0 0
BITMAP
6C
6C
00
7C
FE
C6
C6
C6
C6
FE
7C
ENDCHAR
STARTCHAR U+00F7
ENCODING 247
SWIDTH 500 0
DWIDTH 9 0
BBX 8 8 0 1
BITMAP
18
18
00
FF
FF
00
18
18
ENDCHAR
STARTCHAR U+00F8
ENCODING 248
SWIDTH 555 0
DWIDTH 10 0
BBX 9 8 0 0
BITMAP
3E80
7F80
6700
6F00
7B00
7300
FF00
BE00
ENDCHAR
STARTCHAR U+00F9
ENCODING 249
SWIDTH 444 0
DWIDTH 8 0
BBX 7 11 0 0
BITMAP
30
18
00
C6
C6
C6
C6
C6
C6
FE
7E
ENDCHAR
STARTCHAR U+00FA
ENCODING 250
SWIDTH 444 0
DWIDTH 8 0
BBX 7 11 0 0
BITMAP
18
30
00
C6
C6
C6
C6
C6
C6
FE
7E
ENDCHAR
STARTCHAR U+00FB
ENCODING 251
SWIDTH 444 0
DWIDTH 8 0
BBX 7 11 0 0
BITMAP
38
6C
00
C6
C6
C6
C6
C6
C6
FE
7E
ENDCHAR
STARTCHAR U+00FC
ENCODING 252
SWIDTH 444 0
DWIDTH 8 0
BBX 7 11 0 0
BITMAP
6C
6C
00
C6
C6
C6
C6
C6
C6
FE
7E
ENDCHAR
STARTCHAR U+00FD
ENCODING 253
SWIDTH 444 0
DWIDTH 8 0
BBX 7 13 0 -2
BITMAP
18
30
00
C6
C6
C6
C6
C6
FE
7E
06
7E
7C
ENDCHAR
STARTCHAR U+00FE
ENCODING 254
SWIDTH 444 0
DWIDTH 8 0
BBX 7 13 0 -2
BITMAP
C0
C0
C0
FC
FE
C6
C6
C6
FE
FC
C0
C0
C0
ENDCHAR
STARTCHAR U+00FF
ENCODING 255
SWIDTH 444 0
DWIDTH 8 0
BBX 7 13 0 -2
BITMAP
6C
6C
00
C6
C6
C6
C6
C6
FE
7E
06
7E
7C
ENDCHAR
STARTCHAR U+2010
ENCODING 8208
SWIDTH 333 0
DWIDTH 6 0
BBX 5 2 0 4
BITMAP
F8
F8
ENDCHAR
STARTCHAR U+2011
ENCODING 8209
SWIDTH 333 0
DWIDTH 6 0
BBX 5 2 0 4
BITMAP
F8
F8
ENDCHAR
STARTCHAR U+2012
ENCODING 8210
SWIDTH 444 0
DWIDTH 8 0
BBX 7 2 0 4
BITMAP
FE
FE
ENDCHAR
STARTCHAR U+2013
ENCODING 8211
SWIDTH 388 0
DWIDTH 7 0
BBX 6 2 0 4
BITMAP
FC
FC
ENDCHAR
STARTCHAR U+2014
ENCODING 8212
SWIDTH 666 0
DWIDTH 12 0
BBX 11 2 0 4
BITMAP
FFE0
FFE0
ENDCHAR
STARTCHAR U+2015
ENCODING 8213
SWIDTH 666 0
DWIDTH 12 0
BBX 11 2 0 4
BITMAP
FFE0
FFE0
ENDCHAR
STARTCHAR U+2016
ENCODING 8214
SWIDTH 333 0
DWIDTH 6 0
BBX 5 11 0 0
BITMAP
D8
D8
D8
D8
D8
D8
D8
D8
D8
D8
D8
ENDCHAR
STARTCHAR U+2017
ENCODING 8215
SWIDTH 388 0
DWIDTH 7 0
BBX 6 5 0 0
BITMAP
FC
FC
00
FC
FC
ENDCHAR
STARTCHAR U+2018
ENCODING 8216
SWIDTH 166 0
DWIDTH 3 0
BBX 2 4 0 7
BITMAP
40
80
C0
C0
ENDCHAR
STARTCHAR U+2019
ENCODING 8217
SWIDTH 166 0
DWIDTH 3 0
BBX 2 4 0 7
BITMAP
C0
C0
40
80
ENDCHAR
STARTCHAR U+201A
ENCODING 8218
SWIDTH 166 0
DWIDTH 3 0
BBX 2 4 0 -2
BITMAP
C0
C0
40
80
ENDCHAR
STARTCHAR U+201B
ENCODING 8219
SWIDTH 166 0
DWIDTH 3 0
BBX 2 4 0 7
BITMAP
C0
C0
80
40
ENDCHAR
STARTCHAR U+201C
ENCODING 8220
SWIDTH 333 0
DWIDTH 6 0
BBX 5 4 0 7
BITMAP
48
90
D8
D8
ENDCHAR
STARTCHAR U+201D
ENCODING 8221
SWIDTH 333 0
DWIDTH 6 0
BBX 5 4 0 7
BITMAP
D8
D8
48
90
ENDCHAR
STARTCHAR U+201E
ENCODING 8222
SWIDTH 333 0
DWIDTH 6 0
BBX 5 4 0 -2
BITMAP
D8
D8
48
90
ENDCHAR
STARTCHAR U+201F
ENCODING 8223
SWIDTH 333 0
DWIDTH 6 0
BBX 5 4 0 7
BITMAP
D8
D8
90
48
ENDCHAR
STARTCHAR U+2020
ENCODING 8224
SWIDTH 388 0
DWIDTH 7 0
BBX 6 11 0 0
BITMAP
30
30
30
FC
FC
30
30
30
30
30
30
ENDCHAR
STARTCHAR U+2021
ENCODING 8225
SWIDTH 388 0
DWIDTH 7 0
BBX 6 11 0 0
BITMAP
30
30
FC
FC
30
30
30
FC
FC
30
30
ENDCHAR
STARTCHAR U+2022
ENCODING 8226
SWIDTH 277 0
DWIDTH 5 0
BBX 4 4 0 3
BITMAP
60
F0
F0
60
ENDCHAR
STARTCHAR U+2023
ENCODING 8227
SWIDTH 277 0
DWIDTH 5 0
BBX 3 5 1 3
BITMAP
80
C0
E0
C0
80
ENDCHAR
STARTCHAR U+2024
ENCODING 8228
SWIDTH 166 0
DWIDTH 3 0
BBX 2 2 0 0
BITMAP
C0
C0
ENDCHAR
STARTCHAR U+2025
ENCODING 8229
SWIDTH 444 0
DWIDTH 8 0
BBX 7 2 0 5
BITMAP
C6
C6
ENDCHAR
STARTCHAR U+2026
ENCODING 8230
SWIDTH 500 0
DWIDTH 9 0
BBX 8 2 0 5
BITMAP
DB
DB
ENDCHAR
STARTCHAR U+2027
ENCODING 8231
SWIDTH 166 0
DWIDTH 3 0
BBX 2 2 0 5
BITMAP
C0
C0
ENDCHAR
STARTCHAR U+2030
ENCODING 8240
SWIDTH 833 0
DWIDTH 15 0
BBX 14 11 0 0
BITMAP
7000
F8C0
D9C0
FB80
7700
0E00
1DD8
3BFC
736C
63FC
01D8
ENDCHAR
STARTCHAR U+2031
ENCODING 8241
SWIDTH 1000 0
DWIDTH 18 0
BBX 17 11 0 0
BITMAP
700000
F8C000
D9C000
FB8000
770000
0E0000
1DDB00
3BFF80
736D80
63FF80
01DB00
ENDCHAR
STARTCHAR U+2032
ENCODING 8242
SWIDTH 166 0
DWIDTH 3 0
BBX 2 4 0 7
BITMAP
C0
C0
40
80
ENDCHAR
STARTCHAR U+2033
ENCODING 8243
SWIDTH 333 0
DWIDTH 6 0
BBX 5 4 0 7
BITMAP
D8
D8
48
90
ENDCHAR
STARTCHAR U+2034
ENCODING 8244
SWIDTH 500 0
DWIDTH 9 0
BBX 8 4 0 7
BITMAP
DB
DB
49
92
ENDCHAR
STARTCHAR U+2035
ENCODING 8245
SWIDTH 166 0
DWIDTH 3 0
BBX 2 4 0 7
BITMAP
C0
C0
80
40
ENDCHAR
STARTCHAR U+2036
ENCODING 8246
SWIDTH 333 0
DWIDTH 6 0
BBX 5 4 0 7
BITMAP
D8
D8
90
48
ENDCHAR
STARTCHAR U+2037
ENCODING 8247
SWIDTH 500 0
DWIDTH 9 0
BBX 8 4 0 7
BITMAP
DB
DB
92
49
ENDCHAR
STARTCHAR U+2038
ENCODING 8248
SWIDTH 333 0
DWIDTH 6 0
BBX 5 3 0 0
BITMAP
20
70
D8
ENDCHAR
STARTCHAR U+2039
ENCODING 8249
SWIDTH 277 0
DWIDTH 5 0
BBX 4 5 0 2
BITMAP
30
60
C0
60
30
ENDCHAR
STARTCHAR U+203A
ENCODING 8250
SWIDTH 277 0
DWIDTH 5 0
BBX 4 5 0 2
BITMAP
C0
60
30
60
C0
ENDCHAR
STARTCHAR U+203B
ENCODING 8251
SWIDTH 666 0
DWIDTH 12 0
BBX 11 11 0 0
BITMAP
CE60
EEE0
71C0
3B80
DF60
CE60
DF60
3B80
71C0
EEE0
CE60
ENDCHAR
STARTCHAR U+203C
ENCODING 8252
SWIDTH 333 0
DWIDTH 6 0
BBX 5 11 0 0
BITMAP
D8
D8
D8
D8
D8
D8
D8
D8
00
D8
D8
ENDCHAR
STARTCHAR U+203D
ENCODING 8253
SWIDTH 388 0
DWIDTH 7 0
BBX 6 11 0 0
BITMAP
78
FC
CC
FC
3C
38
30
30
00
30
30
ENDCHAR
STARTCHAR U+2043
ENCODING 8259
SWIDTH 277 0
DWIDTH 5 0
BBX 4 2 0 4
BITMAP
F0
F0
ENDCHAR
STARTCHAR U+2044
ENCODING 8260
SWIDTH 388 0
DWIDTH 7 0
BBX 6 11 0 0
BITMAP
0C
0C
1C
18
38
30
70
60
E0
C0
C0
ENDCHAR
STARTCHAR U+2045
ENCODING 8261
SWIDTH 277 0
DWIDTH 5 0
BBX 4 11 0 0
BITMAP
F0
F0
C0
C0
F0
F0
C0
C0
C0
F0
F0
ENDCHAR
STARTCHAR U+2046
ENCODING 8262
SWIDTH 277 0
DWIDTH 5 0
BBX 4 11 0 0
BITMAP
F0
F0
30
30
F0
F0
30
30
30
F0
F0
ENDCHAR
STARTCHAR U+2047
ENCODING 8263
SWIDTH 777 0
DWIDTH 14 0
BBX 13 11 0 0
BITMAP
78F0
FDF8
CD98
CD98
1C30
3870
3060
3060
0000
3060
3060
ENDCHAR
STARTCHAR U+2048
ENCODING 8264
SWIDTH 555 0
DWIDTH 10 0
BBX 9 11 0 0
BITMAP
7980
FD80
CD80
CD80
1D80
3980
3180
3180
0000
3180
3180
ENDCHAR
STARTCHAR U+2049
ENCODING 8265
SWIDTH 555 0
DWIDTH 10 0
BBX 9 11 0 0
BITMAP
CF00
DF80
D980
D980
C380
C700
C600
C600
0000
C600
C600
ENDCHAR
STARTCHAR U+204B
ENCODING 8267
SWIDTH 388 0
DWIDTH 7 0
BBX 6 11 0 0
BITMAP
F8
BC
BC
BC
B8
A0
A0
A0
A0
A0
A0
ENDCHAR
STARTCHAR U+2057
ENCODING 8279
SWIDTH 666 0
DWIDTH 12 0
BBX 11 4 0 7
BITMAP
DB60
DB60
4920
9240
ENDCHAR
STARTCHAR U+20A1
ENCODING 8353
SWIDTH 444 0
DWIDTH 8 0
BBX 7 11 0 0
BITMAP
18
18
7E
FE
D8
D8
D8
FE
7E
18
18
ENDCHAR
STARTCHAR U+20A4
ENCODING 8356
SWIDTH 555 0
DWIDTH 10 0
BBX 9 11 0 0
BITMAP
0F00
1F00
1800
3E00
3E00
1800
7800
F980
D980
FF80
7700
ENDCHAR
STARTCHAR U+20A9
ENCODING 8361
SWIDTH 666 0
DWIDTH 12 0
BBX 11 11 0 0
BITMAP
60C0
60C0
64C0
FFE0
FFE0
6EC0
FFE0
FBE0
3B80
3180
3180
ENDCHAR
STARTCHAR U+20AC
ENCODING 8364
SWIDTH 500 0
DWIDTH 9 0
BBX 8 11 0 0
BITMAP
3E
7F
63
F8
F8
60
F8
F8
63
7F
3E
ENDCHAR
STARTCHAR U+2103
ENCODING 8451
SWIDTH 777 0
DWIDTH 14 0
BBX 13 11 0 0
BITMAP
7000
F9F0
DBF8
FB18
7300
0300
0300
0300
0318
03F8
01F0
ENDCHAR
STARTCHAR U+2109
ENCODING 8457
SWIDTH 722 0
DWIDTH 13 0
BBX 12 11 0 0
BITMAP
7000
FBF0
DBF0
FB00
7300
03F0
03F0
0300
0300
0300
0300
ENDCHAR
STARTCHAR U+2116
ENCODING 8470
SWIDTH 666 0
DWIDTH 12 0
BBX 11 11 0 0
BITMAP
C800
C800
E800
E980
EAC0
FAC0
BAC0
BAC0
BAC0
9AC0
99A0
ENDCHAR
STARTCHAR U+2121
ENCODING 8481
SWIDTH 666 0
DWIDTH 12 0
BBX 11 11 0 0
BITMAP
FEC0
6CC0
6CC0
6CC0
6CC0
6EC0
6CC0
6CC0
6CC0
6CC0
6EE0
ENDCHAR
STARTCHAR U+2122
ENCODING 8482
SWIDTH 666 0
DWIDTH 12 0
BBX 10 4 0 7
BITMAP
F6C0
67C0
6540
6440
ENDCHAR
STARTCHAR U+2150
ENCODING 8528
SWIDTH 666 0
DWIDTH 12 0
BBX 11 11 0 0
BITMAP
6000
E040
6080
6100
6200
F5E0
0860
10C0
20C0
4180
0180
ENDCHAR
STARTCHAR U+2151
ENCODING 8529
SWIDTH 666 0
DWIDTH 12 0
BBX 11 11 0 0
BITMAP
6000
E040
6080
6100
6200
F5C0
0B60
1360
21E0
4060
01C0
ENDCHAR
STARTCHAR U+2152
ENCODING 8530
SWIDTH 666 0
DWIDTH 12 0
BBX 11 11 0 0
BITMAP
6000
E040
6080
6100
6200
F400
0EC0
1760
2760
4760
06C0
ENDCHAR
STARTCHAR U+2153
ENCODING 8531
SWIDTH 666 0
DWIDTH 12 0
BBX 11 11 0 0
BITMAP
6000
E040
6080
6100
6200
F5C0
0860
10C0
2060
4060
01C0
ENDCHAR
STARTCHAR U+2154
ENCODING 8532
SWIDTH 666 0
DWIDTH 12 0
BBX 11 11 0 0
BITMAP
E000
3040
3080
6100
C200
F5C0
0860
10C0
2060
4060
01C0
ENDCHAR
STARTCHAR U+2155
ENCODING 8533
SWIDTH 666 0
DWIDTH 12 0
BBX 11 11 0 0
BITMAP
6000
E040
6080
6100
6200
F5E0
0980
11C0
2060
4060
01C0
ENDCHAR
STARTCHAR U+2156
ENCODING 8534
SWIDTH 666 0
DWIDTH 12 0
BBX 11 11 0 0
BITMAP
E000
3040
3080
6100
C200
F5E0
0980
11C0
2060
4060
01C0
ENDCHAR
STARTCHAR U+2157
ENCODING 8535
SWIDTH 666 0
DWIDTH 12 0
BBX 11 11 0 0
BITMAP
E000
3040
6080
3100
3200
E5E0
0980
11C0
2060
4060
01C0
ENDCHAR
STARTCHAR U+2158
ENCODING 8536
SWIDTH 666 0
DWIDTH 12 0
BBX 11 11 0 0
BITMAP
3000
7040
B080
F900
3200
35E0
0980
11C0
2060
4060
01C0
ENDCHAR
STARTCHAR U+2159
ENCODING 8537
SWIDTH 666 0
DWIDTH 12 0
BBX 11 11 0 0
BITMAP
6000
E040
6080
6100
6200
F4C0
09C0
12C0
23E0
40C0
00C0
ENDCHAR
STARTCHAR U+215A
ENCODING 8538
SWIDTH 666 0
DWIDTH 12 0
BBX 11 11 0 0
BITMAP
F000
C040
E080
3100
3200
E5C0
0B00
13C0
2360
4360
01C0
ENDCHAR
STARTCHAR U+215B
ENCODING 8539
SWIDTH 666 0
DWIDTH 12 0
BBX 11 11 0 0
BITMAP
6000
E040
6080
6100
6200
F5C0
0B60
11C0
2360
4360
01C0
ENDCHAR
STARTCHAR U+215C
ENCODING 8540
SWIDTH 666 0
DWIDTH 12 0
BBX 11 11 0 0
BITMAP
E000
3040
6080
3100
3200
E5C0
0B60
11C0
2360
4360
01C0
ENDCHAR
STARTCHAR U+215D
ENCODING 8541
SWIDTH 666 0
DWIDTH 12 0
BBX 11 11 0 0
BITMAP
F000
C040
E080
3100
3200
E5C0
0B60
11C0
2360
4360
01C0
ENDCHAR
STARTCHAR U+215E
ENCODING 8542
SWIDTH 666 0
DWIDTH 12 0
BBX 11 11 0 0
BITMAP
F800
1840
3080
3100
6200
65C0
0B60
11C0
2360
4360
01C0
ENDCHAR
STARTCHAR U+215F
ENCODING 8543
SWIDTH 666 0
DWIDTH 12 0
BBX 10 10 0 1
BITMAP
6000
E040
6080
6100
6200
F400
0800
1000
2000
4000
ENDCHAR
STARTCHAR U+2160
ENCODING 8544
SWIDTH 277 0
DWIDTH 5 0
BBX 4 11 0 0
BITMAP
F0
F0
60
60
60
60
60
60
60
F0
F0
ENDCHAR
STARTCHAR U+2161
ENCODING 8545
SWIDTH 444 0
DWIDTH 8 0
BBX 7 11 0 0
BITMAP
FE
FE
6C
6C
6C
6C
6C
6C
6C
FE
FE
ENDCHAR
STARTCHAR U+2162
ENCODING 8546
SWIDTH 611 0
DWIDTH 11 0
BBX 10 11 0 0
BITMAP
FFC0
FFC0
6D80
6D80
6D80
6D80
6D80
6D80
6D80
FFC0
FFC0
ENDCHAR
STARTCHAR U+2163
ENCODING 8547
SWIDTH 722 0
DWIDTH 13 0
BBX 12 11 0 0
BITMAP
F630
F630
6630
6630
6630
6630
6630
6770
63E0
F1C0
F080
ENDCHAR
STARTCHAR U+2164
ENCODING 8548
SWIDTH 444 0
DWIDTH 8 0
BBX 7 11 0 0
BITMAP
C6
C6
C6
C6
C6
C6
C6
EE
7C
38
10
ENDCHAR
STARTCHAR U+2165
ENCODING 8549
SWIDTH 722 0
DWIDTH 13 0
BBX 12 11 0 0
BITMAP
C6F0
C6F0
C660
C660
C660
C660
C660
EE60
7C60
38F0
10F0
ENDCHAR
STARTCHAR U+2166
ENCODING 8550
SWIDTH 888 0
DWIDTH 16 0
BBX 15 11 0 0
BITMAP
C6FE
C6FE
C66C
C66C
C66C
C66C
C66C
EE6C
7C6C
38FE
10FE
ENDCHAR
STARTCHAR U+2167
ENCODING 8551
SWIDTH 1055 0
DWIDTH 19 0
BBX 18 11 0 0
BITMAP
C6FFC0
C6FFC0
C66D80
C66D80
C66D80
C66D80
C66D80
EE6D80
7C6D80
38FFC0
10FFC0
ENDCHAR
STARTCHAR U+2168
ENCODING 8552
SWIDTH 722 0
DWIDTH 13 0
BBX 12 11 0 0
BITMAP
F630
F630
6770
6360
63E0
61C0
63E0
6360
6770
F630
F630
ENDCHAR
STARTCHAR U+2169
ENCODING 8553
SWIDTH 444 0
DWIDTH 8 0
BBX 7 11 0 0
BITMAP
C6
C6
EE
6C
7C
38
7C
6C
EE
C6
C6
ENDCHAR
STARTCHAR U+216A
ENCODING 8554
SWIDTH 722 0
DWIDTH 13 0
BBX 12 11 0 0
BITMAP
C6F0
C6F0
EE60
6C60
7C60
3860
7C60
6C60
EE60
C6F0
C6F0
ENDCHAR
STARTCHAR U+216B
ENCODING 8555
SWIDTH 888 0
DWIDTH 16 0
BBX 15 11 0 0
BITMAP
C6FE
C6FE
EE6C
6C6C
7C6C
386C
7C6C
6C6C
EE6C
C6FE
C6FE
ENDCHAR
STARTCHAR U+216C
ENCODING 8556
SWIDTH 444 0
DWIDTH 8 0
BBX 7 11 0 0
BITMAP
C0
C0
C0
C0
C0
C0
C0
C0
C0
FE
FE
ENDCHAR
STARTCHAR U+216D
ENCODING 8557
SWIDTH 444 0
DWIDTH 8 0
BBX 7 11 0 0
BITMAP
7C
FE
C6
C0
C0
C0
C0
C0
C6
FE
7C
ENDCHAR
STARTCHAR U+216E
ENCODING 8558
SWIDTH 444 0
DWIDTH 8 0
BBX 7 11 0 0
BITMAP
FC
FE
C6
C6
C6
C6
C6
C6
C6
FE
FC
ENDCHAR
STARTCHAR U+216F
ENCODING 8559
SWIDTH 555 0
DWIDTH 10 0
BBX 9 11 0 0
BITMAP
C180
C180
E380
E380
F780
F780
FF80
DD80
DD80
C980
C980
ENDCHAR
STARTCHAR U+2170
ENCODING 8560
SWIDTH 166 0
DWIDTH 3 0
BBX 2 11 0 0
BITMAP
C0
C0
00
C0
C0
C0
C0
C0
C0
C0
C0
ENDCHAR
STARTCHAR U+2171
ENCODING 8561
SWIDTH 333 0
DWIDTH 6 0
BBX 5 11 0 0
BITMAP
D8
D8
00
D8
D8
D8
D8
D8
D8
D8
D8
ENDCHAR
STARTCHAR U+2172
ENCODING 8562
SWIDTH 500 0
DWIDTH 9 0
BBX 8 11 0 0
BITMAP
DB
DB
00
DB
DB
DB
DB
DB
DB
DB
DB
ENDCHAR
STARTCHAR U+2173
ENCODING 8563
SWIDTH 611 0
DWIDTH 11 0
BBX 10 11 0 0
BITMAP
C000
C000
0000
D8C0
D8C0
D8C0
D8C0
DDC0
CF80
C700
C200
ENDCHAR
STARTCHAR U+2174
ENCODING 8564
SWIDTH 444 0
DWIDTH 8 0
BBX 7 8 0 0
BITMAP
C6
C6
C6
C6
EE
7C
38
10
ENDCHAR
STARTCHAR U+2175
ENCODING 8565
SWIDTH 611 0
DWIDTH 11 0
BBX 10 11 0 0
BITMAP
00C0
00C0
0000
C6C0
C6C0
C6C0
C6C0
EEC0
7CC0
38C0
10C0
ENDCHAR
STARTCHAR U+2176
ENCODING 8566
SWIDTH 777 0
DWIDTH 14 0
BBX 13 11 0 0
BITMAP
00D8
00D8
0000
C6D8
C6D8
C6D8
C6D8
EED8
7CD8
38D8
10D8
ENDCHAR
STARTCHAR U+2177
ENCODING 8567
SWIDTH 944 0
DWIDTH 17 0
BBX 16 11 0 0
BITMAP
00DB
00DB
0000
C6DB
C6DB
C6DB
C6DB
EEDB
7CDB
38DB
10DB
ENDCHAR
STARTCHAR U+2178
ENCODING 8568
SWIDTH 611 0
DWIDTH 11 0
BBX 10 11 0 0
BITMAP
C000
C000
0000
D8C0
DDC0
CF80
C700
C700
CF80
DDC0
D8C0
ENDCHAR
STARTCHAR U+2179
ENCODING 8569
SWIDTH 444 0
DWIDTH 8 0
BBX 7 8 0 0
BITMAP
C6
EE
7C
38
38
7C
EE
C6
ENDCHAR
STARTCHAR U+217A
ENCODING 8570
SWIDTH 611 0
DWIDTH 11 0
BBX 10 11 0 0
BITMAP
00C0
00C0
0000
C6C0
EEC0
7CC0
38C0
38C0
7CC0
EEC0
C6C0
ENDCHAR
STARTCHAR U+217B
ENCODING 8571
SWIDTH 777 0
DWIDTH 14 0
BBX 13 11 0 0
BITMAP
00D8
00D8
0000
C6D8
EED8
7CD8
38D8
38D8
7CD8
EED8
C6D8
ENDCHAR
STARTCHAR U+217C
ENCODING 8572
SWIDTH 166 0
DWIDTH 3 0
BBX 2 11 0 0
BITMAP
C0
C0
C0
C0
C0
C0
C0
C0
C0
C0
C0
ENDCHAR
STARTCHAR U+217D
ENCODING 8573
SWIDTH 388 0
DWIDTH 7 0
BBX 6 8 0 0
BITMAP
7C
FC
C0
C0
C0
C0
FC
7C
ENDCHAR
STARTCHAR U+217E
ENCODING 8574
SWIDTH 444 0
DWIDTH 8 0
BBX 7 11 0 0
BITMAP
06
06
06
7E
FE
C6
C6
C6
C6
FE
7E
ENDCHAR
STARTCHAR U+217F
ENCODING 8575
SWIDTH 500 0
DWIDTH 9 0
BBX 8 8 0 0
BITMAP
FE
FF
DB
DB
DB
DB
DB
DB
ENDCHAR
STARTCHAR U+2189
ENCODING 8585
SWIDTH 666 0
DWIDTH 12 0
BBX 11 11 0 0
BITMAP
7000
D840
D880
D900
DA00
75C0
0860
10C0
2060
4060
01C0
ENDCHAR
STARTCHAR U+2190
ENCODING 8592
SWIDTH 666 0
DWIDTH 12 0
BBX 11 9 0 1
BITMAP
0E00
1C00
3800
7FE0
FFE0
7FE0
3800
1C00
0E00
ENDCHAR
STARTCHAR U+2191
ENCODING 8593
SWIDTH 666 0
DWIDTH 12 0
BBX 9 11 1 0
BITMAP
0800
1C00
3E00
7F00
FF80
DD80
9C80
1C00
1C00
1C00
1C00
ENDCHAR
STARTCHAR U+2192
ENCODING 8594
SWIDTH 666 0
DWIDTH 12 0
BBX 11 9 0 1
BITMAP
0E00
0700
0380
FFC0
FFE0
FFC0
0380
0700
0E00
ENDCHAR
STARTCHAR U+2193
ENCODING 8595
SWIDTH 666 0
DWIDTH 12 0
BBX 9 11 1 0
BITMAP
1C00
1C00
1C00
1C00
9C80
DD80
FF80
7F00
3E00
1C00
0800
ENDCHAR
STARTCHAR U+2460
ENCODING 9312
SWIDTH 666 0
DWIDTH 12 0
BBX 11 11 0 0
BITMAP
3F80
7FC0
E0E0
CE60
C660
C660
C660
C660
E0E0
7FC0
3F80
ENDCHAR
STARTCHAR U+2461
ENCODING 9313
SWIDTH 666 0
DWIDTH 12 0
BBX 11 11 0 0
BITMAP
3F80
7FC0
E0E0
DE60
C360
CF60
D860
DF60
E0E0
7FC0
3F80
ENDCHAR
STARTCHAR U+2462
ENCODING 9314
SWIDTH 666 0
DWIDTH 12 0
BBX 11 11 0 0
BITMAP
3F80
7FC0
E0E0
DF60
C360
CE60
C360
DF60
E0E0
7FC0
3F80
ENDCHAR
STARTCHAR U+2463
ENCODING 9315
SWIDTH 666 0
DWIDTH 12 0
BBX 11 11 0 0
BITMAP
3F80
7FC0
E0E0
CF60
DB60
DB60
DF60
C360
E0E0
7FC0
3F80
ENDCHAR
STARTCHAR U+2464
ENCODING 9316
SWIDTH 666 0
DWIDTH 12 0
BBX 11 11 0 0
BITMAP
3F80
7FC0
E0E0
DF60
D860
DF60
C360
DE60
E0E0
7FC0
3F80
ENDCHAR
STARTCHAR U+2465
ENCODING 9317
SWIDTH 666 0
DWIDTH 12 0
BBX 11 11 0 0
BITMAP
3F80
7FC0
E0E0
CF60
D860
DF60
DB60
DE60
E0E0
7FC0
3F80
ENDCHAR
STARTCHAR U+2466
ENCODING 9318
SWIDTH 666 0
DWIDTH 12 0
BBX 11 11 0 0
BITMAP
3F80
7FC0
E0E0
DF60
C360
C660
C660
C660
E0E0
7FC0
3F80
ENDCHAR
STARTCHAR U+2467
ENCODING 9319
SWIDTH 666 0
DWIDTH 12 0
BBX 11 11 0 0
BITMAP
3F80
7FC0
E0E0
DF60
DB60
CE60
DB60
DF60
E0E0
7FC0
3F80
ENDCHAR
STARTCHAR U+2468
ENCODING 9320
SWIDTH 666 0
DWIDTH 12 0
BBX 11 11 0 0
BITMAP
3F80
7FC0
E0E0
CF60
DB60
DF60
C360
DE60
E0E0
7FC0
3F80
ENDCHAR
STARTCHAR U+2469
ENCODING 9321
SWIDTH 666 0
DWIDTH 12 0
BBX 11 11 0 0
BITMAP
3F80
7FC0
E0E0
D760
D560
D560
D560
D760
E0E0
7FC0
3F80
ENDCHAR
STARTCHAR U+246A
ENCODING 9322
SWIDTH 666 0
DWIDTH 12 0
BBX 11 11 0 0
BITMAP
3F80
7FC0
E0E0
CA60
CA60
CA60
CA60
CA60
E0E0
7FC0
3F80
ENDCHAR
STARTCHAR U+246B
ENCODING 9323
SWIDTH 666 0
DWIDTH 12 0
BBX 11 11 0 0
BITMAP
3F80
7FC0
E0E0
D760
D160
D760
D460
D760
E0E0
7FC0
3F80
ENDCHAR
STARTCHAR U+246C
ENCODING 9324
SWIDTH 666 0
DWIDTH 12 0
BBX 11 11 0 0
BITMAP
3F80
7FC0
E0E0
D760
D160
D760
D160
D760
E0E0
7FC0
3F80
ENDCHAR
STARTCHAR U+246D
ENCODING 9325
SWIDTH 666 0
DWIDTH 12 0
BBX 11 11 0 0
BITMAP
3F80
7FC0
E0E0
D560
D560
D760
D160
D160
E0E0
7FC0
3F80
ENDCHAR
STARTCHAR U+246E
ENCODING 9326
SWIDTH 666 0
DWIDTH 12 0
BBX 11 11 0 0
BITMAP
3F80
7FC0
E0E0
D760
D460
D760
D160
D760
E0E0
7FC0
3F80
ENDCHAR
STARTCHAR U+246F
ENCODING 9327
SWIDTH 666 0
DWIDTH 12 0
BBX 11 11 0 0
BITMAP
3F80
7FC0
E0E0
D760
D460
D760
D560
D760
E0E0
7FC0
3F80
ENDCHAR
STARTCHAR U+2470
ENCODING 9328
SWIDTH 666 0
DWIDTH 12 0
BBX 11 11 0 0
BITMAP
3F80
7FC0
E0E0
D760
D160
D260
D260
D260
E0E0
7FC0
3F80
ENDCHAR
STARTCHAR U+2471
ENCODING 9329
SWIDTH 666 0
DWIDTH 12 0
BBX 11 11 0 0
BITMAP
3F80
7FC0
E0E0
D760
D560
D760
D560
D760
E0E0
7FC0
3F80
ENDCHAR
STARTCHAR U+2472
ENCODING 9330
SWIDTH 666 0
DWIDTH 12 0
BBX 11 11 0 0
BITMAP
3F80
7FC0
E0E0
D760
D560
D760
D160
D760
E0E0
7FC0
3F80
ENDCHAR
STARTCHAR U+2473
ENCODING 9331
SWIDTH 666 0
DWIDTH 12 0
BBX 11 11 0 0
BITMAP
3F80
7FC0
E0E0
DF60
C560
DD60
D560
DF60
E0E0
7FC0
3F80
ENDCHAR
STARTCHAR U+24B6
ENCODING 9398
SWIDTH 666 0
DWIDTH 12 0
BBX 11 11 0 0
BITMAP
3F80
7FC0
E0E0
CE60
DB60
DB60
DF60
DB60
E0E0
7FC0
3F80
ENDCHAR
STARTCHAR U+24B7
ENCODING 9399
SWIDTH 666 0
DWIDTH 12 0
BBX 11 11 0 0
BITMAP
3F80
7FC0
E0E0
DE60
DB60
DE60
DB60
DE60
E0E0
7FC0
3F80
ENDCHAR
STARTCHAR U+24B8
ENCODING 9400
SWIDTH 666 0
DWIDTH 12 0
BBX 11 11 0 0
BITMAP
3F80
7FC0
E0E0
CE60
DB60
D860
DB60
CE60
E0E0
7FC0
3F80
ENDCHAR
STARTCHAR U+24B9
ENCODING 9401
SWIDTH 666 0
DWIDTH 12 0
BBX 11 11 0 0
BITMAP
3F80
7FC0
E0E0
DE60
DB60
DB60
DB60
DE60
E0E0
7FC0
3F80
ENDCHAR
STARTCHAR U+24BA
ENCODING 9402
SWIDTH 666 0
DWIDTH 12 0
BBX 11 11 0 0
BITMAP
3F80
7FC0
E0E0
DF60
D860
DE60
D860
DF60
E0E0
7FC0
3F80
ENDCHAR
STARTCHAR U+24BB
ENCODING 9403
SWIDTH 666 0
DWIDTH 12 0
BBX 11 11 0 0
BITMAP
3F80
7FC0
E0E0
DF60
D860
DE60
D860
D860
E0E0
7FC0
3F80
ENDCHAR
STARTCHAR U+24BC
ENCODING 9404
SWIDTH 666 0
DWIDTH 12 0
BBX 11 11 0 0
BITMAP
3F80
7FC0
E0E0
CF60
D860
DB60
D960
DE60
E0E0
7FC0
3F80
ENDCHAR
STARTCHAR U+24BD
ENCODING 9405
SWIDTH 666 0
DWIDTH 12 0
BBX 11 11 0 0
BITMAP
3F80
7FC0
E0E0
DB60
DB60
DF60
DB60
DB60
E0E0
7FC0
3F80
ENDCHAR
STARTCHAR U+24BE
ENCODING 9406
SWIDTH 666 0
DWIDTH 12 0
BBX 11 11 0 0
BITMAP
3F80
7FC0
E0E0
CE60
CE60
CE60
CE60
CE60
E0E0
7FC0
3F80
ENDCHAR
STARTCHAR U+24BF
ENCODING 9407
SWIDTH 666 0
DWIDTH 12 0
BBX 11 11 0 0
BITMAP
3F80
7FC0
E0E0
C360
C360
C360
DB60
DE60
E0E0
7FC0
3F80
ENDCHAR
STARTCHAR U+24C0
ENCODING 9408
SWIDTH 666 0
DWIDTH 12 0
BBX 11 11 0 0
BITMAP
3F80
7FC0
E0E0
DB60
DE60
DE60
DB60
DB60
E0E0
7FC0
3F80
ENDCHAR
STARTCHAR U+24C1
ENCODING 9409
SWIDTH 666 0
DWIDTH 12 0
BBX 11 11 0 0
BITMAP
3F80
7FC0
E0E0
D860
D860
D860
D860
DF60
E0E0
7FC0
3F80
ENDCHAR
STARTCHAR U+24C2
ENCODING 9410
SWIDTH 666 0
DWIDTH 12 0
BBX 11 11 0 0
BITMAP
3F80
7FC0
E0E0
DB60
DF60
D560
D560
D160
E0E0
7FC0
3F80
ENDCHAR
STARTCHAR U+24C3
ENCODING 9411
SWIDTH 666 0
DWIDTH 12 0
BBX 11 11 0 0
BITMAP
3F80
7FC0
E0E0
D960
DD60
DF60
D760
D360
E0E0
7FC0
3F80
ENDCHAR
STARTCHAR U+24C4
ENCODING 9412
SWIDTH 666 0
DWIDTH 12 0
BBX 11 11 0 0
BITMAP
3F80
7FC0
E0E0
CE60
DB60
DB60
DB60
CE60
E0E0
7FC0
3F80
ENDCHAR
STARTCHAR U+24C5
ENCODING 9413
SWIDTH 666 0
DWIDTH 12 0
BBX 11 11 0 0
BITMAP
3F80
7FC0
E0E0
DE60
DB60
DB60
DE60
D860
E0E0
7FC0
3F80
ENDCHAR
STARTCHAR U+24C6
ENCODING 9414
SWIDTH 666 0
DWIDTH 12 0
BBX 11 11 0 0
BITMAP
3F80
7FC0
E1E0
CEE0
DB60
DB60
DF60
CE60
E3E0
7FC0
3F80
ENDCHAR
STARTCHAR U+24C7
ENCODING 9415
SWIDTH 666 0
DWIDTH 12 0
BBX 11 11 0 0
BITMAP
3F80
7FC0
E0E0
DE60
DB60
DB60
DE60
DB60
E0E0
7FC0
3F80
ENDCHAR
STARTCHAR U+24C8
ENCODING 9416
SWIDTH 666 0
DWIDTH 12 0
BBX 11 11 0 0
BITMAP
3F80
7FC0
E0E0
CF60
D860
DF60
C360
DE60
E0E0
7FC0
3F80
ENDCHAR
STARTCHAR U+24C9
ENCODING 9417
SWIDTH 666 0
DWIDTH 12 0
BBX 11 11 0 0
BITMAP
3F80
7FC0
E0E0
DF60
CE60
CE60
CE60
CE60
E0E0
7FC0
3F80
ENDCHAR
STARTCHAR U+24CA
ENCODING 9418
SWIDTH 666 0
DWIDTH 12 0
BBX 11 11 0 0
BITMAP
3F80
7FC0
E0E0
DB60
DB60
DB60
DB60
CE60
E0E0
7FC0
3F80
ENDCHAR
STARTCHAR U+24CB
ENCODING 9419
SWIDTH 666 0
DWIDTH 12 0
BBX 11 11 0 0
BITMAP
3F80
7FC0
E0E0
DB60
DB60
DB60
CE60
C460
E0E0
7FC0
3F80
ENDCHAR
STARTCHAR U+24CC
ENCODING 9420
SWIDTH 666 0
DWIDTH 12 0
BBX 11 11 0 0
BITMAP
3F80
7FC0
E0E0
D160
D560
D560
DF60
DB60
E0E0
7FC0
3F80
ENDCHAR
STARTCHAR U+24CD
ENCODING 9421
SWIDTH 666 0
DWIDTH 12 0
BBX 11 11 0 0
BITMAP
3F80
7FC0
E0E0
DB60
DB60
CE60
DB60
DB60
E0E0
7FC0
3F80
ENDCHAR
STARTCHAR U+24CE
ENCODING 9422
SWIDTH 666 0
DWIDTH 12 0
BBX 11 11 0 0
BITMAP
3F80
7FC0
E0E0
DB60
DB60
CE60
CE60
CE60
E0E0
7FC0
3F80
ENDCHAR
STARTCHAR U+24CF
ENCODING 9423
SWIDTH 666 0
DWIDTH 12 0
BBX 11 11 0 0
BITMAP
3F80
7FC0
E0E0
DF60
C760
CE60
DC60
DF60
E0E0
7FC0
3F80
ENDCHAR
STARTCHAR U+24EA
ENCODING 9450
SWIDTH 666 0
DWIDTH 12 0
BBX 11 11 0 0
BITMAP
3F80
7FC0
E0E0
CE60
DB60
DB60
DB60
CE60
E0E0
7FC0
3F80
ENDCHAR
STARTCHAR U+24EB
ENCODING 9451
SWIDTH 666 0
DWIDTH 12 0
BBX 11 11 0 0
BITMAP
1F00
7FC0
6EC0
CCE0
EEE0
EEE0
EEE0
EEE0
6EC0
7FC0
1F00
ENDCHAR
STARTCHAR U+24EC
ENCODING 9452
SWIDTH 666 0
DWIDTH 12 0
BBX 11 11 0 0
BITMAP
1F00
7FC0
6CC0
CB60
EF60
EEE0
EDE0
EBE0
6840
7FC0
1F00
ENDCHAR
STARTCHAR U+24ED
ENCODING 9453
SWIDTH 666 0
DWIDTH 12 0
BBX 11 11 0 0
BITMAP
1F00
7FC0
6CC0
CB60
EF60
ECE0
EF60
EB60
6CC0
7FC0
1F00
ENDCHAR
STARTCHAR U+24EE
ENCODING 9454
SWIDTH 666 0
DWIDTH 12 0
BBX 11 11 0 0
BITMAP
1F00
7FC0
6EC0
CCE0
EAE0
EAE0
E860
EEE0
6EC0
7FC0
1F00
ENDCHAR
STARTCHAR U+24EF
ENCODING 9455
SWIDTH 666 0
DWIDTH 12 0
BBX 11 11 0 0
BITMAP
1F00
7FC0
6840
CBE0
E8E0
EB60
EF60
EB60
6CC0
7FC0
1F00
ENDCHAR
STARTCHAR U+24F0
ENCODING 9456
SWIDTH 666 0
DWIDTH 12 0
BBX 11 11 0 0
BITMAP
1F00
7FC0
6CC0
CB60
EBE0
E8E0
EB60
EB60
6CC0
7FC0
1F00
ENDCHAR
STARTCHAR U+24F1
ENCODING 9457
SWIDTH 666 0
DWIDTH 12 0
BBX 11 11 0 0
BITMAP
1F00
7FC0
6840
CF60
EEE0
EEE0
EDE0
EDE0
6DC0
7FC0
1F00
ENDCHAR
STARTCHAR U+24F2
ENCODING 9458
SWIDTH 666 0
DWIDTH 12 0
BBX 11 11 0 0
BITMAP
1F00
7FC0
6CC0
CB60
EB60
ECE0
EB60
EB60
6CC0
7FC0
1F00
ENDCHAR
STARTCHAR U+24F3
ENCODING 9459
SWIDTH 666 0
DWIDTH 12 0
BBX 11 11 0 0
BITMAP
1F00
7FC0
6CC0
CB60
EB60
EC60
EF60
EB60
6CC0
7FC0
1F00
ENDCHAR
STARTCHAR U+24F4
ENCODING 9460
SWIDTH 666 0
DWIDTH 12 0
BBX 11 11 0 0
BITMAP
1F00
7FC0
6EC0
D560
F560
ED60
ED60
DD60
46C0
7FC0
1F00
ENDCHAR
STARTCHAR U+2500
ENCODING 9472
SWIDTH 666 0
DWIDTH 12 0
BBX 12 1 0 5
BITMAP
FFF0
ENDCHAR
STARTCHAR U+2501
ENCODING 9473
SWIDTH 666 0
DWIDTH 12 0
BBX 12 2 0 5
BITMAP
FFF0
FFF0
ENDCHAR
STARTCHAR U+2502
ENCODING 9474
SWIDTH 666 0
DWIDTH 12 0
BBX 1 12 5 0
BITMAP
80
80
80
80
80
80
80
80
80
80
80
80
ENDCHAR
STARTCHAR U+2503
ENCODING 9475
SWIDTH 666 0
DWIDTH 12 0
BBX 2 12 5 0
BITMAP
C0
C0
C0
C0
C0
C0
C0
C0
C0
C0
C0
C0
ENDCHAR
STARTCHAR U+2504
ENCODING 9476
SWIDTH 666 0
DWIDTH 12 0
BBX 11 1 0 5
BITMAP
EEE0
ENDCHAR
STARTCHAR U+2505
ENCODING 9477
SWIDTH 666 0
DWIDTH 12 0
BBX 11 2 0 5
BITMAP
EEE0
EEE0
ENDCHAR
STARTCHAR U+2506
ENCODING 9478
SWIDTH 666 0
DWIDTH 12 0
BBX 1 11 5 0
BITMAP
80
80
80
00
80
80
80
00
80
80
80
ENDCHAR
STARTCHAR U+2507
ENCODING 9479
SWIDTH 666 0
DWIDTH 12 0
BBX 2 11 5 0
BITMAP
C0
C0
C0
00
C0
C0
C0
00
C0
C0
C0
ENDCHAR
STARTCHAR U+2508
ENCODING 9480
SWIDTH 666 0
DWIDTH 12 0
BBX 11 1 0 5
BITMAP
DB60
ENDCHAR
STARTCHAR U+2509
ENCODING 9481
SWIDTH 666 0
DWIDTH 12 0
BBX 11 2 0 5
BITMAP
DB60
DB60
ENDCHAR
STARTCHAR U+250A
ENCODING 9482
SWIDTH 666 0
DWIDTH 12 0
BBX 1 11 5 0
BITMAP
80
80
00
80
80
00
80
80
00
80
80
ENDCHAR
STARTCHAR U+250B
ENCODING 9483
SWIDTH 666 0
DWIDTH 12 0
BBX 2 11 5 0
BITMAP
C0
C0
00
C0
C0
00
C0
C0
00
C0
C0
ENDCHAR
STARTCHAR U+250C
ENCODING 9484
SWIDTH 666 0
DWIDTH 12 0
BBX 7 6 5 0
BITMAP
FE
80
80
80
80
80
ENDCHAR
STARTCHAR U+250D
ENCODING 9485
SWIDTH 666 0
DWIDTH 12 0
BBX 7 7 5 0
BITMAP
FE
FE
80
80
80
80
80
ENDCHAR
STARTCHAR U+250E
ENCODING 9486
SWIDTH 666 0
DWIDTH 12 0
BBX 7 6 5 0
BITMAP
FE
C0
C0
C0
C0
C0
ENDCHAR
STARTCHAR U+250F
ENCODING 9487
SWIDTH 666 0
DWIDTH 12 0
BBX 7 7 5 0
BITMAP
FE
FE
C0
C0
C0
C0
C0
ENDCHAR
STARTCHAR U+2510
ENCODING 9488
SWIDTH 666 0
DWIDTH 12 0
BBX 6 6 0 0
BITMAP
FC
04
04
04
04
04
ENDCHAR
STARTCHAR U+2511
ENCODING 9489
SWIDTH 666 0
DWIDTH 12 0
BBX 6 7 0 0
BITMAP
FC
FC
04
04
04
04
04
ENDCHAR
STARTCHAR U+2512
ENCODING 9490
SWIDTH 666 0
DWIDTH 12 0
BBX 7 6 0 0
BITMAP
FE
06
06
06
06
06
ENDCHAR
STARTCHAR U+2513
ENCODING 9491
SWIDTH 666 0
DWIDTH 12 0
BBX 7 7 0 0
BITMAP
FE
FE
06
06
06
06
06
ENDCHAR
STARTCHAR U+2514
ENCODING 9492
SWIDTH 666 0
DWIDTH 12 0
BBX 7 7 5 5
BITMAP
80
80
80
80
80
80
FE
ENDCHAR
STARTCHAR U+2515
ENCODING 9493
SWIDTH 666 0
DWIDTH 12 0
BBX 7 7 5 5
BITMAP
80
80
80
80
80
FE
FE
ENDCHAR
STARTCHAR U+2516
ENCODING 9494
SWIDTH 666 0
DWIDTH 12 0
BBX 7 7 5 5
BITMAP
C0
C0
C0
C0
C0
C0
FE
ENDCHAR
STARTCHAR U+2517
ENCODING 9495
SWIDTH 666 0
DWIDTH 12 0
BBX 7 7 5 5
BITMAP
C0
C0
C0
C0
C0
FE
FE
ENDCHAR
STARTCHAR U+2518
ENCODING 9496
SWIDTH 666 0
DWIDTH 12 0
BBX 6 7 0 5
BITMAP
04
04
04
04
04
04
FC
ENDCHAR
STARTCHAR U+2519
ENCODING 9497
SWIDTH 666 0
DWIDTH 12 0
BBX 6 7 0 5
BITMAP
04
04
04
04
04
FC
FC
ENDCHAR
STARTCHAR U+251A
ENCODING 9498
SWIDTH 666 0
DWIDTH 12 0
BBX 7 7 0 5
BITMAP
06
06
06
06
06
06
FE
ENDCHAR
STARTCHAR U+251B
ENCODING 9499
SWIDTH 666 0
DWIDTH 12 0
BBX 7 7 0 5
BITMAP
06
06
06
06
06
FE
FE
ENDCHAR
STARTCHAR U+251C
ENCODING 9500
SWIDTH 666 0
DWIDTH 12 0
BBX 7 12 5 0
BITMAP
80
80
80
80
80
80
FE
80
80
80
80
80
ENDCHAR
STARTCHAR U+251D
ENCODING 9501
SWIDTH 666 0
DWIDTH 12 0
BBX 7 12 5 0
BITMAP
80
80
80
80
80
FE
FE
80
80
80
80
80
ENDCHAR
STARTCHAR U+251E
ENCODING 9502
SWIDTH 666 0
DWIDTH 12 0
BBX 7 12 5 0
BITMAP
C0
C0
C0
C0
C0
C0
FE
80
80
80
80
80
ENDCHAR
STARTCHAR U+251F
ENCODING 9503
SWIDTH 666 0
DWIDTH 12 0
BBX 7 12 5 0
BITMAP
80
80
80
80
80
80
FE
C0
C0
C0
C0
C0
ENDCHAR
STARTCHAR U+2520
ENCODING 9504
SWIDTH 666 0
DWIDTH 12 0
BBX 7 12 5 0
BITMAP
C0
C0
C0
C0
C0
C0
FE
C0
C0
C0
C0
C0
ENDCHAR
STARTCHAR U+2521
ENCODING 9505
SWIDTH 666 0
DWIDTH 12 0
BBX 7 12 5 0
BITMAP
C0
C0
C0
C0
C0
FE
FE
80
80
80
80
80
ENDCHAR
STARTCHAR U+2522
ENCODING 9506
SWIDTH 666 0
DWIDTH 12 0
BBX 7 12 5 0
BITMAP
80
80
80
80
80
FE
FE
C0
C0
C0
C0
C0
ENDCHAR
STARTCHAR U+2523
ENCODING 9507
SWIDTH 666 0
DWIDTH 12 0
BBX 7 12 5 0
BITMAP
C0
C0
C0
C0
C0
FE
FE
C0
C0
C0
C0
C0
ENDCHAR
STARTCHAR U+2524
ENCODING 9508
SWIDTH 666 0
DWIDTH 12 0
BBX 6 12 0 0
BITMAP
04
04
04
04
04
04
FC
04
04
04
04
04
ENDCHAR
STARTCHAR U+2525
ENCODING 9509
SWIDTH 666 0
DWIDTH 12 0
BBX 6 12 0 0
BITMAP
04
04
04
04
04
FC
FC
04
04
04
04
04
ENDCHAR
STARTCHAR U+2526
ENCODING 9510
SWIDTH 666 0
DWIDTH 12 0
BBX 7 12 0 0
BITMAP
06
06
06
06
06
06
FE
04
04
04
04
04
ENDCHAR
STARTCHAR U+2527
ENCODING 9511
SWIDTH 666 0
DWIDTH 12 0
BBX 7 12 0 0
BITMAP
04
04
04
04
04
04
FE
06
06
06
06
06
ENDCHAR
STARTCHAR U+2528
ENCODING 9512
SWIDTH 666 0
DWIDTH 12 0
BBX 7 12 0 0
BITMAP
06
06
06
06
06
06
FE
06
06
06
06
06
ENDCHAR
STARTCHAR U+2529
ENCODING 9513
SWIDTH 666 0
DWIDTH 12 0
BBX 7 12 0 0
BITMAP
06
06
06
06
06
FE
FE
04
04
04
04
04
ENDCHAR
STARTCHAR U+252A
ENCODING 9514
SWIDTH 666 0
DWIDTH 12 0
BBX 7 12 0 0
BITMAP
04
04
04
04
04
FE
FE
06
06
06
06
06
ENDCHAR
STARTCHAR U+252B
ENCODING 9515
SWIDTH 666 0
DWIDTH 12 0
BBX 7 12 0 0
BITMAP
06
06
06
06
06
FE
FE
06
06
06
06
06
ENDCHAR
STARTCHAR U+252C
ENCODING 9516
SWIDTH 666 0
DWIDTH 12 0
BBX 12 6 0 0
BITMAP
FFF0
0400
0400
0400
0400
0400
ENDCHAR
STARTCHAR U+252D
ENCODING 9517
SWIDTH 666 0
DWIDTH 12 0
BBX 12 7 0 0
BITMAP
FC00
FFF0
0400
0400
0400
0400
0400
ENDCHAR
STARTCHAR U+252E
ENCODING 9518
SWIDTH 666 0
DWIDTH 12 0
BBX 12 7 0 0
BITMAP
07F0
FFF0
0400
0400
0400
0400
0400
ENDCHAR
STARTCHAR U+252F
ENCODING 9519
SWIDTH 666 0
DWIDTH 12 0
BBX 12 7 0 0
BITMAP
FFF0
FFF0
0400
0400
0400
0400
0400
ENDCHAR
STARTCHAR U+2530
ENCODING 9520
SWIDTH 666 0
DWIDTH 12 0
BBX 12 6 0 0
BITMAP
FFF0
0600
0600
0600
0600
0600
ENDCHAR
STARTCHAR U+2531
ENCODING 9521
SWIDTH 666 0
DWIDTH 12 0
BBX 12 7 0 0
BITMAP
FE00
FFF0
0600
0600
0600
0600
0600
ENDCHAR
STARTCHAR U+2532
ENCODING 9522
SWIDTH 666 0
DWIDTH 12 0
BBX 12 7 0 0
BITMAP
07F0
FFF0
0600
0600
0600
0600
0600
ENDCHAR
STARTCHAR U+2533
ENCODING 9523
SWIDTH 666 0
DWIDTH 12 0
BBX 12 7 0 0
BITMAP
FFF0
FFF0
0600
0600
0600
0600
0600
ENDCHAR
STARTCHAR U+2534
ENCODING 9524
SWIDTH 666 0
DWIDTH 12 0
BBX 12 7 0 5
BITMAP
0400
0400
0400
0400
0400
0400
FFF0
ENDCHAR
STARTCHAR U+2535
ENCODING 9525
SWIDTH 666 0
DWIDTH 12 0
BBX 12 7 0 5
BITMAP
0400
0400
0400
0400
0400
FC00
FFF0
ENDCHAR
STARTCHAR U+2536
ENCODING 9526
SWIDTH 666 0
DWIDTH 12 0
BBX 12 7 0 5
BITMAP
0400
0400
0400
0400
0400
07F0
FFF0
ENDCHAR
STARTCHAR U+2537
ENCODING 9527
SWIDTH 666 0
DWIDTH 12 0
BBX 12 7 0 5
BITMAP
0400
0400
0400
0400
0400
FFF0
FFF0
ENDCHAR
STARTCHAR U+2538
ENCODING 9528
SWIDTH 666 0
DWIDTH 12 0
BBX 12 7 0 5
BITMAP
0600
0600
0600
0600
0600
0600
FFF0
ENDCHAR
STARTCHAR U+2539
ENCODING 9529
SWIDTH 666 0
DWIDTH 12 0
BBX 12 7 0 5
BITMAP
0600
0600
0600
0600
0600
FE00
FFF0
ENDCHAR
STARTCHAR U+253A
ENCODING 9530
SWIDTH 666 0
DWIDTH 12 0
BBX 12 7 0 5
BITMAP
0600
0600
0600
0600
0600
07F0
FFF0
ENDCHAR
STARTCHAR U+253B
ENCODING 9531
SWIDTH 666 0
DWIDTH 12 0
BBX 12 7 0 5
BITMAP
0600
0600
0600
0600
0600
FFF0
FFF0
ENDCHAR
STARTCHAR U+253C
ENCODING 9532
SWIDTH 666 0
DWIDTH 12 0
BBX 12 12 0 0
BITMAP
0400
0400
0400
0400
0400
0400
FFF0
0400
0400
0400
0400
0400
ENDCHAR
STARTCHAR U+253D
ENCODING 9533
SWIDTH 666 0
DWIDTH 12 0
BBX 12 12 0 0
BITMAP
0400
0400
0400
0400
0400
FC00
FFF0
0400
0400
0400
0400
0400
ENDCHAR
STARTCHAR U+253E
ENCODING 9534
SWIDTH 666 0
DWIDTH 12 0
BBX 12 12 0 0
BITMAP
0400
0400
0400
0400
0400
07F0
FFF0
0400
0400
0400
0400
0400
ENDCHAR
STARTCHAR U+253F
ENCODING 9535
SWIDTH 666 0
DWIDTH 12 0
BBX 12 12 0 0
BITMAP
0400
0400
0400
0400
0400
FFF0
FFF0
0400
0400
0400
0400
0400
ENDCHAR
STARTCHAR U+2540
ENCODING 9536
SWIDTH 666 0
DWIDTH 12 0
BBX 12 12 0 0
BITMAP
0600
0600
0600
0600
0600
0600
FFF0
0400
0400
0400
0400
0400
ENDCHAR
STARTCHAR U+2541
ENCODING 9537
SWIDTH 666 0
DWIDTH 12 0
BBX 12 12 0 0
BITMAP
0400
0400
0400
0400
0400
0400
FFF0
0600
0600
0600
0600
0600
ENDCHAR
STARTCHAR U+2542
ENCODING 9538
SWIDTH 666 0
DWIDTH 12 0
BBX 12 12 0 0
BITMAP
0600
0600
0600
0600
0600
0600
FFF0
0600
0600
0600
0600
0600
ENDCHAR
STARTCHAR U+2543
ENCODING 9539
SWIDTH 666 0
DWIDTH 12 0
BBX 12 12 0 0
BITMAP
0600
0600
0600
0600
0600
FE00
FFF0
0400
0400
0400
0400
0400
ENDCHAR
STARTCHAR U+2544
ENCODING 9540
SWIDTH 666 0
DWIDTH 12 0
BBX 12 12 0 0
BITMAP
0600
0600
0600
0600
0600
07F0
FFF0
0400
0400
0400
0400
0400
ENDCHAR
STARTCHAR U+2545
ENCODING 9541
SWIDTH 666 0
DWIDTH 12 0
BBX 12 12 0 0
BITMAP
0400
0400
0400
0400
0400
FE00
FFF0
0600
0600
0600
0600
0600
ENDCHAR
STARTCHAR U+2546
ENCODING 9542
SWIDTH 666 0
DWIDTH 12 0
BBX 12 12 0 0
BITMAP
0400
0400
0400
0400
0400
07F0
FFF0
0600
0600
0600
0600
0600
ENDCHAR
STARTCHAR U+2547
ENCODING 9543
SWIDTH 666 0
DWIDTH 12 0
BBX 12 12 0 0
BITMAP
0600
0600
0600
0600
0600
FFF0
FFF0
0400
0400
0400
0400
0400
ENDCHAR
STARTCHAR U+2548
ENCODING 9544
SWIDTH 666 0
DWIDTH 12 0
BBX 12 12 0 0
BITMAP
0400
0400
0400
0400
0400
FFF0
FFF0
0600
0600
0600
0600
0600
ENDCHAR
STARTCHAR U+2549
ENCODING 9545
SWIDTH 666 0
DWIDTH 12 0
BBX 12 12 0 0
BITMAP
0600
0600
0600
0600
0600
FE00
FFF0
0600
0600
0600
0600
0600
ENDCHAR
STARTCHAR U+254A
ENCODING 9546
SWIDTH 666 0
DWIDTH 12 0
BBX 12 12 0 0
BITMAP
0600
0600
0600
0600
0600
07F0
FFF0
0600
0600
0600
0600
0600
ENDCHAR
STARTCHAR U+254B
ENCODING 9547
SWIDTH 666 0
DWIDTH 12 0
BBX 12 12 0 0
BITMAP
0600
0600
0600
0600
0600
FFF0
FFF0
0600
0600
0600
0600
0600
ENDCHAR
STARTCHAR U+254C
ENCODING 9548
SWIDTH 666 0
DWIDTH 12 0
BBX 11 1 0 5
BITMAP
FBE0
ENDCHAR
STARTCHAR U+254D
ENCODING 9549
SWIDTH 666 0
DWIDTH 12 0
BBX 11 2 0 5
BITMAP
FBE0
FBE0
ENDCHAR
STARTCHAR U+254E
ENCODING 9550
SWIDTH 666 0
DWIDTH 12 0
BBX 1 11 5 0
BITMAP
80
80
80
80
80
00
80
80
80
80
80
ENDCHAR
STARTCHAR U+254F
ENCODING 9551
SWIDTH 666 0
DWIDTH 12 0
BBX 2 11 5 0
BITMAP
C0
C0
C0
C0
C0
00
C0
C0
C0
C0
C0
ENDCHAR
STARTCHAR U+2550
ENCODING 9552
SWIDTH 666 0
DWIDTH 12 0
BBX 12 3 0 4
BITMAP
FFF0
0000
FFF0
ENDCHAR
STARTCHAR U+2551
ENCODING 9553
SWIDTH 666 0
DWIDTH 12 0
BBX 3 12 4 0
BITMAP
A0
A0
A0
A0
A0
A0
A0
A0
A0
A0
A0
A0
ENDCHAR
STARTCHAR U+2552
ENCODING 9554
SWIDTH 666 0
DWIDTH 12 0
BBX 7 7 5 0
BITMAP
FE
80
FE
80
80
80
80
ENDCHAR
STARTCHAR U+2553
ENCODING 9555
SWIDTH 666 0
DWIDTH 12 0
BBX 8 6 4 0
BITMAP
FF
A0
A0
A0
A0
A0
ENDCHAR
STARTCHAR U+2554
ENCODING 9556
SWIDTH 666 0
DWIDTH 12 0
BBX 8 7 4 0
BITMAP
FF
80
BF
A0
A0
A0
A0
ENDCHAR
STARTCHAR U+2555
ENCODING 9557
SWIDTH 666 0
DWIDTH 12 0
BBX 6 7 0 0
BITMAP
FC
04
FC
04
04
04
04
ENDCHAR
STARTCHAR U+2556
ENCODING 9558
SWIDTH 666 0
DWIDTH 12 0
BBX 7 6 0 0
BITMAP
FE
0A
0A
0A
0A
0A
ENDCHAR
STARTCHAR U+2557
ENCODING 9559
SWIDTH 666 0
DWIDTH 12 0
BBX 7 7 0 0
BITMAP
FE
02
FA
0A
0A
0A
0A
ENDCHAR
STARTCHAR U+2558
ENCODING 9560
SWIDTH 666 0
DWIDTH 12 0
BBX 7 8 5 4
BITMAP
80
80
80
80
80
FE
80
FE
ENDCHAR
STARTCHAR U+2559
ENCODING 9561
SWIDTH 666 0
DWIDTH 12 0
BBX 8 7 4 5
BITMAP
A0
A0
A0
A0
A0
A0
FF
ENDCHAR
STARTCHAR U+255A
ENCODING 9562
SWIDTH 666 0
DWIDTH 12 0
BBX 8 8 4 4
BITMAP
A0
A0
A0
A0
A0
BF
80
FF
ENDCHAR
STARTCHAR U+255B
ENCODING 9563
SWIDTH 666 0
DWIDTH 12 0
BBX 6 8 0 4
BITMAP
04
04
04
04
04
FC
04
FC
ENDCHAR
STARTCHAR U+255C
ENCODING 9564
SWIDTH 666 0
DWIDTH 12 0
BBX 7 7 0 5
BITMAP
0A
0A
0A
0A
0A
0A
FE
ENDCHAR
STARTCHAR U+255D
ENCODING 9565
SWIDTH 666 0
DWIDTH 12 0
BBX 7 8 0 4
BITMAP
0A
0A
0A
0A
0A
FA
02
FE
ENDCHAR
STARTCHAR U+255E
ENCODING 9566
SWIDTH 666 0
DWIDTH 12 0
BBX 7 12 5 0
BITMAP
80
80
80
80
80
FE
80
FE
80
80
80
80
ENDCHAR
STARTCHAR U+255F
ENCODING 9567
SWIDTH 666 0
DWIDTH 12 0
BBX 8 12 4 0
BITMAP
A0
A0
A0
A0
A0
A0
BF
A0
A0
A0
A0
A0
ENDCHAR
STARTCHAR U+2560
ENCODING 9568
SWIDTH 666 0
DWIDTH 12 0
BBX 8 12 4 0
BITMAP
A0
A0
A0
A0
A0
BF
80
BF
A0
A0
A0
A0
ENDCHAR
STARTCHAR U+2561
ENCODING 9569
SWIDTH 666 0
DWIDTH 12 0
BBX 6 12 0 0
BITMAP
04
04
04
04
04
FC
04
FC
04
04
04
04
ENDCHAR
STARTCHAR U+2562
ENCODING 9570
SWIDTH 666 0
DWIDTH 12 0
BBX 7 12 0 0
BITMAP
0A
0A
0A
0A
0A
0A
FA
0A
0A
0A
0A
0A
ENDCHAR
STARTCHAR U+2563
ENCODING 9571
SWIDTH 666 0
DWIDTH 12 0
BBX 7 12 0 0
BITMAP
0A
0A
0A
0A
0A
FA
02
FA
0A
0A
0A
0A
ENDCHAR
STARTCHAR U+2564
ENCODING 9572
SWIDTH 666 0
DWIDTH 12 0
BBX 12 7 0 0
BITMAP
FFF0
0000
FFF0
0400
0400
0400
0400
ENDCHAR
STARTCHAR U+2565
ENCODING 9573
SWIDTH 666 0
DWIDTH 12 0
BBX 12 6 0 0
BITMAP
FFF0
0A00
0A00
0A00
0A00
0A00
ENDCHAR
STARTCHAR U+2566
ENCODING 9574
SWIDTH 666 0
DWIDTH 12 0
BBX 12 7 0 0
BITMAP
FFF0
0000
FBF0
0A00
0A00
0A00
0A00
ENDCHAR
STARTCHAR U+2567
ENCODING 9575
SWIDTH 666 0
DWIDTH 12 0
BBX 12 8 0 4
BITMAP
0400
0400
0400
0400
0400
FFF0
0000
FFF0
ENDCHAR
STARTCHAR U+2568
ENCODING 9576
SWIDTH 666 0
DWIDTH 12 0
BBX 12 7 0 5
BITMAP
0A00
0A00
0A00
0A00
0A00
0A00
FFF0
ENDCHAR
STARTCHAR U+2569
ENCODING 9577
SWIDTH 666 0
DWIDTH 12 0
BBX 12 8 0 4
BITMAP
0A00
0A00
0A00
0A00
0A00
FBF0
0000
FFF0
ENDCHAR
STARTCHAR U+256A
ENCODING 9578
SWIDTH 666 0
DWIDTH 12 0
BBX 12 12 0 0
BITMAP
0400
0400
0400
0400
0400
FFF0
0400
FFF0
0400
0400
0400
0400
ENDCHAR
STARTCHAR U+256B
ENCODING 9579
SWIDTH 666 0
DWIDTH 12 0
BBX 12 12 0 0
BITMAP
0A00
0A00
0A00
0A00
0A00
0A00
FFF0
0A00
0A00
0A00
0A00
0A00
ENDCHAR
STARTCHAR U+256C
ENCODING 9580
SWIDTH 666 0
DWIDTH 12 0
BBX 12 12 0 0
BITMAP
0A00
0A00
0A00
0A00
0A00
FBF0
0000
FBF0
0A00
0A00
0A00
0A00
ENDCHAR
STARTCHAR U+256D
ENCODING 9581
SWIDTH 666 0
DWIDTH 12 0
BBX 7 6 5 0
BITMAP
06
18
20
40
40
80
ENDCHAR
STARTCHAR U+256E
ENCODING 9582
SWIDTH 666 0
DWIDTH 12 0
BBX 6 6 0 0
BITMAP
80
60
10
08
08
04
ENDCHAR
STARTCHAR U+256F
ENCODING 9583
SWIDTH 666 0
DWIDTH 12 0
BBX 6 7 0 5
BITMAP
04
04
08
08
10
60
80
ENDCHAR
STARTCHAR U+2570
ENCODING 9584
SWIDTH 666 0
DWIDTH 12 0
BBX 7 7 5 5
BITMAP
80
80
40
40
20
18
06
ENDCHAR
STARTCHAR U+2571
ENCODING 9585
SWIDTH 666 0
DWIDTH 12 0
BBX 12 12 0 0
BITMAP
0010
0020
0040
0080
0100
0200
0400
0800
1000
2000
4000
8000
ENDCHAR
STARTCHAR U+2572
ENCODING 9586
SWIDTH 666 0
DWIDTH 12 0
BBX 11 11 0 0
BITMAP
8000
4000
2000
1000
0800
0400
0200
0100
0080
0040
0020
ENDCHAR
STARTCHAR U+2573
ENCODING 9587
SWIDTH 666 0
DWIDTH 12 0
BBX 12 12 0 0
BITMAP
0010
8020
4040
2080
1100
0A00
0400
0A00
1100
2080
4040
8020
ENDCHAR
STARTCHAR U+2574
ENCODING 9588
SWIDTH 666 0
DWIDTH 12 0
BBX 6 1 0 5
BITMAP
FC
ENDCHAR
STARTCHAR U+2575
ENCODING 9589
SWIDTH 666 0
DWIDTH 12 0
BBX 1 7 5 5
BITMAP
80
80
80
80
80
80
80
ENDCHAR
STARTCHAR U+2576
ENCODING 9590
SWIDTH 666 0
DWIDTH 12 0
BBX 7 1 5 5
BITMAP
FE
ENDCHAR
STARTCHAR U+2577
ENCODING 9591
SWIDTH 666 0
DWIDTH 12 0
BBX 1 6 5 0
BITMAP
80
80
80
80
80
80
ENDCHAR
STARTCHAR U+2578
ENCODING 9592
SWIDTH 666 0
DWIDTH 12 0
BBX 6 2 0 5
BITMAP
FC
FC
ENDCHAR
STARTCHAR U+2579
ENCODING 9593
SWIDTH 666 0
DWIDTH 12 0
BBX 2 7 5 5
BITMAP
C0
C0
C0
C0
C0
C0
C0
ENDCHAR
STARTCHAR U+257A
ENCODING 9594
SWIDTH 666 0
DWIDTH 12 0
BBX 7 2 5 5
BITMAP
FE
FE
ENDCHAR
STARTCHAR U+257B
ENCODING 9595
SWIDTH 666 0
DWIDTH 12 0
BBX 2 6 5 0
BITMAP
C0
C0
C0
C0
C0
C0
ENDCHAR
STARTCHAR U+257C
ENCODING 9596
SWIDTH 666 0
DWIDTH 12 0
BBX 12 2 0 5
BITMAP
07F0
FFF0
ENDCHAR
STARTCHAR U+257D
ENCODING 9597
SWIDTH 666 0
DWIDTH 12 0
BBX 2 12 5 0
BITMAP
80
80
80
80
80
80
C0
C0
C0
C0
C0
C0
ENDCHAR
STARTCHAR U+257E
ENCODING 9598
SWIDTH 666 0
DWIDTH 12 0
BBX 12 2 0 5
BITMAP
FC00
FFF0
ENDCHAR
STARTCHAR U+257F
ENCODING 9599
SWIDTH 666 0
DWIDTH 12 0
BBX 2 12 5 0
BITMAP
C0
C0
C0
C0
C0
C0
C0
80
80
80
80
80
ENDCHAR
STARTCHAR U+2580
ENCODING 9600
SWIDTH 666 0
DWIDTH 12 0
BBX 12 6 0 6
BITMAP
FFF0
FFF0
FFF0
FFF0
FFF0
FFF0
ENDCHAR
STARTCHAR U+2581
ENCODING 9601
SWIDTH 666 0
DWIDTH 12 0
BBX 12 2 0 0
BITMAP
FFF0
FFF0
ENDCHAR
STARTCHAR U+2582
ENCODING 9602
SWIDTH 666 0
DWIDTH 12 0
BBX 12 3 0 0
BITMAP
FFF0
FFF0
FFF0
ENDCHAR
STARTCHAR U+2583
ENCODING 9603
SWIDTH 666 0
DWIDTH 12 0
BBX 12 5 0 0
BITMAP
FFF0
FFF0
FFF0
FFF0
FFF0
ENDCHAR
STARTCHAR U+2584
ENCODING 9604
SWIDTH 666 0
DWIDTH 12 0
BBX 12 6 0 0
BITMAP
FFF0
FFF0
FFF0
FFF0
FFF0
FFF0
ENDCHAR
STARTCHAR U+2585
ENCODING 9605
SWIDTH 666 0
DWIDTH 12 0
BBX 12 8 0 0
BITMAP
FFF0
FFF0
FFF0
FFF0
FFF0
FFF0
FFF0
FFF0
ENDCHAR
STARTCHAR U+2586
ENCODING 9606
SWIDTH 666 0
DWIDTH 12 0
BBX 12 9 0 0
BITMAP
FFF0
FFF0
FFF0
FFF0
FFF0
FFF0
FFF0
FFF0
FFF0
ENDCHAR
STARTCHAR U+2587
ENCODING 9607
SWIDTH 666 0
DWIDTH 12 0
BBX 12 11 0 0
BITMAP
FFF0
FFF0
FFF0
FFF0
FFF0
FFF0
FFF0
FFF0
FFF0
FFF0
FFF0
ENDCHAR
STARTCHAR U+2588
ENCODING 9608
SWIDTH 666 0
DWIDTH 12 0
BBX 12 12 0 0
BITMAP
FFF0
FFF0
FFF0
FFF0
FFF0
FFF0
FFF0
FFF0
FFF0
FFF0
FFF0
FFF0
ENDCHAR
STARTCHAR U+2589
ENCODING 9609
SWIDTH 666 0
DWIDTH 12 0
BBX 11 12 0 0
BITMAP
FFE0
FFE0
FFE0
FFE0
FFE0
FFE0
FFE0
FFE0
FFE0
FFE0
FFE0
FFE0
ENDCHAR
STARTCHAR U+258A
ENCODING 9610
SWIDTH 666 0
DWIDTH 12 0
BBX 9 12 0 0
BITMAP
FF80
FF80
FF80
FF80
FF80
FF80
FF80
FF80
FF80
FF80
FF80
FF80
ENDCHAR
STARTCHAR U+258B
ENCODING 9611
SWIDTH 666 0
DWIDTH 12 0
BBX 8 12 0 0
BITMAP
FF
FF
FF
FF
FF
FF
FF
FF
FF
FF
FF
FF
ENDCHAR
STARTCHAR U+258C
ENCODING 9612
SWIDTH 666 0
DWIDTH 12 0
BBX 6 12 0 0
BITMAP
FC
FC
FC
FC
FC
FC
FC
FC
FC
FC
FC
FC
ENDCHAR
STARTCHAR U+258D
ENCODING 9613
SWIDTH 666 0
DWIDTH 12 0
BBX 5 12 0 0
BITMAP
F8
F8
F8
F8
F8
F8
F8
F8
F8
F8
F8
F8
ENDCHAR
STARTCHAR U+258E
ENCODING 9614
SWIDTH 666 0
DWIDTH 12 0
BBX 3 12 0 0
BITMAP
E0
E0
E0
E0
E0
E0
E0
E0
E0
E0
E0
E0
ENDCHAR
STARTCHAR U+258F
ENCODING 9615
SWIDTH 666 0
DWIDTH 12 0
BBX 2 12 0 0
BITMAP
C0
C0
C0
C0
C0
C0
C0
C0
C0
C0
C0
C0
ENDCHAR
STARTCHAR U+2590
ENCODING 9616
SWIDTH 666 0
DWIDTH 12 0
BBX 6 12 6 0
BITMAP
FC
FC
FC
FC
FC
FC
FC
FC
FC
FC
FC
FC
ENDCHAR
STARTCHAR U+2591
ENCODING 9617
SWIDTH 666 0
DWIDTH 12 0
BBX 11 11 0 1
BITMAP
AAA0
0000
AAA0
0000
AAA0
0000
AAA0
0000
AAA0
0000
AAA0
ENDCHAR
STARTCHAR U+2592
ENCODING 9618
SWIDTH 666 0
DWIDTH 12 0
BBX 12 12 0 0
BITMAP
AAA0
5550
AAA0
5550
AAA0
5550
AAA0
5550
AAA0
5550
AAA0
5550
ENDCHAR
STARTCHAR U+2593
ENCODING 9619
SWIDTH 666 0
DWIDTH 12 0
BBX 12 12 0 0
BITMAP
AAA0
FFF0
AAA0
FFF0
AAA0
FFF0
AAA0
FFF0
AAA0
FFF0
AAA0
FFF0
ENDCHAR
STARTCHAR U+2594
ENCODING 9620
SWIDTH 666 0
DWIDTH 12 0
BBX 12 2 0 10
BITMAP
FFF0
FFF0
ENDCHAR
STARTCHAR U+2595
ENCODING 9621
SWIDTH 666 0
DWIDTH 12 0
BBX 2 12 10 0
BITMAP
C0
C0
C0
C0
C0
C0
C0
C0
C0
C0
C0
C0
ENDCHAR
STARTCHAR U+2596
ENCODING 9622
SWIDTH 666 0
DWIDTH 12 0
BBX 6 6 0 0
BITMAP
FC
FC
FC
FC
FC
FC
ENDCHAR
STARTCHAR U+2597
ENCODING 9623
SWIDTH 666 0
DWIDTH 12 0
BBX 6 6 6 0
BITMAP
FC
FC
FC
FC
FC
FC
ENDCHAR
STARTCHAR U+2598
ENCODING 9624
SWIDTH 666 0
DWIDTH 12 0
BBX 6 6 0 6
BITMAP
FC
FC
FC
FC
FC
FC
ENDCHAR
STARTCHAR U+2599
ENCODING 9625
SWIDTH 666 0
DWIDTH 12 0
BBX 12 12 0 0
BITMAP
FC00
FC00
FC00
FC00
FC00
FC00
FFF0
FFF0
FFF0
FFF0
FFF0
FFF0
ENDCHAR
STARTCHAR U+259A
ENCODING 9626
SWIDTH 666 0
DWIDTH 12 0
BBX 12 12 0 0
BITMAP
FC00
FC00
FC00
FC00
FC00
FC00
03F0
03F0
03F0
03F0
03F0
03F0
ENDCHAR
STARTCHAR U+259B
ENCODING 9627
SWIDTH 666 0
DWIDTH 12 0
BBX 12 12 0 0
BITMAP
FFF0
FFF0
FFF0
FFF0
FFF0
FFF0
FC00
FC00
FC00
FC00
FC00
FC00
ENDCHAR
STARTCHAR U+259C
ENCODING 9628
SWIDTH 666 0
DWIDTH 12 0
BBX 12 12 0 0
BITMAP
FFF0
FFF0
FFF0
FFF0
FFF0
FFF0
03F0
03F0
03F0
03F0
03F0
03F0
ENDCHAR
STARTCHAR U+259D
ENCODING 9629
SWIDTH 666 0
DWIDTH 12 0
BBX 6 6 6 6
BITMAP
FC
FC
FC
FC
FC
FC
ENDCHAR
STARTCHAR U+259E
ENCODING 9630
SWIDTH 666 0
DWIDTH 12 0
BBX 12 12 0 0
BITMAP
03F0
03F0
03F0
03F0
03F0
03F0
FC00
FC00
FC00
FC00
FC00
FC00
ENDCHAR
STARTCHAR U+259F
ENCODING 9631
SWIDTH 666 0
DWIDTH 12 0
BBX 12 12 0 0
BITMAP
03F0
03F0
03F0
03F0
03F0
03F0
FFF0
FFF0
FFF0
FFF0
FFF0
FFF0
ENDCHAR
STARTCHAR U+25A0
ENCODING 9632
SWIDTH 666 0
DWIDTH 12 0
BBX 11 11 0 0
BITMAP
FFE0
FFE0
FFE0
FFE0
FFE0
FFE0
FFE0
FFE0
FFE0
FFE0
FFE0
ENDCHAR
STARTCHAR U+25A1
ENCODING 9633
SWIDTH 666 0
DWIDTH 12 0
BBX 11 11 0 0
BITMAP
FFE0
FFE0
C060
C060
C060
C060
C060
C060
C060
FFE0
FFE0
ENDCHAR
STARTCHAR U+25A2
ENCODING 9634
SWIDTH 666 0
DWIDTH 12 0
BBX 11 11 0 0
BITMAP
7FC0
FFE0
C060
C060
C060
C060
C060
C060
C060
FFE0
7FC0
ENDCHAR
STARTCHAR U+25A3
ENCODING 9635
SWIDTH 666 0
DWIDTH 12 0
BBX 11 11 0 0
BITMAP
FFE0
FFE0
C060
DF60
DF60
DF60
DF60
DF60
C060
FFE0
FFE0
ENDCHAR
STARTCHAR U+25A4
ENCODING 9636
SWIDTH 666 0
DWIDTH 12 0
BBX 11 11 0 0
BITMAP
FFE0
FFE0
C060
FFE0
C060
FFE0
C060
FFE0
C060
FFE0
FFE0
ENDCHAR
STARTCHAR U+25A5
ENCODING 9637
SWIDTH 666 0
DWIDTH 12 0
BBX 11 11 0 0
BITMAP
FFE0
FFE0
D560
D560
D560
D560
D560
D560
D560
FFE0
FFE0
ENDCHAR
STARTCHAR U+25A6
ENCODING 9638
SWIDTH 666 0
DWIDTH 12 0
BBX 11 11 0 0
BITMAP
FFE0
FFE0
D560
FFE0
D560
FFE0
D560
FFE0
D560
FFE0
FFE0
ENDCHAR
STARTCHAR U+25A7
ENCODING 9639
SWIDTH 666 0
DWIDTH 12 0
BBX 11 11 0 0
BITMAP
FFE0
FFE0
F360
F9E0
DCE0
CE60
E760
F3E0
D9E0
FFE0
FFE0
ENDCHAR
STARTCHAR U+25A8
ENCODING 9640
SWIDTH 666 0
DWIDTH 12 0
BBX 11 11 0 0
BITMAP
FFE0
FFE0
D9E0
F3E0
E760
CE60
DCE0
F9E0
F360
FFE0
FFE0
ENDCHAR
STARTCHAR U+25A9
ENCODING 9641
SWIDTH 666 0
DWIDTH 12 0
BBX 11 11 0 0
BITMAP
FFE0
FFE0
EAE0
D160
EAE0
C460
EAE0
D160
EAE0
FFE0
FFE0
ENDCHAR
STARTCHAR U+25AA
ENCODING 9642
SWIDTH 666 0
DWIDTH 12 0
BBX 7 7 2 2
BITMAP
FE
FE
FE
FE
FE
FE
FE
ENDCHAR
STARTCHAR U+25AB
ENCODING 9643
SWIDTH 666 0
DWIDTH 12 0
BBX 7 7 2 2
BITMAP
FE
FE
C6
C6
C6
FE
FE
ENDCHAR
STARTCHAR U+25AC
ENCODING 9644
SWIDTH 666 0
DWIDTH 12 0
BBX 11 7 0 2
BITMAP
FFE0
FFE0
FFE0
FFE0
FFE0
FFE0
FFE0
ENDCHAR
STARTCHAR U+25AD
ENCODING 9645
SWIDTH 666 0
DWIDTH 12 0
BBX 11 7 0 2
BITMAP
FFE0
FFE0
C060
C060
C060
FFE0
FFE0
ENDCHAR
STARTCHAR U+25AE
ENCODING 9646
SWIDTH 666 0
DWIDTH 12 0
BBX 7 11 2 0
BITMAP
FE
FE
FE
FE
FE
FE
FE
FE
FE
FE
FE
ENDCHAR
STARTCHAR U+25AF
ENCODING 9647
SWIDTH 666 0
DWIDTH 12 0
BBX 7 11 2 0
BITMAP
FE
FE
C6
C6
C6
C6
C6
C6
C6
FE
FE
ENDCHAR
STARTCHAR U+25B2
ENCODING 9650
SWIDTH 666 0
DWIDTH 12 0
BBX 11 11 0 0
BITMAP
0400
0E00
0E00
1F00
1F00
3F80
3F80
7FC0
7FC0
FFE0
FFE0
ENDCHAR
STARTCHAR U+25B3
ENCODING 9651
SWIDTH 666 0
DWIDTH 12 0
BBX 11 11 0 0
BITMAP
0400
0E00
0E00
1F00
1B00
3B80
3180
71C0
60C0
FFE0
FFE0
ENDCHAR
STARTCHAR U+25B6
ENCODING 9654
SWIDTH 666 0
DWIDTH 12 0
BBX 11 11 0 0
BITMAP
C000
F000
FC00
FF00
FFC0
FFE0
FFC0
FF00
FC00
F000
C000
ENDCHAR
STARTCHAR U+25B7
ENCODING 9655
SWIDTH 666 0
DWIDTH 12 0
BBX 11 11 0 0
BITMAP
C000
F000
FC00
DF00
C7C0
C1E0
C7C0
DF00
FC00
F000
C000
ENDCHAR
STARTCHAR U+25BA
ENCODING 9658
SWIDTH 666 0
DWIDTH 12 0
BBX 11 7 0 2
BITMAP
E000
FC00
FF80
FFE0
FF80
FC00
E000
ENDCHAR
STARTCHAR U+25BB
ENCODING 9659
SWIDTH 666 0
DWIDTH 12 0
BBX 11 7 0 2
BITMAP
E000
FC00
DF80
C3E0
DF80
FC00
E000
ENDCHAR
STARTCHAR U+25BC
ENCODING 9660
SWIDTH 666 0
DWIDTH 12 0
BBX 11 11 0 0
BITMAP
FFE0
FFE0
7FC0
7FC0
3F80
3F80
1F00
1F00
0E00
0E00
0400
ENDCHAR
STARTCHAR U+25BD
ENCODING 9661
SWIDTH 666 0
DWIDTH 12 0
BBX 11 11 0 0
BITMAP
FFE0
FFE0
60C0
71C0
3180
3B80
1B00
1F00
0E00
0E00
0400
ENDCHAR
STARTCHAR U+25C0
ENCODING 9664
SWIDTH 666 0
DWIDTH 12 0
BBX 11 11 0 0
BITMAP
0060
01E0
07E0
1FE0
7FE0
FFE0
7FE0
1FE0
07E0
01E0
0060
ENDCHAR
STARTCHAR U+25C1
ENCODING 9665
SWIDTH 666 0
DWIDTH 12 0
BBX 11 11 0 0
BITMAP
0060
01E0
07E0
1F60
7C60
F060
7C60
1F60
07E0
01E0
0060
ENDCHAR
STARTCHAR U+25C4
ENCODING 9668
SWIDTH 666 0
DWIDTH 12 0
BBX 11 7 0 2
BITMAP
00E0
07E0
3FE0
FFE0
3FE0
07E0
00E0
ENDCHAR
STARTCHAR U+25C5
ENCODING 9669
SWIDTH 666 0
DWIDTH 12 0
BBX 11 7 0 2
BITMAP
00E0
07E0
3F60
F860
3F60
07E0
00E0
ENDCHAR
STARTCHAR U+25C6
ENCODING 9670
SWIDTH 666 0
DWIDTH 12 0
BBX 11 11 0 0
BITMAP
0400
0E00
1F00
3F80
7FC0
FFE0
7FC0
3F80
1F00
0E00
0400
ENDCHAR
STARTCHAR U+25C7
ENCODING 9671
SWIDTH 666 0
DWIDTH 12 0
BBX 11 11 0 0
BITMAP
0400
0E00
1F00
3B80
71C0
E0E0
71C0
3B80
1F00
0E00
0400
ENDCHAR
STARTCHAR U+25C8
ENCODING 9672
SWIDTH 666 0
DWIDTH 12 0
BBX 11 11 0 0
BITMAP
0400
0E00
1B00
3580
6EC0
DF60
6EC0
3580
1B00
0E00
0400
ENDCHAR
STARTCHAR U+25C9
ENCODING 9673
SWIDTH 666 0
DWIDTH 12 0
BBX 11 11 0 0
BITMAP
1F00
7FC0
60C0
CE60
DF60
DF60
DF60
CE60
60C0
7FC0
1F00
ENDCHAR
STARTCHAR U+25CA
ENCODING 9674
SWIDTH 666 0
DWIDTH 12 0
BBX 11 11 0 0
BITMAP
0400
0E00
1F00
3B80
71C0
E0E0
71C0
3B80
1F00
0E00
0400
ENDCHAR
STARTCHAR U+25CB
ENCODING 9675
SWIDTH 666 0
DWIDTH 12 0
BBX 11 11 0 0
BITMAP
1F00
7FC0
71C0
E0E0
C060
C060
C060
E0E0
71C0
7FC0
1F00
ENDCHAR
STARTCHAR U+25CC
ENCODING 9676
SWIDTH 666 0
DWIDTH 12 0
BBX 11 11 0 0
BITMAP
0A00
2080
4040
0000
8020
0000
8020
0000
4040
2080
0A00
ENDCHAR
STARTCHAR U+25CD
ENCODING 9677
SWIDTH 666 0
DWIDTH 12 0
BBX 11 11 0 0
BITMAP
1F00
7FC0
75C0
F5E0
D560
D560
D560
F5E0
75C0
7FC0
1F00
ENDCHAR
STARTCHAR U+25CE
ENCODING 9678
SWIDTH 666 0
DWIDTH 12 0
BBX 11 11 0 0
BITMAP
1F00
7FC0
60C0
CE60
D160
D160
D160
CE60
60C0
7FC0
1F00
ENDCHAR
STARTCHAR U+25CF
ENCODING 9679
SWIDTH 666 0
DWIDTH 12 0
BBX 11 11 0 0
BITMAP
0E00
3F80
7FC0
7FC0
FFE0
FFE0
FFE0
7FC0
7FC0
3F80
0E00
ENDCHAR
STARTCHAR U+25D0
ENCODING 9680
SWIDTH 666 0
DWIDTH 12 0
BBX 11 11 0 0
BITMAP
1F00
7FC0
79C0
F8E0
F860
F860
F860
F8E0
79C0
7FC0
1F00
ENDCHAR
STARTCHAR U+25D1
ENCODING 9681
SWIDTH 666 0
DWIDTH 12 0
BBX 11 11 0 0
BITMAP
1F00
7FC0
73C0
E3E0
C3E0
C3E0
C3E0
E3E0
73C0
7FC0
1F00
ENDCHAR
STARTCHAR U+25D2
ENCODING 9682
SWIDTH 666 0
DWIDTH 12 0
BBX 11 11 0 0
BITMAP
1F00
7FC0
71C0
E0E0
C060
C060
FFE0
FFE0
7FC0
7FC0
1F00
ENDCHAR
STARTCHAR U+25D3
ENCODING 9683
SWIDTH 666 0
DWIDTH 12 0
BBX 11 11 0 0
BITMAP
1F00
7FC0
7FC0
FFE0
FFE0
C060
C060
E0E0
71C0
7FC0
1F00
ENDCHAR
STARTCHAR U+25D4
ENCODING 9684
SWIDTH 666 0
DWIDTH 12 0
BBX 11 11 0 0
BITMAP
1F00
7FC0
77C0
E7E0
C7E0
C7E0
C060
E0E0
71C0
7FC0
1F00
ENDCHAR
STARTCHAR U+25D5
ENCODING 9685
SWIDTH 666 0
DWIDTH 12 0
BBX 11 11 0 0
BITMAP
1F00
7FC0
73C0
E3E0
C3E0
C3E0
FFE0
FFE0
7FC0
7FC0
1F00
ENDCHAR
STARTCHAR U+25D6
ENCODING 9686
SWIDTH 666 0
DWIDTH 12 0
BBX 6 11 0 0
BITMAP
0C
3C
7C
7C
FC
FC
FC
7C
7C
3C
0C
ENDCHAR
STARTCHAR U+25D7
ENCODING 9687
SWIDTH 666 0
DWIDTH 12 0
BBX 6 11 5 0
BITMAP
C0
F0
F8
F8
FC
FC
FC
F8
F8
F0
C0
ENDCHAR
STARTCHAR U+25D8
ENCODING 9688
SWIDTH 666 0
DWIDTH 12 0
BBX 11 11 0 0
BITMAP
FFE0
FFE0
F1E0
E0E0
C060
C060
C060
E0E0
F1E0
FFE0
FFE0
ENDCHAR
STARTCHAR U+25D9
ENCODING 9689
SWIDTH 666 0
DWIDTH 12 0
BBX 11 11 0 0
BITMAP
FFE0
E0E0
C060
8E20
9F20
9F20
9F20
8E20
C060
E0E0
FFE0
ENDCHAR
STARTCHAR U+25DA
ENCODING 9690
SWIDTH 666 0
DWIDTH 12 0
BBX 11 6 0 5
BITMAP
FFE0
E0E0
C060
8E20
9F20
9F20
ENDCHAR
STARTCHAR U+25DB
ENCODING 9691
SWIDTH 666 0
DWIDTH 12 0
BBX 11 6 0 0
BITMAP
9F20
9F20
8E20
C060
E0E0
FFE0
ENDCHAR
STARTCHAR U+25DC
ENCODING 9692
SWIDTH 666 0
DWIDTH 12 0
BBX 6 6 0 5
BITMAP
1C
7C
70
E0
C0
C0
ENDCHAR
STARTCHAR U+25DD
ENCODING 9693
SWIDTH 666 0
DWIDTH 12 0
BBX 6 6 5 5
BITMAP
E0
F8
38
1C
0C
0C
ENDCHAR
STARTCHAR U+25DE
ENCODING 9694
SWIDTH 666 0
DWIDTH 12 0
BBX 6 6 5 0
BITMAP
0C
0C
1C
38
F8
E0
ENDCHAR
STARTCHAR U+25DF
ENCODING 9695
SWIDTH 666 0
DWIDTH 12 0
BBX 6 6 0 0
BITMAP
C0
C0
E0
70
7C
1C
ENDCHAR
STARTCHAR U+25E0
ENCODING 9696
SWIDTH 666 0
DWIDTH 12 0
BBX 11 6 0 5
BITMAP
1F00
7FC0
71C0
E0E0
C060
C060
ENDCHAR
STARTCHAR U+25E1
ENCODING 9697
SWIDTH 666 0
DWIDTH 12 0
BBX 11 6 0 0
BITMAP
C060
C060
E0E0
71C0
7FC0
1F00
ENDCHAR
STARTCHAR U+25E2
ENCODING 9698
SWIDTH 666 0
DWIDTH 12 0
BBX 11 11 0 0
BITMAP
0020
0060
00E0
01E0
03E0
07E0
0FE0
1FE0
3FE0
7FE0
FFE0
ENDCHAR
STARTCHAR U+25E3
ENCODING 9699
SWIDTH 666 0
DWIDTH 12 0
BBX 11 11 0 0
BITMAP
8000
C000
E000
F000
F800
FC00
FE00
FF00
FF80
FFC0
FFE0
ENDCHAR
STARTCHAR U+25E4
ENCODING 9700
SWIDTH 666 0
DWIDTH 12 0
BBX 11 11 0 0
BITMAP
FFE0
FFC0
FF80
FF00
FE00
FC00
F800
F000
E000
C000
8000
ENDCHAR
STARTCHAR U+25E5
ENCODING 9701
SWIDTH 666 0
DWIDTH 12 0
BBX 11 11 0 0
BITMAP
FFE0
7FE0
3FE0
1FE0
0FE0
07E0
03E0
01E0
00E0
0060
0020
ENDCHAR
STARTCHAR U+25E6
ENCODING 9702
SWIDTH 388 0
DWIDTH 7 0
BBX 6 6 0 2
BITMAP
78
FC
CC
CC
FC
78
ENDCHAR
STARTCHAR U+25E7
ENCODING 9703
SWIDTH 666 0
DWIDTH 12 0
BBX 11 11 0 0
BITMAP
FFE0
FFE0
F860
F860
F860
F860
F860
F860
F860
FFE0
FFE0
ENDCHAR
STARTCHAR U+25E8
ENCODING 9704
SWIDTH 666 0
DWIDTH 12 0
BBX 11 11 0 0
BITMAP
FFE0
FFE0
C3E0
C3E0
C3E0
C3E0
C3E0
C3E0
C3E0
FFE0
FFE0
ENDCHAR
STARTCHAR U+25E9
ENCODING 9705
SWIDTH 666 0
DWIDTH 12 0
BBX 11 11 0 0
BITMAP
FFE0
FFE0
FF60
FE60
FC60
F860
F060
E060
C060
FFE0
FFE0
ENDCHAR
STARTCHAR U+25EA
ENCODING 9706
SWIDTH 666 0
DWIDTH 12 0
BBX 11 11 0 0
BITMAP
FFE0
FFE0
C060
C0E0
C1E0
C3E0
C7E0
CFE0
DFE0
FFE0
FFE0
ENDCHAR
STARTCHAR U+25EB
ENCODING 9707
SWIDTH 666 0
DWIDTH 12 0
BBX 11 11 0 0
BITMAP
FFE0
FFE0
C460
C460
C460
C460
C460
C460
C460
FFE0
FFE0
ENDCHAR
STARTCHAR U+25EC
ENCODING 9708
SWIDTH 666 0
DWIDTH 12 0
BBX 11 11 0 0
BITMAP
0400
0E00
0E00
1F00
1B00
3B80
3180
75C0
60C0
FFE0
FFE0
ENDCHAR
STARTCHAR U+25ED
ENCODING 9709
SWIDTH 666 0
DWIDTH 12 0
BBX 11 11 0 0
BITMAP
0400
0E00
0E00
1F00
1B00
3B80
3980
79C0
78C0
FFE0
FFE0
ENDCHAR
STARTCHAR U+25EE
ENCODING 9710
SWIDTH 666 0
DWIDTH 12 0
BBX 11 11 0 0
BITMAP
0400
0E00
0E00
1F00
1B00
3B80
3380
73C0
63C0
FFE0
FFE0
ENDCHAR
STARTCHAR U+25EF
ENCODING 9711
SWIDTH 666 0
DWIDTH 12 0
BBX 11 11 0 0
BITMAP
1F00
7FC0
71C0
E0E0
C060
C060
C060
E0E0
71C0
7FC0
1F00
ENDCHAR
STARTCHAR U+25F0
ENCODING 9712
SWIDTH 666 0
DWIDTH 12 0
BBX 11 11 0 0
BITMAP
FFE0
FFE0
C660
C660
C660
FE60
FE60
C060
C060
FFE0
FFE0
ENDCHAR
STARTCHAR U+25F1
ENCODING 9713
SWIDTH 666 0
DWIDTH 12 0
BBX 11 11 0 0
BITMAP
FFE0
FFE0
C060
C060
FE60
FE60
C660
C660
C660
FFE0
FFE0
ENDCHAR
STARTCHAR U+25F2
ENCODING 9714
SWIDTH 666 0
DWIDTH 12 0
BBX 11 11 0 0
BITMAP
FFE0
FFE0
C060
C060
CFE0
CFE0
CC60
CC60
CC60
FFE0
FFE0
ENDCHAR
STARTCHAR U+25F3
ENCODING 9715
SWIDTH 666 0
DWIDTH 12 0
BBX 11 11 0 0
BITMAP
FFE0
FFE0
CC60
CC60
CC60
CFE0
CFE0
C060
C060
FFE0
FFE0
ENDCHAR
STARTCHAR U+25F4
ENCODING 9716
SWIDTH 666 0
DWIDTH 12 0
BBX 11 11 0 0
BITMAP
1F00
7FC0
77C0
E6E0
C660
FE60
FE60
E0E0
71C0
7FC0
1F00
ENDCHAR
STARTCHAR U+25F5
ENCODING 9717
SWIDTH 666 0
DWIDTH 12 0
BBX 11 11 0 0
BITMAP
1F00
7FC0
71C0
E0E0
FE60
FE60
C660
E6E0
77C0
7FC0
1F00
ENDCHAR
STARTCHAR U+25F6
ENCODING 9718
SWIDTH 666 0
DWIDTH 12 0
BBX 11 11 0 0
BITMAP
1F00
7FC0
71C0
E0E0
CFE0
CFE0
CC60
ECE0
7DC0
7FC0
1F00
ENDCHAR
STARTCHAR U+25F7
ENCODING 9719
SWIDTH 666 0
DWIDTH 12 0
BBX 11 11 0 0
BITMAP
1F00
7FC0
7DC0
ECE0
CC60
CFE0
CFE0
E0E0
71C0
7FC0
1F00
ENDCHAR
STARTCHAR U+25F8
ENCODING 9720
SWIDTH 666 0
DWIDTH 12 0
BBX 11 11 0 0
BITMAP
FFE0
FFE0
C1C0
C380
C700
CE00
DC00
F800
F000
E000
C000
ENDCHAR
STARTCHAR U+25F9
ENCODING 9721
SWIDTH 666 0
DWIDTH 12 0
BBX 11 11 0 0
BITMAP
FFE0
FFE0
7060
3860
1C60
0E60
0760
03E0
01E0
00E0
0060
ENDCHAR
STARTCHAR U+25FA
ENCODING 9722
SWIDTH 666 0
DWIDTH 12 0
BBX 11 11 0 0
BITMAP
C000
E000
F000
F800
DC00
CE00
C700
C380
C1C0
FFE0
FFE0
ENDCHAR
STARTCHAR U+25FB
ENCODING 9723
SWIDTH 666 0
DWIDTH 12 0
BBX 9 9 1 1
BITMAP
FF80
FF80
C180
C180
C180
C180
C180
FF80
FF80
ENDCHAR
STARTCHAR U+25FC
ENCODING 9724
SWIDTH 666 0
DWIDTH 12 0
BBX 9 9 1 1
BITMAP
FF80
FF80
FF80
FF80
FF80
FF80
FF80
FF80
FF80
ENDCHAR
STARTCHAR U+25FD
ENCODING 9725
SWIDTH 666 0
DWIDTH 12 0
BBX 8 8 1 1
BITMAP
FF
FF
C3
C3
C3
C3
FF
FF
ENDCHAR
STARTCHAR U+25FE
ENCODING 9726
SWIDTH 666 0
DWIDTH 12 0
BBX 8 8 1 1
BITMAP
FF
FF
FF
FF
FF
FF
FF
FF
ENDCHAR
STARTCHAR U+25FF
ENCODING 9727
SWIDTH 666 0
DWIDTH 12 0
BBX 11 11 0 0
BITMAP
0060
00E0
01E0
03E0
0760
0E60
1C60
3860
7060
FFE0
FFE0
ENDCHAR
STARTCHAR U+2600
ENCODING 9728
SWIDTH 666 0
DWIDTH 12 0
BBX 11 11 0 0
BITMAP
0400
4040
0E00
1F00
3F80
BFA0
3F80
1F00
0E00
4040
0400
ENDCHAR
STARTCHAR U+2601
ENCODING 9729
SWIDTH 666 0
DWIDTH 12 0
BBX 11 10 0 1
BITMAP
0E00
1100
3180
4040
8020
8020
8120
8220
4440
3B80
ENDCHAR
STARTCHAR U+2602
ENCODING 9730
SWIDTH 666 0
DWIDTH 12 0
BBX 11 11 0 0
BITMAP
0400
1F00
3F80
7FC0
FFE0
0400
0400
0400
0400
0480
0300
ENDCHAR
STARTCHAR U+2603
ENCODING 9731
SWIDTH 666 0
DWIDTH 12 0
BBX 9 11 1 0
BITMAP
1C00
2200
4100
4100
6300
8080
8080
8080
8080
4100
3E00
ENDCHAR
STARTCHAR U+2605
ENCODING 9733
SWIDTH 666 0
DWIDTH 12 0
BBX 11 11 0 0
BITMAP
0400
0400
0E00
0E00
FFE0
7FC0
3F80
1F00
3B80
3180
2080
ENDCHAR
STARTCHAR U+2606
ENCODING 9734
SWIDTH 666 0
DWIDTH 12 0
BBX 11 11 0 0
BITMAP
0400
0400
0E00
0A00
FBE0
60C0
3180
1500
3B80
3180
2080
ENDCHAR
STARTCHAR U+2610
ENCODING 9744
SWIDTH 666 0
DWIDTH 12 0
BBX 9 9 1 1
BITMAP
FF80
FF80
C180
C180
C180
C180
C180
FF80
FF80
ENDCHAR
STARTCHAR U+2611
ENCODING 9745
SWIDTH 666 0
DWIDTH 12 0
BBX 9 9 1 1
BITMAP
FF80
FF80
C380
C580
E980
D180
C180
FF80
FF80
ENDCHAR
STARTCHAR U+2612
ENCODING 9746
SWIDTH 666 0
DWIDTH 12 0
BBX 9 9 1 1
BITMAP
FF80
FF80
C180
D580
C980
D580
C180
FF80
FF80
ENDCHAR
STARTCHAR U+262E
ENCODING 9774
SWIDTH 666 0
DWIDTH 12 0
BBX 11 11 0 0
BITMAP
1F00
7FC0
75C0
E4E0
C460
CE60
D560
E4E0
75C0
7FC0
1F00
ENDCHAR
STARTCHAR U+2630
ENCODING 9776
SWIDTH 666 0
DWIDTH 12 0
BBX 9 8 1 2
BITMAP
FF80
FF80
0000
FF80
FF80
0000
FF80
FF80
ENDCHAR
STARTCHAR U+2631
ENCODING 9777
SWIDTH 666 0
DWIDTH 12 0
BBX 9 8 1 2
BITMAP
F780
F780
0000
FF80
FF80
0000
FF80
FF80
ENDCHAR
STARTCHAR U+2632
ENCODING 9778
SWIDTH 666 0
DWIDTH 12 0
BBX 9 8 1 2
BITMAP
FF80
FF80
0000
F780
F780
0000
FF80
FF80
ENDCHAR
STARTCHAR U+2633
ENCODING 9779
SWIDTH 666 0
DWIDTH 12 0
BBX 9 8 1 2
BITMAP
F780
F780
0000
F780
F780
0000
FF80
FF80
ENDCHAR
STARTCHAR U+2634
ENCODING 9780
SWIDTH 666 0
DWIDTH 12 0
BBX 9 8 1 2
BITMAP
FF80
FF80
0000
FF80
FF80
0000
F780
F780
ENDCHAR
STARTCHAR U+2635
ENCODING 9781
SWIDTH 666 0
DWIDTH 12 0
BBX 9 8 1 2
BITMAP
F780
F780
0000
FF80
FF80
0000
F780
F780
ENDCHAR
STARTCHAR U+2636
ENCODING 9782
SWIDTH 666 0
DWIDTH 12 0
BBX 9 8 1 2
BITMAP
FF80
FF80
0000
F780
F780
0000
F780
F780
ENDCHAR
STARTCHAR U+2637
ENCODING 9783
SWIDTH 666 0
DWIDTH 12 0
BBX 9 8 1 2
BITMAP
F780
F780
0000
F780
F780
0000
F780
F780
ENDCHAR
STARTCHAR U+2639
ENCODING 9785
SWIDTH 666 0
DWIDTH 12 0
BBX 11 11 0 0
BITMAP
FFE0
FFE0
C060
CA60
CA60
C060
CE60
D160
C060
FFE0
FFE0
ENDCHAR
STARTCHAR U+263A
ENCODING 9786
SWIDTH 666 0
DWIDTH 12 0
BBX 11 11 0 0
BITMAP
FFE0
FFE0
C060
CA60
CA60
C060
D160
CE60
C060
FFE0
FFE0
ENDCHAR
STARTCHAR U+263B
ENCODING 9787
SWIDTH 666 0
DWIDTH 12 0
BBX 11 11 0 0
BITMAP
FFE0
FFE0
EEE0
EEE0
EEE0
FFE0
FFE0
DF60
E0E0
FFE0
FFE0
ENDCHAR
STARTCHAR U+263C
ENCODING 9788
SWIDTH 666 0
DWIDTH 12 0
BBX 11 11 0 0
BITMAP
0400
4040
1F00
3F80
3180
B1A0
3180
3F80
1F00
4040
0400
ENDCHAR
STARTCHAR U+2660
ENCODING 9824
SWIDTH 666 0
DWIDTH 12 0
BBX 11 11 0 0
BITMAP
0400
0E00
1F00
3F80
7FC0
FFE0
FFE0
F5E0
64C0
0E00
1F00
ENDCHAR
STARTCHAR U+2661
ENCODING 9825
SWIDTH 666 0
DWIDTH 12 0
BBX 11 10 0 0
BITMAP
7BC0
FFE0
CE60
C460
E0E0
71C0
3B80
1F00
0E00
0400
ENDCHAR
STARTCHAR U+2662
ENCODING 9826
SWIDTH 666 0
DWIDTH 12 0
BBX 11 11 0 0
BITMAP
0400
0E00
1F00
3B80
71C0
E0E0
71C0
3B80
1F00
0E00
0400
ENDCHAR
STARTCHAR U+2663
ENCODING 9827
SWIDTH 666 0
DWIDTH 12 0
BBX 11 11 0 0
BITMAP
0E00
1F00
1F00
0E00
75C0
FFE0
FFE0
75C0
0400
0E00
1F00
ENDCHAR
STARTCHAR U+2664
ENCODING 9828
SWIDTH 666 0
DWIDTH 12 0
BBX 11 11 0 0
BITMAP
0400
0E00
1B00
3180
60C0
CE60
DF60
F5E0
64C0
0A00
1F00
ENDCHAR
STARTCHAR U+2665
ENCODING 9829
SWIDTH 666 0
DWIDTH 12 0
BBX 11 10 0 0
BITMAP
71C0
FBE0
FFE0
FFE0
FFE0
7FC0
3F80
1F00
0E00
0400
ENDCHAR
STARTCHAR U+2666
ENCODING 9830
SWIDTH 666 0
DWIDTH 12 0
BBX 11 11 0 0
BITMAP
0400
0E00
1F00
3F80
7FC0
FFE0
7FC0
3F80
1F00
0E00
0400
ENDCHAR
STARTCHAR U+2667
ENCODING 9831
SWIDTH 666 0
DWIDTH 12 0
BBX 11 11 0 0
BITMAP
0E00
1F00
1100
0A00
71C0
C460
FFE0
75C0
0400
0A00
1F00
ENDCHAR
STARTCHAR U+2669
ENCODING 9833
SWIDTH 666 0
DWIDTH 12 0
BBX 4 11 3 0
BITMAP
10
10
10
10
10
10
10
10
70
F0
E0
ENDCHAR
STARTCHAR U+266A
ENCODING 9834
SWIDTH 666 0
DWIDTH 12 0
BBX 7 11 2 0
BITMAP
10
18
1C
16
12
12
14
10
70
F0
E0
ENDCHAR
STARTCHAR U+266B
ENCODING 9835
SWIDTH 666 0
DWIDTH 12 0
BBX 11 11 0 0
BITMAP
1FE0
1FE0
1020
1020
1020
1020
1020
1020
70E0
F1E0
E1C0
ENDCHAR
STARTCHAR U+266C
ENCODING 9836
SWIDTH 666 0
DWIDTH 12 0
BBX 11 11 0 0
BITMAP
1FE0
1020
1FE0
1020
1020
1020
1020
1020
70E0
F1E0
E1C0
ENDCHAR
STARTCHAR U+266D
ENCODING 9837
SWIDTH 666 0
DWIDTH 12 0
BBX 6 11 3 0
BITMAP
80
80
80
80
B8
DC
8C
8C
98
B0
C0
ENDCHAR
STARTCHAR U+266E
ENCODING 9838
SWIDTH 666 0
DWIDTH 12 0
BBX 6 11 3 0
BITMAP
80
84
9C
FC
E4
84
9C
FC
E4
84
04
ENDCHAR
STARTCHAR U+266F
ENCODING 9839
SWIDTH 666 0
DWIDTH 12 0
BBX 9 11 1 0
BITMAP
0200
2380
3F80
FE00
E200
2200
2380
3F80
FE00
E200
2000
ENDCHAR
STARTCHAR U+2680
ENCODING 9856
SWIDTH 666 0
DWIDTH 12 0
BBX 11 11 0 0
BITMAP
FFE0
FFE0
C060
C060
C060
C460
C060
C060
C060
FFE0
FFE0
ENDCHAR
STARTCHAR U+2681
ENCODING 9857
SWIDTH 666 0
DWIDTH 12 0
BBX 11 11 0 0
BITMAP
FFE0
FFE0
C060
C160
C060
C060
C060
D060
C060
FFE0
FFE0
ENDCHAR
STARTCHAR U+2682
ENCODING 9858
SWIDTH 666 0
DWIDTH 12 0
BBX 11 11 0 0
BITMAP
FFE0
FFE0
C060
C160
C060
C460
C060
D060
C060
FFE0
FFE0
ENDCHAR
STARTCHAR U+2683
ENCODING 9859
SWIDTH 666 0
DWIDTH 12 0
BBX 11 11 0 0
BITMAP
FFE0
FFE0
C060
D160
C060
C060
C060
D160
C060
FFE0
FFE0
ENDCHAR
STARTCHAR U+2684
ENCODING 9860
SWIDTH 666 0
DWIDTH 12 0
BBX 11 11 0 0
BITMAP
FFE0
FFE0
C060
D160
C060
C460
C060
D160
C060
FFE0
FFE0
ENDCHAR
STARTCHAR U+2685
ENCODING 9861
SWIDTH 666 0
DWIDTH 12 0
BBX 11 11 0 0
BITMAP
FFE0
FFE0
C060
D160
C060
D160
C060
D160
C060
FFE0
FFE0
ENDCHAR
STARTCHAR U+2686
ENCODING 9862
SWIDTH 666 0
DWIDTH 12 0
BBX 11 11 0 0
BITMAP
1F00
7FC0
71C0
E0E0
C060
C160
C060
E0E0
71C0
7FC0
1F00
ENDCHAR
STARTCHAR U+2687
ENCODING 9863
SWIDTH 666 0
DWIDTH 12 0
BBX 11 11 0 0
BITMAP
1F00
7FC0
71C0
E0E0
C060
D160
C060
E0E0
71C0
7FC0
1F00
ENDCHAR
STARTCHAR U+2688
ENCODING 9864
SWIDTH 666 0
DWIDTH 12 0
BBX 11 11 0 0
BITMAP
0E00
3F80
7FC0
7FC0
FFE0
FEE0
FFE0
7FC0
7FC0
3F80
0E00
ENDCHAR
STARTCHAR U+2689
ENCODING 9865
SWIDTH 666 0
DWIDTH 12 0
BBX 11 11 0 0
BITMAP
0E00
3F80
7FC0
7FC0
FFE0
EEE0
FFE0
7FC0
7FC0
3F80
0E00
ENDCHAR
STARTCHAR U+26A0
ENCODING 9888
SWIDTH 666 0
DWIDTH 12 0
BBX 11 11 0 0
BITMAP
FFE0
F1E0
F1E0
F1E0
F1E0
F9E0
F9E0
FFE0
F9E0
F9E0
FFE0
ENDCHAR
STARTCHAR U+26C4
ENCODING 9924
SWIDTH 666 0
DWIDTH 12 0
BBX 9 11 1 0
BITMAP
1C00
2200
4100
4100
6300
8080
8080
8080
8080
4100
3E00
ENDCHAR
STARTCHAR U+26D4
ENCODING 9940
SWIDTH 666 0
DWIDTH 12 0
BBX 11 11 0 0
BITMAP
0E00
3F80
7FC0
7FC0
C060
C060
FFE0
7FC0
7FC0
3F80
0E00
ENDCHAR
STARTCHAR U+2706
ENCODING 9990
SWIDTH 666 0
DWIDTH 12 0
BBX 7 12 2 0
BITMAP
02
FE
82
82
82
FE
AA
D6
AA
D6
AA
FE
ENDCHAR
STARTCHAR U+2709
ENCODING 9993
SWIDTH 666 0
DWIDTH 12 0
BBX 11 9 0 1
BITMAP
FFE0
C060
A0A0
9120
8A20
8420
8020
8020
FFE0
ENDCHAR
STARTCHAR U+2753
ENCODING 10067
SWIDTH 666 0
DWIDTH 12 0
BBX 11 11 0 0
BITMAP
FFE0
E0E0
CE60
CE60
FCE0
F9E0
F9E0
FFE0
F9E0
F9E0
FFE0
ENDCHAR
STARTCHAR U+2757
ENCODING 10071
SWIDTH 666 0
DWIDTH 12 0
BBX 11 11 0 0
BITMAP
FFE0
F1E0
F1E0
F1E0
F1E0
F9E0
F9E0
FFE0
F9E0
F9E0
FFE0
ENDCHAR
STARTCHAR U+2776
ENCODING 10102
SWIDTH 666 0
DWIDTH 12 0
BBX 11 11 0 0
BITMAP
1F00
7FC0
79C0
F1E0
F9E0
F9E0
F9E0
F9E0
79C0
7FC0
1F00
ENDCHAR
STARTCHAR U+2777
ENCODING 10103
SWIDTH 666 0
DWIDTH 12 0
BBX 11 11 0 0
BITMAP
1F00
7FC0
71C0
E4E0
FCE0
F9E0
F3E0
E7E0
60C0
7FC0
1F00
ENDCHAR
STARTCHAR U+2778
ENCODING 10104
SWIDTH 666 0
DWIDTH 12 0
BBX 11 11 0 0
BITMAP
1F00
7FC0
71C0
E4E0
FCE0
F9E0
FCE0
E4E0
71C0
7FC0
1F00
ENDCHAR
STARTCHAR U+2779
ENCODING 10105
SWIDTH 666 0
DWIDTH 12 0
BBX 11 11 0 0
BITMAP
1F00
7FC0
79C0
F1E0
E1E0
C9E0
C0E0
F9E0
79C0
7FC0
1F00
ENDCHAR
STARTCHAR U+277A
ENCODING 10106
SWIDTH 666 0
DWIDTH 12 0
BBX 11 11 0 0
BITMAP
1F00
7FC0
60C0
E7E0
E1E0
E4E0
FCE0
E4E0
71C0
7FC0
1F00
ENDCHAR
STARTCHAR U+277B
ENCODING 10107
SWIDTH 666 0
DWIDTH 12 0
BBX 11 11 0 0
BITMAP
1F00
7FC0
71C0
E4E0
E7E0
E1E0
E4E0
E4E0
71C0
7FC0
1F00
ENDCHAR
STARTCHAR U+277C
ENCODING 10108
SWIDTH 666 0
DWIDTH 12 0
BBX 11 11 0 0
BITMAP
1F00
7FC0
60C0
FCE0
F9E0
F9E0
F3E0
F3E0
73C0
7FC0
1F00
ENDCHAR
STARTCHAR U+277D
ENCODING 10109
SWIDTH 666 0
DWIDTH 12 0
BBX 11 11 0 0
BITMAP
1F00
7FC0
71C0
E4E0
E4E0
F1E0
E4E0
E4E0
71C0
7FC0
1F00
ENDCHAR
STARTCHAR U+277E
ENCODING 10110
SWIDTH 666 0
DWIDTH 12 0
BBX 11 11 0 0
BITMAP
1F00
7FC0
71C0
E4E0
E4E0
F0E0
FCE0
E4E0
71C0
7FC0
1F00
ENDCHAR
STARTCHAR U+277F
ENCODING 10111
SWIDTH 666 0
DWIDTH 12 0
BBX 11 11 0 0
BITMAP
1F00
7FC0
4CC0
8A60
CA60
CA60
CA60
CA60
4CC0
7FC0
1F00
ENDCHAR
STARTCHAR U+2780
ENCODING 10112
SWIDTH 666 0
DWIDTH 12 0
BBX 11 11 0 0
BITMAP
3F80
7FC0
E0E0
CE60
C660
C660
C660
C660
E0E0
7FC0
3F80
ENDCHAR
STARTCHAR U+2781
ENCODING 10113
SWIDTH 666 0
DWIDTH 12 0
BBX 11 11 0 0
BITMAP
3F80
7FC0
E0E0
DE60
C360
CF60
D860
DF60
E0E0
7FC0
3F80
ENDCHAR
STARTCHAR U+2782
ENCODING 10114
SWIDTH 666 0
DWIDTH 12 0
BBX 11 11 0 0
BITMAP
3F80
7FC0
E0E0
DF60
C360
CE60
C360
DF60
E0E0
7FC0
3F80
ENDCHAR
STARTCHAR U+2783
ENCODING 10115
SWIDTH 666 0
DWIDTH 12 0
BBX 11 11 0 0
BITMAP
3F80
7FC0
E0E0
CF60
DB60
DB60
DF60
C360
E0E0
7FC0
3F80
ENDCHAR
STARTCHAR U+2784
ENCODING 10116
SWIDTH 666 0
DWIDTH 12 0
BBX 11 11 0 0
BITMAP
3F80
7FC0
E0E0
DF60
D860
DF60
C360
DE60
E0E0
7FC0
3F80
ENDCHAR
STARTCHAR U+2785
ENCODING 10117
SWIDTH 666 0
DWIDTH 12 0
BBX 11 11 0 0
BITMAP
3F80
7FC0
E0E0
CF60
D860
DF60
DB60
DE60
E0E0
7FC0
3F80
ENDCHAR
STARTCHAR U+2786
ENCODING 10118
SWIDTH 666 0
DWIDTH 12 0
BBX 11 11 0 0
BITMAP
3F80
7FC0
E0E0
DF60
C360
C660
C660
C660
E0E0
7FC0
3F80
ENDCHAR
STARTCHAR U+2787
ENCODING 10119
SWIDTH 666 0
DWIDTH 12 0
BBX 11 11 0 0
BITMAP
3F80
7FC0
E0E0
DF60
DB60
CE60
DB60
DF60
E0E0
7FC0
3F80
ENDCHAR
STARTCHAR U+2788
ENCODING 10120
SWIDTH 666 0
DWIDTH 12 0
BBX 11 11 0 0
BITMAP
3F80
7FC0
E0E0
CF60
DB60
DF60
C360
DE60
E0E0
7FC0
3F80
ENDCHAR
STARTCHAR U+2789
ENCODING 10121
SWIDTH 666 0
DWIDTH 12 0
BBX 11 11 0 0
BITMAP
3F80
7FC0
E0E0
D760
D560
D560
D560
D760
E0E0
7FC0
3F80
ENDCHAR
STARTCHAR U+278A
ENCODING 10122
SWIDTH 666 0
DWIDTH 12 0
BBX 11 11 0 0
BITMAP
1F00
7FC0
79C0
F1E0
F9E0
F9E0
F9E0
F9E0
79C0
7FC0
1F00
ENDCHAR
STARTCHAR U+278B
ENCODING 10123
SWIDTH 666 0
DWIDTH 12 0
BBX 11 11 0 0
BITMAP
1F00
7FC0
71C0
E4E0
FCE0
F9E0
F3E0
E7E0
60C0
7FC0
1F00
ENDCHAR
STARTCHAR U+278C
ENCODING 10124
SWIDTH 666 0
DWIDTH 12 0
BBX 11 11 0 0
BITMAP
1F00
7FC0
71C0
E4E0
FCE0
F9E0
FCE0
E4E0
71C0
7FC0
1F00
ENDCHAR
STARTCHAR U+278D
ENCODING 10125
SWIDTH 666 0
DWIDTH 12 0
BBX 11 11 0 0
BITMAP
1F00
7FC0
79C0
F1E0
E1E0
C9E0
C0E0
F9E0
79C0
7FC0
1F00
ENDCHAR
STARTCHAR U+278E
ENCODING 10126
SWIDTH 666 0
DWIDTH 12 0
BBX 11 11 0 0
BITMAP
1F00
7FC0
60C0
E7E0
E1E0
E4E0
FCE0
E4E0
71C0
7FC0
1F00
ENDCHAR
STARTCHAR U+278F
ENCODING 10127
SWIDTH 666 0
DWIDTH 12 0
BBX 11 11 0 0
BITMAP
1F00
7FC0
71C0
E4E0
E7E0
E1E0
E4E0
E4E0
71C0
7FC0
1F00
ENDCHAR
STARTCHAR U+2790
ENCODING 10128
SWIDTH 666 0
DWIDTH 12 0
BBX 11 11 0 0
BITMAP
1F00
7FC0
60C0
FCE0
F9E0
F9E0
F3E0
F3E0
73C0
7FC0
1F00
ENDCHAR
STARTCHAR U+2791
ENCODING 10129
SWIDTH 666 0
DWIDTH 12 0
BBX 11 11 0 0
BITMAP
1F00
7FC0
71C0
E4E0
E4E0
F1E0
E4E0
E4E0
71C0
7FC0
1F00
ENDCHAR
STARTCHAR U+2792
ENCODING 10130
SWIDTH 666 0
DWIDTH 12 0
BBX 11 11 0 0
BITMAP
1F00
7FC0
71C0
E4E0
E4E0
F0E0
FCE0
E4E0
71C0
7FC0
1F00
ENDCHAR
STARTCHAR U+2793
ENCODING 10131
SWIDTH 666 0
DWIDTH 12 0
BBX 11 11 0 0
BITMAP
1F00
7FC0
4CC0
8A60
CA60
CA60
CA60
CA60
4CC0
7FC0
1F00
ENDCHAR
STARTCHAR U+2800
ENCODING 10240
SWIDTH 333 0
DWIDTH 6 0
BBX 0 0 0 0
BITMAP
ENDCHAR
STARTCHAR U+2801
ENCODING 10241
SWIDTH 333 0
DWIDTH 6 0
BBX 2 2 0 9
BITMAP
C0
C0
ENDCHAR
STARTCHAR U+2802
ENCODING 10242
SWIDTH 333 0
DWIDTH 6 0
BBX 2 2 0 6
BITMAP
C0
C0
ENDCHAR
STARTCHAR U+2803
ENCODING 10243
SWIDTH 333 0
DWIDTH 6 0
BBX 2 5 0 6
BITMAP
C0
C0
00
C0
C0
ENDCHAR
STARTCHAR U+2804
ENCODING 10244
SWIDTH 333 0
DWIDTH 6 0
BBX 2 2 0 3
BITMAP
C0
C0
ENDCHAR
STARTCHAR U+2805
ENCODING 10245
SWIDTH 333 0
DWIDTH 6 0
BBX 2 8 0 3
BITMAP
C0
C0
00
00
00
00
C0
C0
ENDCHAR
STARTCHAR U+2806
ENCODING 10246
SWIDTH 333 0
DWIDTH 6 0
BBX 2 5 0 3
BITMAP
C0
C0
00
C0
C0
ENDCHAR
STARTCHAR U+2807
ENCODING 10247
SWIDTH 333 0
DWIDTH 6 0
BBX 2 8 0 3
BITMAP
C0
C0
00
C0
C0
00
C0
C0
ENDCHAR
STARTCHAR U+2808
ENCODING 10248
SWIDTH 333 0
DWIDTH 6 0
BBX 2 2 3 9
BITMAP
C0
C0
ENDCHAR
STARTCHAR U+2809
ENCODING 10249
SWIDTH 333 0
DWIDTH 6 0
BBX 5 2 0 9
BITMAP
D8
D8
ENDCHAR
STARTCHAR U+280A
ENCODING 10250
SWIDTH 333 0
DWIDTH 6 0
BBX 5 5 0 6
BITMAP
18
18
00
C0
C0
ENDCHAR
STARTCHAR U+280B
ENCODING 10251
SWIDTH 333 0
DWIDTH 6 0
BBX 5 5 0 6
BITMAP
D8
D8
00
C0
C0
ENDCHAR
STARTCHAR U+280C
ENCODING 10252
SWIDTH 333 0
DWIDTH 6 0
BBX 5 8 0 3
BITMAP
18
18
00
00
00
00
C0
C0
ENDCHAR
STARTCHAR U+280D
ENCODING 10253
SWIDTH 333 0
DWIDTH 6 0
BBX 5 8 0 3
BITMAP
D8
D8
00
00
00
00
C0
C0
ENDCHAR
STARTCHAR U+280E
ENCODING 10254
SWIDTH 333 0
DWIDTH 6 0
BBX 5 8 0 3
BITMAP
18
18
00
C0
C0
00
C0
C0
ENDCHAR
STARTCHAR U+280F
ENCODING 10255
SWIDTH 333 0
DWIDTH 6 0
BBX 5 8 0 3
BITMAP
D8
D8
00
C0
C0
00
C0
C0
ENDCHAR
STARTCHAR U+2810
ENCODING 10256
SWIDTH 333 0
DWIDTH 6 0
BBX 2 2 3 6
BITMAP
C0
C0
ENDCHAR
STARTCHAR U+2811
ENCODING 10257
SWIDTH 333 0
DWIDTH 6 0
BBX 5 5 0 6
BITMAP
C0
C0
00
18
18
ENDCHAR
STARTCHAR U+2812
ENCODING 10258
SWIDTH 333 0
DWIDTH 6 0
BBX 5 2 0 6
BITMAP
D8
D8
ENDCHAR
STARTCHAR U+2813
ENCODING 10259
SWIDTH 333 0
DWIDTH 6 0
BBX 5 5 0 6
BITMAP
C0
C0
00
D8
D8
ENDCHAR
STARTCHAR U+2814
ENCODING 10260
SWIDTH 333 0
DWIDTH 6 0
BBX 5 5 0 3
BITMAP
18
18
00
C0
C0
ENDCHAR
STARTCHAR U+2815
ENCODING 10261
SWIDTH 333 0
DWIDTH 6 0
BBX 5 8 0 3
BITMAP
C0
C0
00
18
18
00
C0
C0
ENDCHAR
STARTCHAR U+2816
ENCODING 10262
SWIDTH 333 0
DWIDTH 6 0
BBX 5 5 0 3
BITMAP
D8
D8
00
C0
C0
ENDCHAR
STARTCHAR U+2817
ENCODING 10263
SWIDTH 333 0
DWIDTH 6 0
BBX 5 8 0 3
BITMAP
C0
C0
00
D8
D8
00
C0
C0
ENDCHAR
STARTCHAR U+2818
ENCODING 10264
SWIDTH 333 0
DWIDTH 6 0
BBX 2 5 3 6
BITMAP
C0
C0
00
C0
C0
ENDCHAR
STARTCHAR U+2819
ENCODING 10265
SWIDTH 333 0
DWIDTH 6 0
BBX 5 5 0 6
BITMAP
D8
D8
00
18
18
ENDCHAR
STARTCHAR U+281A
ENCODING 10266
SWIDTH 333 0
DWIDTH 6 0
BBX 5 5 0 6
BITMAP
18
18
00
D8
D8
ENDCHAR
STARTCHAR U+281B
ENCODING 10267
SWIDTH 333 0
DWIDTH 6 0
BBX 5 5 0 6
BITMAP
D8
D8
00
D8
D8
ENDCHAR
STARTCHAR U+281C
ENCODING 10268
SWIDTH 333 0
DWIDTH 6 0
BBX 5 8 0 3
BITMAP
18
18
00
18
18
00
C0
C0
ENDCHAR
STARTCHAR U+281D
ENCODING 10269
SWIDTH 333 0
DWIDTH 6 0
BBX 5 8 0 3
BITMAP
D8
D8
00
18
18
00
C0
C0
ENDCHAR
STARTCHAR U+281E
ENCODING 10270
SWIDTH 333 0
DWIDTH 6 0
BBX 5 8 0 3
BITMAP
18
18
00
D8
D8
00
C0
C0
ENDCHAR
STARTCHAR U+281F
ENCODING 10271
SWIDTH 333 0
DWIDTH 6 0
BBX 5 8 0 3
BITMAP
D8
D8
00
D8
D8
00
C0
C0
ENDCHAR
STARTCHAR U+2820
ENCODING 10272
SWIDTH 333 0
DWIDTH 6 0
BBX 2 2 3 3
BITMAP
C0
C0
ENDCHAR
STARTCHAR U+2821
ENCODING 10273
SWIDTH 333 0
DWIDTH 6 0
BBX 5 8 0 3
BITMAP
C0
C0
00
00
00
00
18
18
ENDCHAR
STARTCHAR U+2822
ENCODING 10274
SWIDTH 333 0
DWIDTH 6 0
BBX 5 5 0 3
BITMAP
C0
C0
00
18
18
ENDCHAR
STARTCHAR U+2823
ENCODING 10275
SWIDTH 333 0
DWIDTH 6 0
BBX 5 8 0 3
BITMAP
C0
C0
00
C0
C0
00
18
18
ENDCHAR
STARTCHAR U+2824
ENCODING 10276
SWIDTH 333 0
DWIDTH 6 0
BBX 5 2 0 3
BITMAP
D8
D8
ENDCHAR
STARTCHAR U+2825
ENCODING 10277
SWIDTH 333 0
DWIDTH 6 0
BBX 5 8 0 3
BITMAP
C0
C0
00
00
00
00
D8
D8
ENDCHAR
STARTCHAR U+2826
ENCODING 10278
SWIDTH 333 0
DWIDTH 6 0
BBX 5 5 0 3
BITMAP
C0
C0
00
D8
D8
ENDCHAR
STARTCHAR U+2827
ENCODING 10279
SWIDTH 333 0
DWIDTH 6 0
BBX 5 8 0 3
BITMAP
C0
C0
00
C0
C0
00
D8
D8
ENDCHAR
STARTCHAR U+2828
ENCODING 10280
SWIDTH 333 0
DWIDTH 6 0
BBX 2 8 3 3
BITMAP
C0
C0
00
00
00
00
C0
C0
ENDCHAR
STARTCHAR U+2829
ENCODING 10281
SWIDTH 333 0
DWIDTH 6 0
BBX 5 8 0 3
BITMAP
D8
D8
00
00
00
00
18
18
ENDCHAR
STARTCHAR U+282A
ENCODING 10282
SWIDTH 333 0
DWIDTH 6 0
BBX 5 8 0 3
BITMAP
18
18
00
C0
C0
00
18
18
ENDCHAR
STARTCHAR U+282B
ENCODING 10283
SWIDTH 333 0
DWIDTH 6 0
BBX 5 8 0 3
BITMAP
D8
D8
00
C0
C0
00
18
18
ENDCHAR
STARTCHAR U+282C
ENCODING 10284
SWIDTH 333 0
DWIDTH 6 0
BBX 5 8 0 3
BITMAP
18
18
00
00
00
00
D8
D8
ENDCHAR
STARTCHAR U+282D
ENCODING 10285
SWIDTH 333 0
DWIDTH 6 0
BBX 5 8 0 3
BITMAP
D8
D8
00
00
00
00
D8
D8
ENDCHAR
STARTCHAR U+282E
ENCODING 10286
SWIDTH 333 0
DWIDTH 6 0
BBX 5 8 0 3
BITMAP
18
18
00
C0
C0
00
D8
D8
ENDCHAR
STARTCHAR U+282F
ENCODING 10287
SWIDTH 333 0
DWIDTH 6 0
BBX 5 8 0 3
BITMAP
D8
D8
00
C0
C0
00
D8
D8
ENDCHAR
STARTCHAR U+2830
ENCODING 10288
SWIDTH 333 0
DWIDTH 6 0
BBX 2 5 3 3
BITMAP
C0
C0
00
C0
C0
ENDCHAR
STARTCHAR U+2831
ENCODING 10289
SWIDTH 333 0
DWIDTH 6 0
BBX 5 8 0 3
BITMAP
C0
C0
00
18
18
00
18
18
ENDCHAR
STARTCHAR U+2832
ENCODING 10290
SWIDTH 333 0
DWIDTH 6 0
BBX 5 5 0 3
BITMAP
D8
D8
00
18
18
ENDCHAR
STARTCHAR U+2833
ENCODING 10291
SWIDTH 333 0
DWIDTH 6 0
BBX 5 8 0 3
BITMAP
C0
C0
00
D8
D8
00
18
18
ENDCHAR
STARTCHAR U+2834
ENCODING 10292
SWIDTH 333 0
DWIDTH 6 0
BBX 5 5 0 3
BITMAP
18
18
00
D8
D8
ENDCHAR
STARTCHAR U+2835
ENCODING 10293
SWIDTH 333 0
DWIDTH 6 0
BBX 5 8 0 3
BITMAP
C0
C0
00
18
18
00
D8
D8
ENDCHAR
STARTCHAR U+2836
ENCODING 10294
SWIDTH 333 0
DWIDTH 6 0
BBX 5 5 0 3
BITMAP
D8
D8
00
D8
D8
ENDCHAR
STARTCHAR U+2837
ENCODING 10295
SWIDTH 333 0
DWIDTH 6 0
BBX 5 8 0 3
BITMAP
C0
C0
00
D8
D8
00
D8
D8
ENDCHAR
STARTCHAR U+2838
ENCODING 10296
SWIDTH 333 0
DWIDTH 6 0
BBX 2 8 3 3
BITMAP
C0
C0
00
C0
C0
00
C0
C0
ENDCHAR
STARTCHAR U+2839
ENCODING 10297
SWIDTH 333 0
DWIDTH 6 0
BBX 5 8 0 3
BITMAP
D8
D8
00
18
18
00
18
18
ENDCHAR
STARTCHAR U+283A
ENCODING 10298
SWIDTH 333 0
DWIDTH 6 0
BBX 5 8 0 3
BITMAP
18
18
00
D8
D8
00
18
18
ENDCHAR
STARTCHAR U+283B
ENCODING 10299
SWIDTH 333 0
DWIDTH 6 0
BBX 5 8 0 3
BITMAP
D8
D8
00
D8
D8
00
18
18
ENDCHAR
STARTCHAR U+283C
ENCODING 10300
SWIDTH 333 0
DWIDTH 6 0
BBX 5 8 0 3
BITMAP
18
18
00
18
18
00
D8
D8
ENDCHAR
STARTCHAR U+283D
ENCODING 10301
SWIDTH 333 0
DWIDTH 6 0
BBX 5 8 0 3
BITMAP
D8
D8
00
18
18
00
D8
D8
ENDCHAR
STARTCHAR U+283E
ENCODING 10302
SWIDTH 333 0
DWIDTH 6 0
BBX 5 8 0 3
BITMAP
18
18
00
D8
D8
00
D8
D8
ENDCHAR
STARTCHAR U+283F
ENCODING 10303
SWIDTH 333 0
DWIDTH 6 0
BBX 5 8 0 3
BITMAP
D8
D8
00
D8
D8
00
D8
D8
ENDCHAR
STARTCHAR U+2840
ENCODING 10304
SWIDTH 333 0
DWIDTH 6 0
BBX 2 2 0 0
BITMAP
C0
C0
ENDCHAR
STARTCHAR U+2841
ENCODING 10305
SWIDTH 333 0
DWIDTH 6 0
BBX 2 11 0 0
BITMAP
C0
C0
00
00
00
00
00
00
00
C0
C0
ENDCHAR
STARTCHAR U+2842
ENCODING 10306
SWIDTH 333 0
DWIDTH 6 0
BBX 2 8 0 0
BITMAP
C0
C0
00
00
00
00
C0
C0
ENDCHAR
STARTCHAR U+2843
ENCODING 10307
SWIDTH 333 0
DWIDTH 6 0
BBX 2 11 0 0
BITMAP
C0
C0
00
C0
C0
00
00
00
00
C0
C0
ENDCHAR
STARTCHAR U+2844
ENCODING 10308
SWIDTH 333 0
DWIDTH 6 0
BBX 2 5 0 0
BITMAP
C0
C0
00
C0
C0
ENDCHAR
STARTCHAR U+2845
ENCODING 10309
SWIDTH 333 0
DWIDTH 6 0
BBX 2 11 0 0
BITMAP
C0
C0
00
00
00
00
C0
C0
00
C0
C0
ENDCHAR
STARTCHAR U+2846
ENCODING 10310
SWIDTH 333 0
DWIDTH 6 0
BBX 2 8 0 0
BITMAP
C0
C0
00
C0
C0
00
C0
C0
ENDCHAR
STARTCHAR U+2847
ENCODING 10311
SWIDTH 333 0
DWIDTH 6 0
BBX 2 11 0 0
BITMAP
C0
C0
00
C0
C0
00
C0
C0
00
C0
C0
ENDCHAR
STARTCHAR U+2848
ENCODING 10312
SWIDTH 333 0
DWIDTH 6 0
BBX 5 11 0 0
BITMAP
18
18
00
00
00
00
00
00
00
C0
C0
ENDCHAR
STARTCHAR U+2849
ENCODING 10313
SWIDTH 333 0
DWIDTH 6 0
BBX 5 11 0 0
BITMAP
D8
D8
00
00
00
00
00
00
00
C0
C0
ENDCHAR
STARTCHAR U+284A
ENCODING 10314
SWIDTH 333 0
DWIDTH 6 0
BBX 5 11 0 0
BITMAP
18
18
00
C0
C0
00
00
00
00
C0
C0
ENDCHAR
STARTCHAR U+284B
ENCODING 10315
SWIDTH 333 0
DWIDTH 6 0
BBX 5 11 0 0
BITMAP
D8
D8
00
C0
C0
00
00
00
00
C0
C0
ENDCHAR
STARTCHAR U+284C
ENCODING 10316
SWIDTH 333 0
DWIDTH 6 0
BBX 5 11 0 0
BITMAP
18
18
00
00
00
00
C0
C0
00
C0
C0
ENDCHAR
STARTCHAR U+284D
ENCODING 10317
SWIDTH 333 0
DWIDTH 6 0
BBX 5 11 0 0
BITMAP
D8
D8
00
00
00
00
C0
C0
00
C0
C0
ENDCHAR
STARTCHAR U+284E
ENCODING 10318
SWIDTH 333 0
DWIDTH 6 0
BBX 5 11 0 0
BITMAP
18
18
00
C0
C0
00
C0
C0
00
C0
C0
ENDCHAR
STARTCHAR U+284F
ENCODING 10319
SWIDTH 333 0
DWIDTH 6 0
BBX 5 11 0 0
BITMAP
D8
D8
00
C0
C0
00
C0
C0
00
C0
C0
ENDCHAR
STARTCHAR U+2850
ENCODING 10320
SWIDTH 333 0
DWIDTH 6 0
BBX 5 8 0 0
BITMAP
18
18
00
00
00
00
C0
C0
ENDCHAR
STARTCHAR U+2851
ENCODING 10321
SWIDTH 333 0
DWIDTH 6 0
BBX 5 11 0 0
BITMAP
C0
C0
00
18
18
00
00
00
00
C0
C0
ENDCHAR
STARTCHAR U+2852
ENCODING 10322
SWIDTH 333 0
DWIDTH 6 0
BBX 5 8 0 0
BITMAP
D8
D8
00
00
00
00
C0
C0
ENDCHAR
STARTCHAR U+2853
ENCODING 10323
SWIDTH 333 0
DWIDTH 6 0
BBX 5 11 0 0
BITMAP
C0
C0
00
D8
D8
00
00
00
00
C0
C0
ENDCHAR
STARTCHAR U+2854
ENCODING 10324
SWIDTH 333 0
DWIDTH 6 0
BBX 5 8 0 0
BITMAP
18
18
00
C0
C0
00
C0
C0
ENDCHAR
STARTCHAR U+2855
ENCODING 10325
SWIDTH 333 0
DWIDTH 6 0
BBX 5 11 0 0
BITMAP
C0
C0
00
18
18
00
C0
C0
00
C0
C0
ENDCHAR
STARTCHAR U+2856
ENCODING 10326
SWIDTH 333 0
DWIDTH 6 0
BBX 5 8 0 0
BITMAP
D8
D8
00
C0
C0
00
C0
C0
ENDCHAR
STARTCHAR U+2857
ENCODING 10327
SWIDTH 333 0
DWIDTH 6 0
BBX 5 11 0 0
BITMAP
C0
C0
00
D8
D8
00
C0
C0
00
C0
C0
ENDCHAR
STARTCHAR U+2858
ENCODING 10328
SWIDTH 333 0
DWIDTH 6 0
BBX 5 11 0 0
BITMAP
18
18
00
18
18
00
00
00
00
C0
C0
ENDCHAR
STARTCHAR U+2859
ENCODING 10329
SWIDTH 333 0
DWIDTH 6 0
BBX 5 11 0 0
BITMAP
D8
D8
00
18
18
00
00
00
00
C0
C0
ENDCHAR
STARTCHAR U+285A
ENCODING 10330
SWIDTH 333 0
DWIDTH 6 0
BBX 5 11 0 0
BITMAP
18
18
00
D8
D8
00
00
00
00
C0
C0
ENDCHAR
STARTCHAR U+285B
ENCODING 10331
SWIDTH 333 0
DWIDTH 6 0
BBX 5 11 0 0
BITMAP
D8
D8
00
D8
D8
00
00
00
00
C0
C0
ENDCHAR
STARTCHAR U+285C
ENCODING 10332
SWIDTH 333 0
DWIDTH 6 0
BBX 5 11 0 0
BITMAP
18
18
00
18
18
00
C0
C0
00
C0
C0
ENDCHAR
STARTCHAR U+285D
ENCODING 10333
SWIDTH 333 0
DWIDTH 6 0
BBX 5 11 0 0
BITMAP
D8
D8
00
18
18
00
C0
C0
00
C0
C0
ENDCHAR
STARTCHAR U+285E
ENCODING 10334
SWIDTH 333 0
DWIDTH 6 0
BBX 5 11 0 0
BITMAP
18
18
00
D8
D8
00
C0
C0
00
C0
C0
ENDCHAR
STARTCHAR U+285F
ENCODING 10335
SWIDTH 333 0
DWIDTH 6 0
BBX 5 11 0 0
BITMAP
D8
D8
00
D8
D8
00
C0
C0
00
C0
C0
ENDCHAR
STARTCHAR U+2860
ENCODING 10336
SWIDTH 333 0
DWIDTH 6 0
BBX 5 5 0 0
BITMAP
18
18
00
C0
C0
ENDCHAR
STARTCHAR U+2861
ENCODING 10337
SWIDTH 333 0
DWIDTH 6 0
BBX 5 11 0 0
BITMAP
C0
C0
00
00
00
00
18
18
00
C0
C0
ENDCHAR
STARTCHAR U+2862
ENCODING 10338
SWIDTH 333 0
DWIDTH 6 0
BBX 5 8 0 0
BITMAP
C0
C0
00
18
18
00
C0
C0
ENDCHAR
STARTCHAR U+2863
ENCODING 10339
SWIDTH 333 0
DWIDTH 6 0
BBX 5 11 0 0
BITMAP
C0
C0
00
C0
C0
00
18
18
00
C0
C0
ENDCHAR
STARTCHAR U+2864
ENCODING 10340
SWIDTH 333 0
DWIDTH 6 0
BBX 5 5 0 0
BITMAP
D8
D8
00
C0
C0
ENDCHAR
STARTCHAR U+2865
ENCODING 10341
SWIDTH 333 0
DWIDTH 6 0
BBX 5 11 0 0
BITMAP
C0
C0
00
00
00
00
D8
D8
00
C0
C0
ENDCHAR
STARTCHAR U+2866
ENCODING 10342
SWIDTH 333 0
DWIDTH 6 0
BBX 5 8 0 0
BITMAP
C0
C0
00
D8
D8
00
C0
C0
ENDCHAR
STARTCHAR U+2867
ENCODING 10343
SWIDTH 333 0
DWIDTH 6 0
BBX 5 11 0 0
BITMAP
C0
C0
00
C0
C0
00
D8
D8
00
C0
C0
ENDCHAR
STARTCHAR U+2868
ENCODING 10344
SWIDTH 333 0
DWIDTH 6 0
BBX 5 11 0 0
BITMAP
18
18
00
00
00
00
18
18
00
C0
C0
ENDCHAR
STARTCHAR U+2869
ENCODING 10345
SWIDTH 333 0
DWIDTH 6 0
BBX 5 11 0 0
BITMAP
D8
D8
00
00
00
00
18
18
00
C0
C0
ENDCHAR
STARTCHAR U+286A
ENCODING 10346
SWIDTH 333 0
DWIDTH 6 0
BBX 5 11 0 0
BITMAP
18
18
00
C0
C0
00
18
18
00
C0
C0
ENDCHAR
STARTCHAR U+286B
ENCODING 10347
SWIDTH 333 0
DWIDTH 6 0
BBX 5 11 0 0
BITMAP
D8
D8
00
C0
C0
00
18
18
00
C0
C0
ENDCHAR
STARTCHAR U+286C
ENCODING 10348
SWIDTH 333 0
DWIDTH 6 0
BBX 5 11 0 0
BITMAP
18
18
00
00
00
00
D8
D8
00
C0
C0
ENDCHAR
STARTCHAR U+286D
ENCODING 10349
SWIDTH 333 0
DWIDTH 6 0
BBX 5 11 0 0
BITMAP
D8
D8
00
00
00
00
D8
D8
00
C0
C0
ENDCHAR
STARTCHAR U+286E
ENCODING 10350
SWIDTH 333 0
DWIDTH 6 0
BBX 5 11 0 0
BITMAP
18
18
00
C0
C0
00
D8
D8
00
C0
C0
ENDCHAR
STARTCHAR U+286F
ENCODING 10351
SWIDTH 333 0
DWIDTH 6 0
BBX 5 11 0 0
BITMAP
D8
D8
00
C0
C0
00
D8
D8
00
C0
C0
ENDCHAR
STARTCHAR U+2870
ENCODING 10352
SWIDTH 333 0
DWIDTH 6 0
BBX 5 8 0 0
BITMAP
18
18
00
18
18
00
C0
C0
ENDCHAR
STARTCHAR U+2871
ENCODING 10353
SWIDTH 333 0
DWIDTH 6 0
BBX 5 11 0 0
BITMAP
C0
C0
00
18
18
00
18
18
00
C0
C0
ENDCHAR
STARTCHAR U+2872
ENCODING 10354
SWIDTH 333 0
DWIDTH 6 0
BBX 5 8 0 0
BITMAP
D8
D8
00
18
18
00
C0
C0
ENDCHAR
STARTCHAR U+2873
ENCODING 10355
SWIDTH 333 0
DWIDTH 6 0
BBX 5 11 0 0
BITMAP
C0
C0
00
D8
D8
00
18
18
00
C0
C0
ENDCHAR
STARTCHAR U+2874
ENCODING 10356
SWIDTH 333 0
DWIDTH 6 0
BBX 5 8 0 0
BITMAP
18
18
00
D8
D8
00
C0
C0
ENDCHAR
STARTCHAR U+2875
ENCODING 10357
SWIDTH 333 0
DWIDTH 6 0
BBX 5 11 0 0
BITMAP
C0
C0
00
18
18
00
D8
D8
00
C0
C0
ENDCHAR
STARTCHAR U+2876
ENCODING 10358
SWIDTH 333 0
DWIDTH 6 0
BBX 5 8 0 0
BITMAP
D8
D8
00
D8
D8
00
C0
C0
ENDCHAR
STARTCHAR U+2877
ENCODING 10359
SWIDTH 333 0
DWIDTH 6 0
BBX 5 11 0 0
BITMAP
C0
C0
00
D8
D8
00
D8
D8
00
C0
C0
ENDCHAR
STARTCHAR U+2878
ENCODING 10360
SWIDTH 333 0
DWIDTH 6 0
BBX 5 11 0 0
BITMAP
18
18
00
18
18
00
18
18
00
C0
C0
ENDCHAR
STARTCHAR U+2879
ENCODING 10361
SWIDTH 333 0
DWIDTH 6 0
BBX 5 11 0 0
BITMAP
D8
D8
00
18
18
00
18
18
00
C0
C0
ENDCHAR
STARTCHAR U+287A
ENCODING 10362
SWIDTH 333 0
DWIDTH 6 0
BBX 5 11 0 0
BITMAP
18
18
00
D8
D8
00
18
18
00
C0
C0
ENDCHAR
STARTCHAR U+287B
ENCODING 10363
SWIDTH 333 0
DWIDTH 6 0
BBX 5 11 0 0
BITMAP
D8
D8
00
D8
D8
00
18
18
00
C0
C0
ENDCHAR
STARTCHAR U+287C
ENCODING 10364
SWIDTH 333 0
DWIDTH 6 0
BBX 5 11 0 0
BITMAP
18
18
00
18
18
00
D8
D8
00
C0
C0
ENDCHAR
STARTCHAR U+287D
ENCODING 10365
SWIDTH 333 0
DWIDTH 6 0
BBX 5 11 0 0
BITMAP
D8
D8
00
18
18
00
D8
D8
00
C0
C0
ENDCHAR
STARTCHAR U+287E
ENCODING 10366
SWIDTH 333 0
DWIDTH 6 0
BBX 5 11 0 0
BITMAP
18
18
00
D8
D8
00
D8
D8
00
C0
C0
ENDCHAR
STARTCHAR U+287F
ENCODING 10367
SWIDTH 333 0
DWIDTH 6 0
BBX 5 11 0 0
BITMAP
D8
D8
00
D8
D8
00
D8
D8
00
C0
C0
ENDCHAR
STARTCHAR U+2880
ENCODING 10368
SWIDTH 333 0
DWIDTH 6 0
BBX 2 2 3 0
BITMAP
C0
C0
ENDCHAR
STARTCHAR U+2881
ENCODING 10369
SWIDTH 333 0
DWIDTH 6 0
BBX 5 11 0 0
BITMAP
C0
C0
00
00
00
00
00
00
00
18
18
ENDCHAR
STARTCHAR U+2882
ENCODING 10370
SWIDTH 333 0
DWIDTH 6 0
BBX 5 8 0 0
BITMAP
C0
C0
00
00
00
00
18
18
ENDCHAR
STARTCHAR U+2883
ENCODING 10371
SWIDTH 333 0
DWIDTH 6 0
BBX 5 11 0 0
BITMAP
C0
C0
00
C0
C0
00
00
00
00
18
18
ENDCHAR
STARTCHAR U+2884
ENCODING 10372
SWIDTH 333 0
DWIDTH 6 0
BBX 5 5 0 0
BITMAP
C0
C0
00
18
18
ENDCHAR
STARTCHAR U+2885
ENCODING 10373
SWIDTH 333 0
DWIDTH 6 0
BBX 5 11 0 0
BITMAP
C0
C0
00
00
00
00
C0
C0
00
18
18
ENDCHAR
STARTCHAR U+2886
ENCODING 10374
SWIDTH 333 0
DWIDTH 6 0
BBX 5 8 0 0
BITMAP
C0
C0
00
C0
C0
00
18
18
ENDCHAR
STARTCHAR U+2887
ENCODING 10375
SWIDTH 333 0
DWIDTH 6 0
BBX 5 11 0 0
BITMAP
C0
C0
00
C0
C0
00
C0
C0
00
18
18
ENDCHAR
STARTCHAR U+2888
ENCODING 10376
SWIDTH 333 0
DWIDTH 6 0
BBX 2 11 3 0
BITMAP
C0
C0
00
00
00
00
00
00
00
C0
C0
ENDCHAR
STARTCHAR U+2889
ENCODING 10377
SWIDTH 333 0
DWIDTH 6 0
BBX 5 11 0 0
BITMAP
D8
D8
00
00
00
00
00
00
00
18
18
ENDCHAR
STARTCHAR U+288A
ENCODING 10378
SWIDTH 333 0
DWIDTH 6 0
BBX 5 11 0 0
BITMAP
18
18
00
C0
C0
00
00
00
00
18
18
ENDCHAR
STARTCHAR U+288B
ENCODING 10379
SWIDTH 333 0
DWIDTH 6 0
BBX 5 11 0 0
BITMAP
D8
D8
00
C0
C0
00
00
00
00
18
18
ENDCHAR
STARTCHAR U+288C
ENCODING 10380
SWIDTH 333 0
DWIDTH 6 0
BBX 5 11 0 0
BITMAP
18
18
00
00
00
00
C0
C0
00
18
18
ENDCHAR
STARTCHAR U+288D
ENCODING 10381
SWIDTH 333 0
DWIDTH 6 0
BBX 5 11 0 0
BITMAP
D8
D8
00
00
00
00
C0
C0
00
18
18
ENDCHAR
STARTCHAR U+288E
ENCODING 10382
SWIDTH 333 0
DWIDTH 6 0
BBX 5 11 0 0
BITMAP
18
18
00
C0
C0
00
C0
C0
00
18
18
ENDCHAR
STARTCHAR U+288F
ENCODING 10383
SWIDTH 333 0
DWIDTH 6 0
BBX 5 11 0 0
BITMAP
D8
D8
00
C0
C0
00
C0
C0
00
18
18
ENDCHAR
STARTCHAR U+2890
ENCODING 10384
SWIDTH 333 0
DWIDTH 6 0
BBX 2 8 3 0
BITMAP
C0
C0
00
00
00
00
C0
C0
ENDCHAR
STARTCHAR U+2891
ENCODING 10385
SWIDTH 333 0
DWIDTH 6 0
BBX 5 11 0 0
BITMAP
C0
C0
00
18
18
00
00
00
00
18
18
ENDCHAR
STARTCHAR U+2892
ENCODING 10386
SWIDTH 333 0
DWIDTH 6 0
BBX 5 8 0 0
BITMAP
D8
D8
00
00
00
00
18
18
ENDCHAR
STARTCHAR U+2893
ENCODING 10387
SWIDTH 333 0
DWIDTH 6 0
BBX 5 11 0 0
BITMAP
C0
C0
00
D8
D8
00
00
00
00
18
18
ENDCHAR
STARTCHAR U+2894
ENCODING 10388
SWIDTH 333 0
DWIDTH 6 0
BBX 5 8 0 0
BITMAP
18
18
00
C0
C0
00
18
18
ENDCHAR
STARTCHAR U+2895
ENCODING 10389
SWIDTH 333 0
DWIDTH 6 0
BBX 5 11 0 0
BITMAP
C0
C0
00
18
18
00
C0
C0
00
18
18
ENDCHAR
STARTCHAR U+2896
ENCODING 10390
SWIDTH 333 0
DWIDTH 6 0
BBX 5 8 0 0
BITMAP
D8
D8
00
C0
C0
00
18
18
ENDCHAR
STARTCHAR U+2897
ENCODING 10391
SWIDTH 333 0
DWIDTH 6 0
BBX 5 11 0 0
BITMAP
C0
C0
00
D8
D8
00
C0
C0
00
18
18
ENDCHAR
STARTCHAR U+2898
ENCODING 10392
SWIDTH 333 0
DWIDTH 6 0
BBX 2 11 3 0
BITMAP
C0
C0
00
C0
C0
00
00
00
00
C0
C0
ENDCHAR
STARTCHAR U+2899
ENCODING 10393
SWIDTH 333 0
DWIDTH 6 0
BBX 5 11 0 0
BITMAP
D8
D8
00
18
18
00
00
00
00
18
18
ENDCHAR
STARTCHAR U+289A
ENCODING 10394
SWIDTH 333 0
DWIDTH 6 0
BBX 5 11 0 0
BITMAP
18
18
00
D8
D8
00
00
00
00
18
18
ENDCHAR
STARTCHAR U+289B
ENCODING 10395
SWIDTH 333 0
DWIDTH 6 0
BBX 5 11 0 0
BITMAP
D8
D8
00
D8
D8
00
00
00
00
18
18
ENDCHAR
STARTCHAR U+289C
ENCODING 10396
SWIDTH 333 0
DWIDTH 6 0
BBX 5 11 0 0
BITMAP
18
18
00
18
18
00
C0
C0
00
18
18
ENDCHAR
STARTCHAR U+289D
ENCODING 10397
SWIDTH 333 0
DWIDTH 6 0
BBX 5 11 0 0
BITMAP
D8
D8
00
18
18
00
C0
C0
00
18
18
ENDCHAR
STARTCHAR U+289E
ENCODING 10398
SWIDTH 333 0
DWIDTH 6 0
BBX 5 11 0 0
BITMAP
18
18
00
D8
D8
00
C0
C0
00
18
18
ENDCHAR
STARTCHAR U+289F
ENCODING 10399
SWIDTH 333 0
DWIDTH 6 0
BBX 5 11 0 0
BITMAP
D8
D8
00
D8
D8
00
C0
C0
00
18
18
ENDCHAR
STARTCHAR U+28A0
ENCODING 10400
SWIDTH 333 0
DWIDTH 6 0
BBX 2 5 3 0
BITMAP
C0
C0
00
C0
C0
ENDCHAR
STARTCHAR U+28A1
ENCODING 10401
SWIDTH 333 0
DWIDTH 6 0
BBX 5 11 0 0
BITMAP
C0
C0
00
00
00
00
18
18
00
18
18
ENDCHAR
STARTCHAR U+28A2
ENCODING 10402
SWIDTH 333 0
DWIDTH 6 0
BBX 5 8 0 0
BITMAP
C0
C0
00
18
18
00
18
18
ENDCHAR
STARTCHAR U+28A3
ENCODING 10403
SWIDTH 333 0
DWIDTH 6 0
BBX 5 11 0 0
BITMAP
C0
C0
00
C0
C0
00
18
18
00
18
18
ENDCHAR
STARTCHAR U+28A4
ENCODING 10404
SWIDTH 333 0
DWIDTH 6 0
BBX 5 5 0 0
BITMAP
D8
D8
00
18
18
ENDCHAR
STARTCHAR U+28A5
ENCODING 10405
SWIDTH 333 0
DWIDTH 6 0
BBX 5 11 0 0
BITMAP
C0
C0
00
00
00
00
D8
D8
00
18
18
ENDCHAR
STARTCHAR U+28A6
ENCODING 10406
SWIDTH 333 0
DWIDTH 6 0
BBX 5 8 0 0
BITMAP
C0
C0
00
D8
D8
00
18
18
ENDCHAR
STARTCHAR U+28A7
ENCODING 10407
SWIDTH 333 0
DWIDTH 6 0
BBX 5 11 0 0
BITMAP
C0
C0
00
C0
C0
00
D8
D8
00
18
18
ENDCHAR
STARTCHAR U+28A8
ENCODING 10408
SWIDTH 333 0
DWIDTH 6 0
BBX 2 11 3 0
BITMAP
C0
C0
00
00
00
00
C0
C0
00
C0
C0
ENDCHAR
STARTCHAR U+28A9
ENCODING 10409
SWIDTH 333 0
DWIDTH 6 0
BBX 5 11 0 0
BITMAP
D8
D8
00
00
00
00
18
18
00
18
18
ENDCHAR
STARTCHAR U+28AA
ENCODING 10410
SWIDTH 333 0
DWIDTH 6 0
BBX 5 11 0 0
BITMAP
18
18
00
C0
C0
00
18
18
00
18
18
ENDCHAR
STARTCHAR U+28AB
ENCODING 10411
SWIDTH 333 0
DWIDTH 6 0
BBX 5 11 0 0
BITMAP
D8
D8
00
C0
C0
00
18
18
00
18
18
ENDCHAR
STARTCHAR U+28AC
ENCODING 10412
SWIDTH 333 0
DWIDTH 6 0
BBX 5 11 0 0
BITMAP
18
18
00
00
00
00
D8
D8
00
18
18
ENDCHAR
STARTCHAR U+28AD
ENCODING 10413
SWIDTH 333 0
DWIDTH 6 0
BBX 5 11 0 0
BITMAP
D8
D8
00
00
00
00
D8
D8
00
18
18
ENDCHAR
STARTCHAR U+28AE
ENCODING 10414
SWIDTH 333 0
DWIDTH 6 0
BBX 5 11 0 0
BITMAP
18
18
00
C0
C0
00
D8
D8
00
18
18
ENDCHAR
STARTCHAR U+28AF
ENCODING 10415
SWIDTH 333 0
DWIDTH 6 0
BBX 5 11 0 0
BITMAP
D8
D8
00
C0
C0
00
D8
D8
00
18
18
ENDCHAR
STARTCHAR U+28B0
ENCODING 10416
SWIDTH 333 0
DWIDTH 6 0
BBX 2 8 3 0
BITMAP
C0
C0
00
C0
C0
00
C0
C0
ENDCHAR
STARTCHAR U+28B1
ENCODING 10417
SWIDTH 333 0
DWIDTH 6 0
BBX 5 11 0 0
BITMAP
C0
C0
00
18
18
00
18
18
00
18
18
ENDCHAR
STARTCHAR U+28B2
ENCODING 10418
SWIDTH 333 0
DWIDTH 6 0
BBX 5 8 0 0
BITMAP
D8
D8
00
18
18
00
18
18
ENDCHAR
STARTCHAR U+28B3
ENCODING 10419
SWIDTH 333 0
DWIDTH 6 0
BBX 5 11 0 0
BITMAP
C0
C0
00
D8
D8
00
18
18
00
18
18
ENDCHAR
STARTCHAR U+28B4
ENCODING 10420
SWIDTH 333 0
DWIDTH 6 0
BBX 5 8 0 0
BITMAP
18
18
00
D8
D8
00
18
18
ENDCHAR
STARTCHAR U+28B5
ENCODING 10421
SWIDTH 333 0
DWIDTH 6 0
BBX 5 11 0 0
BITMAP
C0
C0
00
18
18
00
D8
D8
00
18
18
ENDCHAR
STARTCHAR U+28B6
ENCODING 10422
SWIDTH 333 0
DWIDTH 6 0
BBX 5 8 0 0
BITMAP
D8
D8
00
D8
D8
00
18
18
ENDCHAR
STARTCHAR U+28B7
ENCODING 10423
SWIDTH 333 0
DWIDTH 6 0
BBX 5 11 0 0
BITMAP
C0
C0
00
D8
D8
00
D8
D8
00
18
18
ENDCHAR
STARTCHAR U+28B8
ENCODING 10424
SWIDTH 333 0
DWIDTH 6 0
BBX 2 11 3 0
BITMAP
C0
C0
00
C0
C0
00
C0
C0
00
C0
C0
ENDCHAR
STARTCHAR U+28B9
ENCODING 10425
SWIDTH 333 0
DWIDTH 6 0
BBX 5 11 0 0
BITMAP
D8
D8
00
18
18
00
18
18
00
18
18
ENDCHAR
STARTCHAR U+28BA
ENCODING 10426
SWIDTH 333 0
DWIDTH 6 0
BBX 5 11 0 0
BITMAP
18
18
00
D8
D8
00
18
18
00
18
18
ENDCHAR
STARTCHAR U+28BB
ENCODING 10427
SWIDTH 333 0
DWIDTH 6 0
BBX 5 11 0 0
BITMAP
D8
D8
00
D8
D8
00
18
18
00
18
18
ENDCHAR
STARTCHAR U+28BC
ENCODING 10428
SWIDTH 333 0
DWIDTH 6 0
BBX 5 11 0 0
BITMAP
18
18
00
18
18
00
D8
D8
00
18
18
ENDCHAR
STARTCHAR U+28BD
ENCODING 10429
SWIDTH 333 0
DWIDTH 6 0
BBX 5 11 0 0
BITMAP
D8
D8
00
18
18
00
D8
D8
00
18
18
ENDCHAR
STARTCHAR U+28BE
ENCODING 10430
SWIDTH 333 0
DWIDTH 6 0
BBX 5 11 0 0
BITMAP
18
18
00
D8
D8
00
D8
D8
00
18
18
ENDCHAR
STARTCHAR U+28BF
ENCODING 10431
SWIDTH 333 0
DWIDTH 6 0
BBX 5 11 0 0
BITMAP
D8
D8
00
D8
D8
00
D8
D8
00
18
18
ENDCHAR
STARTCHAR U+28C0
ENCODING 10432
SWIDTH 333 0
DWIDTH 6 0
BBX 5 2 0 0
BITMAP
D8
D8
ENDCHAR
STARTCHAR U+28C1
ENCODING 10433
SWIDTH 333 0
DWIDTH 6 0
BBX 5 11 0 0
BITMAP
C0
C0
00
00
00
00
00
00
00
D8
D8
ENDCHAR
STARTCHAR U+28C2
ENCODING 10434
SWIDTH 333 0
DWIDTH 6 0
BBX 5 8 0 0
BITMAP
C0
C0
00
00
00
00
D8
D8
ENDCHAR
STARTCHAR U+28C3
ENCODING 10435
SWIDTH 333 0
DWIDTH 6 0
BBX 5 11 0 0
BITMAP
C0
C0
00
C0
C0
00
00
00
00
D8
D8
ENDCHAR
STARTCHAR U+28C4
ENCODING 10436
SWIDTH 333 0
DWIDTH 6 0
BBX 5 5 0 0
BITMAP
C0
C0
00
D8
D8
ENDCHAR
STARTCHAR U+28C5
ENCODING 10437
SWIDTH 333 0
DWIDTH 6 0
BBX 5 11 0 0
BITMAP
C0
C0
00
00
00
00
C0
C0
00
D8
D8
ENDCHAR
STARTCHAR U+28C6
ENCODING 10438
SWIDTH 333 0
DWIDTH 6 0
BBX 5 8 0 0
BITMAP
C0
C0
00
C0
C0
00
D8
D8
ENDCHAR
STARTCHAR U+28C7
ENCODING 10439
SWIDTH 333 0
DWIDTH 6 0
BBX 5 11 0 0
BITMAP
C0
C0
00
C0
C0
00
C0
C0
00
D8
D8
ENDCHAR
STARTCHAR U+28C8
ENCODING 10440
SWIDTH 333 0
DWIDTH 6 0
BBX 5 11 0 0
BITMAP
18
18
00
18
18
00
00
00
00
D8
D8
ENDCHAR
STARTCHAR U+28C9
ENCODING 10441
SWIDTH 333 0
DWIDTH 6 0
BBX 5 11 0 0
BITMAP
D8
D8
00
00
00
00
00
00
00
D8
D8
ENDCHAR
STARTCHAR U+28CA
ENCODING 10442
SWIDTH 333 0
DWIDTH 6 0
BBX 5 11 0 0
BITMAP
18
18
00
C0
C0
00
00
00
00
D8
D8
ENDCHAR
STARTCHAR U+28CB
ENCODING 10443
SWIDTH 333 0
DWIDTH 6 0
BBX 5 11 0 0
BITMAP
D8
D8
00
C0
C0
00
00
00
00
D8
D8
ENDCHAR
STARTCHAR U+28CC
ENCODING 10444
SWIDTH 333 0
DWIDTH 6 0
BBX 5 11 0 0
BITMAP
18
18
00
00
00
00
C0
C0
00
D8
D8
ENDCHAR
STARTCHAR U+28CD
ENCODING 10445
SWIDTH 333 0
DWIDTH 6 0
BBX 5 11 0 0
BITMAP
D8
D8
00
00
00
00
C0
C0
00
D8
D8
ENDCHAR
STARTCHAR U+28CE
ENCODING 10446
SWIDTH 333 0
DWIDTH 6 0
BBX 5 11 0 0
BITMAP
18
18
00
C0
C0
00
C0
C0
00
D8
D8
ENDCHAR
STARTCHAR U+28CF
ENCODING 10447
SWIDTH 333 0
DWIDTH 6 0
BBX 5 11 0 0
BITMAP
D8
D8
00
C0
C0
00
C0
C0
00
D8
D8
ENDCHAR
STARTCHAR U+28D0
ENCODING 10448
SWIDTH 333 0
DWIDTH 6 0
BBX 5 8 0 0
BITMAP
18
18
00
00
00
00
D8
D8
ENDCHAR
STARTCHAR U+28D1
ENCODING 10449
SWIDTH 333 0
DWIDTH 6 0
BBX 5 11 0 0
BITMAP
C0
C0
00
18
18
00
00
00
00
D8
D8
ENDCHAR
STARTCHAR U+28D2
ENCODING 10450
SWIDTH 333 0
DWIDTH 6 0
BBX 5 8 0 0
BITMAP
D8
D8
00
00
00
00
D8
D8
ENDCHAR
STARTCHAR U+28D3
ENCODING 10451
SWIDTH 333 0
DWIDTH 6 0
BBX 5 11 0 0
BITMAP
C0
C0
00
D8
D8
00
00
00
00
D8
D8
ENDCHAR
STARTCHAR U+28D4
ENCODING 10452
SWIDTH 333 0
DWIDTH 6 0
BBX 5 8 0 0
BITMAP
18
18
00
C0
C0
00
D8
D8
ENDCHAR
STARTCHAR U+28D5
ENCODING 10453
SWIDTH 333 0
DWIDTH 6 0
BBX 5 11 0 0
BITMAP
C0
C0
00
18
18
00
C0
C0
00
D8
D8
ENDCHAR
STARTCHAR U+28D6
ENCODING 10454
SWIDTH 333 0
DWIDTH 6 0
BBX 5 8 0 0
BITMAP
D8
D8
00
C0
C0
00
D8
D8
ENDCHAR
STARTCHAR U+28D7
ENCODING 10455
SWIDTH 333 0
DWIDTH 6 0
BBX 5 11 0 0
BITMAP
C0
C0
00
D8
D8
00
C0
C0
00
D8
D8
ENDCHAR
STARTCHAR U+28D8
ENCODING 10456
SWIDTH 333 0
DWIDTH 6 0
BBX 5 11 0 0
BITMAP
18
18
00
18
18
00
00
00
00
D8
D8
ENDCHAR
STARTCHAR U+28D9
ENCODING 10457
SWIDTH 333 0
DWIDTH 6 0
BBX 5 11 0 0
BITMAP
D8
D8
00
18
18
00
00
00
00
D8
D8
ENDCHAR
STARTCHAR U+28DA
ENCODING 10458
SWIDTH 333 0
DWIDTH 6 0
BBX 5 11 0 0
BITMAP
18
18
00
D8
D8
00
00
00
00
D8
D8
ENDCHAR
STARTCHAR U+28DB
ENCODING 10459
SWIDTH 333 0
DWIDTH 6 0
BBX 5 11 0 0
BITMAP
D8
D8
00
D8
D8
00
00
00
00
D8
D8
ENDCHAR
STARTCHAR U+28DC
ENCODING 10460
SWIDTH 333 0
DWIDTH 6 0
BBX 5 11 0 0
BITMAP
18
18
00
18
18
00
C0
C0
00
D8
D8
ENDCHAR
STARTCHAR U+28DD
ENCODING 10461
SWIDTH 333 0
DWIDTH 6 0
BBX 5 11 0 0
BITMAP
D8
D8
00
18
18
00
C0
C0
00
D8
D8
ENDCHAR
STARTCHAR U+28DE
ENCODING 10462
SWIDTH 333 0
DWIDTH 6 0
BBX 5 11 0 0
BITMAP
18
18
00
D8
D8
00
C0
C0
00
D8
D8
ENDCHAR
STARTCHAR U+28DF
ENCODING 10463
SWIDTH 333 0
DWIDTH 6 0
BBX 5 11 0 0
BITMAP
D8
D8
00
D8
D8
00
C0
C0
00
D8
D8
ENDCHAR
STARTCHAR U+28E0
ENCODING 10464
SWIDTH 333 0
DWIDTH 6 0
BBX 5 5 0 0
BITMAP
18
18
00
D8
D8
ENDCHAR
STARTCHAR U+28E1
ENCODING 10465
SWIDTH 333 0
DWIDTH 6 0
BBX 5 11 0 0
BITMAP
C0
C0
00
00
00
00
18
18
00
D8
D8
ENDCHAR
STARTCHAR U+28E2
ENCODING 10466
SWIDTH 333 0
DWIDTH 6 0
BBX 5 8 0 0
BITMAP
C0
C0
00
18
18
00
D8
D8
ENDCHAR
STARTCHAR U+28E3
ENCODING 10467
SWIDTH 333 0
DWIDTH 6 0
BBX 5 11 0 0
BITMAP
C0
C0
00
C0
C0
00
18
18
00
D8
D8
ENDCHAR
STARTCHAR U+28E4
ENCODING 10468
SWIDTH 333 0
DWIDTH 6 0
BBX 5 5 0 0
BITMAP
D8
D8
00
D8
D8
ENDCHAR
STARTCHAR U+28E5
ENCODING 10469
SWIDTH 333 0
DWIDTH 6 0
BBX 5 11 0 0
BITMAP
C0
C0
00
00
00
00
D8
D8
00
D8
D8
ENDCHAR
STARTCHAR U+28E6
ENCODING 10470
SWIDTH 333 0
DWIDTH 6 0
BBX 5 8 0 0
BITMAP
C0
C0
00
D8
D8
00
D8
D8
ENDCHAR
STARTCHAR U+28E7
ENCODING 10471
SWIDTH 333 0
DWIDTH 6 0
BBX 5 11 0 0
BITMAP
C0
C0
00
C0
C0
00
D8
D8
00
D8
D8
ENDCHAR
STARTCHAR U+28E8
ENCODING 10472
SWIDTH 333 0
DWIDTH 6 0
BBX 5 11 0 0
BITMAP
18
18
00
00
00
00
18
18
00
D8
D8
ENDCHAR
STARTCHAR U+28E9
ENCODING 10473
SWIDTH 333 0
DWIDTH 6 0
BBX 5 11 0 0
BITMAP
D8
D8
00
00
00
00
18
18
00
D8
D8
ENDCHAR
STARTCHAR U+28EA
ENCODING 10474
SWIDTH 333 0
DWIDTH 6 0
BBX 5 11 0 0
BITMAP
18
18
00
C0
C0
00
18
18
00
D8
D8
ENDCHAR
STARTCHAR U+28EB
ENCODING 10475
SWIDTH 333 0
DWIDTH 6 0
BBX 5 11 0 0
BITMAP
D8
D8
00
C0
C0
00
18
18
00
D8
D8
ENDCHAR
STARTCHAR U+28EC
ENCODING 10476
SWIDTH 333 0
DWIDTH 6 0
BBX 5 11 0 0
BITMAP
18
18
00
00
00
00
D8
D8
00
D8
D8
ENDCHAR
STARTCHAR U+28ED
ENCODING 10477
SWIDTH 333 0
DWIDTH 6 0
BBX 5 11 0 0
BITMAP
D8
D8
00
00
00
00
D8
D8
00
D8
D8
ENDCHAR
STARTCHAR U+28EE
ENCODING 10478
SWIDTH 333 0
DWIDTH 6 0
BBX 5 11 0 0
BITMAP
18
18
00
C0
C0
00
D8
D8
00
D8
D8
ENDCHAR
STARTCHAR U+28EF
ENCODING 10479
SWIDTH 333 0
DWIDTH 6 0
BBX 5 11 0 0
BITMAP
D8
D8
00
C0
C0
00
D8
D8
00
D8
D8
ENDCHAR
STARTCHAR U+28F0
ENCODING 10480
SWIDTH 333 0
DWIDTH 6 0
BBX 5 8 0 0
BITMAP
18
18
00
18
18
00
D8
D8
ENDCHAR
STARTCHAR U+28F1
ENCODING 10481
SWIDTH 333 0
DWIDTH 6 0
BBX 5 11 0 0
BITMAP
C0
C0
00
18
18
00
18
18
00
D8
D8
ENDCHAR
STARTCHAR U+28F2
ENCODING 10482
SWIDTH 333 0
DWIDTH 6 0
BBX 5 8 0 0
BITMAP
D8
D8
00
18
18
00
D8
D8
ENDCHAR
STARTCHAR U+28F3
ENCODING 10483
SWIDTH 333 0
DWIDTH 6 0
BBX 5 11 0 0
BITMAP
C0
C0
00
D8
D8
00
18
18
00
D8
D8
ENDCHAR
STARTCHAR U+28F4
ENCODING 10484
SWIDTH 333 0
DWIDTH 6 0
BBX 5 8 0 0
BITMAP
18
18
00
D8
D8
00
D8
D8
ENDCHAR
STARTCHAR U+28F5
ENCODING 10485
SWIDTH 333 0
DWIDTH 6 0
BBX 5 11 0 0
BITMAP
C0
C0
00
18
18
00
D8
D8
00
D8
D8
ENDCHAR
STARTCHAR U+28F6
ENCODING 10486
SWIDTH 333 0
DWIDTH 6 0
BBX 5 8 0 0
BITMAP
D8
D8
00
D8
D8
00
D8
D8
ENDCHAR
STARTCHAR U+28F7
ENCODING 10487
SWIDTH 333 0
DWIDTH 6 0
BBX 5 11 0 0
BITMAP
C0
C0
00
D8
D8
00
D8
D8
00
D8
D8
ENDCHAR
STARTCHAR U+28F8
ENCODING 10488
SWIDTH 333 0
DWIDTH 6 0
BBX 5 11 0 0
BITMAP
18
18
00
18
18
00
18
18
00
D8
D8
ENDCHAR
STARTCHAR U+28F9
ENCODING 10489
SWIDTH 333 0
DWIDTH 6 0
BBX 5 11 0 0
BITMAP
D8
D8
00
18
18
00
18
18
00
D8
D8
ENDCHAR
STARTCHAR U+28FA
ENCODING 10490
SWIDTH 333 0
DWIDTH 6 0
BBX 5 11 0 0
BITMAP
18
18
00
D8
D8
00
18
18
00
D8
D8
ENDCHAR
STARTCHAR U+28FB
ENCODING 10491
SWIDTH 333 0
DWIDTH 6 0
BBX 5 11 0 0
BITMAP
D8
D8
00
D8
D8
00
18
18
00
D8
D8
ENDCHAR
STARTCHAR U+28FC
ENCODING 10492
SWIDTH 333 0
DWIDTH 6 0
BBX 5 11 0 0
BITMAP
18
18
00
18
18
00
D8
D8
00
D8
D8
ENDCHAR
STARTCHAR U+28FD
ENCODING 10493
SWIDTH 333 0
DWIDTH 6 0
BBX 5 11 0 0
BITMAP
D8
D8
00
18
18
00
D8
D8
00
D8
D8
ENDCHAR
STARTCHAR U+28FE
ENCODING 10494
SWIDTH 333 0
DWIDTH 6 0
BBX 5 11 0 0
BITMAP
18
18
00
D8
D8
00
D8
D8
00
D8
D8
ENDCHAR
STARTCHAR U+28FF
ENCODING 10495
SWIDTH 333 0
DWIDTH 6 0
BBX 5 11 0 0
BITMAP
D8
D8
00
D8
D8
00
D8
D8
00
D8
D8
ENDCHAR
STARTCHAR U+3000
ENCODING 12288
SWIDTH 666 0
DWIDTH 12 0
BBX 0 0 0 0
BITMAP
ENDCHAR
STARTCHAR U+3001
ENCODING 12289
SWIDTH 666 0
DWIDTH 12 0
BBX 5 5 0 0
BITMAP
C0
E0
70
38
18
ENDCHAR
STARTCHAR U+3002
ENCODING 12290
SWIDTH 666 0
DWIDTH 12 0
BBX 5 5 0 0
BITMAP
70
F8
D8
F8
70
ENDCHAR
STARTCHAR U+3007
ENCODING 12295
SWIDTH 666 0
DWIDTH 12 0
BBX 11 11 0 0
BITMAP
1F00
7FC0
71C0
E0E0
C060
C060
C060
E0E0
71C0
7FC0
1F00
ENDCHAR
STARTCHAR U+3008
ENCODING 12296
SWIDTH 277 0
DWIDTH 5 0
BBX 4 11 0 0
BITMAP
30
30
60
60
C0
C0
C0
60
60
30
30
ENDCHAR
STARTCHAR U+3009
ENCODING 12297
SWIDTH 277 0
DWIDTH 5 0
BBX 4 11 0 0
BITMAP
C0
C0
60
60
30
30
30
60
60
C0
C0
ENDCHAR
STARTCHAR U+300A
ENCODING 12298
SWIDTH 444 0
DWIDTH 8 0
BBX 7 11 0 0
BITMAP
36
36
6C
6C
D8
D8
D8
6C
6C
36
36
ENDCHAR
STARTCHAR U+300B
ENCODING 12299
SWIDTH 444 0
DWIDTH 8 0
BBX 7 11 0 0
BITMAP
D8
D8
6C
6C
36
36
36
6C
6C
D8
D8
ENDCHAR
STARTCHAR U+300C
ENCODING 12300
SWIDTH 333 0
DWIDTH 6 0
BBX 5 8 0 3
BITMAP
F8
F8
C0
C0
C0
C0
C0
C0
ENDCHAR
STARTCHAR U+300D
ENCODING 12301
SWIDTH 333 0
DWIDTH 6 0
BBX 5 8 0 0
BITMAP
18
18
18
18
18
18
F8
F8
ENDCHAR
STARTCHAR U+300E
ENCODING 12302
SWIDTH 333 0
DWIDTH 6 0
BBX 5 8 0 3
BITMAP
F8
88
B8
A0
A0
A0
A0
E0
ENDCHAR
STARTCHAR U+300F
ENCODING 12303
SWIDTH 333 0
DWIDTH 6 0
BBX 5 8 0 0
BITMAP
38
28
28
28
28
E8
88
F8
ENDCHAR
STARTCHAR U+3010
ENCODING 12304
SWIDTH 277 0
DWIDTH 5 0
BBX 4 11 0 0
BITMAP
F0
E0
C0
C0
C0
C0
C0
C0
C0
E0
F0
ENDCHAR
STARTCHAR U+3011
ENCODING 12305
SWIDTH 277 0
DWIDTH 5 0
BBX 4 11 0 0
BITMAP
F0
70
30
30
30
30
30
30
30
70
F0
ENDCHAR
STARTCHAR U+301C
ENCODING 12316
SWIDTH 666 0
DWIDTH 12 0
BBX 10 4 0 4
BITMAP
7800
FCC0
CFC0
0780
ENDCHAR
STARTCHAR U+3131
ENCODING 12593
SWIDTH 666 0
DWIDTH 12 0
BBX 9 9 1 1
BITMAP
FF80
FF80
0180
0180
0180
0180
0180
0180
0180
ENDCHAR
STARTCHAR U+3132
ENCODING 12594
SWIDTH 666 0
DWIDTH 12 0
BBX 11 9 0 1
BITMAP
FBE0
FBE0
1860
1860
1860
1860
1860
1860
1860
ENDCHAR
STARTCHAR U+3133
ENCODING 12595
SWIDTH 666 0
DWIDTH 12 0
BBX 11 9 0 1
BITMAP
F980
F980
1980
1BC0
1BC0
1BC0
1FE0
1E60
1E60
ENDCHAR
STARTCHAR U+3134
ENCODING 12596
SWIDTH 666 0
DWIDTH 12 0
BBX 9 9 1 1
BITMAP
C000
C000
C000
C000
C000
C000
C000
FF80
FF80
ENDCHAR
STARTCHAR U+3135
ENCODING 12597
SWIDTH 666 0
DWIDTH 12 0
BBX 11 9 0 1
BITMAP
C7E0
C7E0
C180
C180
C3C0
C3C0
C7E0
FE60
FE60
ENDCHAR
STARTCHAR U+3136
ENCODING 12598
SWIDTH 666 0
DWIDTH 12 0
BBX 11 9 0 1
BITMAP
C180
C180
C7E0
C7E0
C3C0
C660
C660
FFE0
FBC0
ENDCHAR
STARTCHAR U+3137
ENCODING 12599
SWIDTH 666 0
DWIDTH 12 0
BBX 9 9 1 1
BITMAP
FF80
FF80
C000
C000
C000
C000
C000
FF80
FF80
ENDCHAR
STARTCHAR U+3138
ENCODING 12600
SWIDTH 666 0
DWIDTH 12 0
BBX 11 9 0 1
BITMAP
FBE0
FBE0
C300
C300
C300
C300
C300
FBE0
FBE0
ENDCHAR
STARTCHAR U+3139
ENCODING 12601
SWIDTH 666 0
DWIDTH 12 0
BBX 9 9 1 1
BITMAP
FF80
FF80
0180
FF80
FF80
C000
C000
FF80
FF80
ENDCHAR
STARTCHAR U+313A
ENCODING 12602
SWIDTH 666 0
DWIDTH 12 0
BBX 11 9 0 1
BITMAP
FBE0
FBE0
1860
F860
F860
C060
C060
F860
F860
ENDCHAR
STARTCHAR U+313B
ENCODING 12603
SWIDTH 666 0
DWIDTH 12 0
BBX 11 9 0 1
BITMAP
FBE0
FBE0
1B60
FB60
FB60
C360
C360
FBE0
FBE0
ENDCHAR
STARTCHAR U+313C
ENCODING 12604
SWIDTH 666 0
DWIDTH 12 0
BBX 11 9 0 1
BITMAP
FB60
FB60
1B60
FBE0
FBE0
C360
C360
FBE0
FBE0
ENDCHAR
STARTCHAR U+313D
ENCODING 12605
SWIDTH 666 0
DWIDTH 12 0
BBX 11 9 0 1
BITMAP
F980
F980
1980
FBC0
FBC0
C3C0
C7E0
FE60
FE60
ENDCHAR
STARTCHAR U+313E
ENCODING 12606
SWIDTH 666 0
DWIDTH 12 0
BBX 11 9 0 1
BITMAP
FBE0
FBE0
1B00
FBE0
FBE0
C300
C300
FBE0
FBE0
ENDCHAR
STARTCHAR U+313F
ENCODING 12607
SWIDTH 666 0
DWIDTH 12 0
BBX 11 9 0 1
BITMAP
FBE0
FBE0
1800
F940
F940
C140
C140
FBE0
FBE0
ENDCHAR
STARTCHAR U+3140
ENCODING 12608
SWIDTH 666 0
DWIDTH 12 0
BBX 11 9 0 1
BITMAP
F980
F980
1FE0
FFE0
FBC0
C660
C660
FFE0
FBC0
ENDCHAR
STARTCHAR U+3141
ENCODING 12609
SWIDTH 666 0
DWIDTH 12 0
BBX 9 9 1 1
BITMAP
FF80
FF80
C180
C180
C180
C180
C180
FF80
FF80
ENDCHAR
STARTCHAR U+3142
ENCODING 12610
SWIDTH 666 0
DWIDTH 12 0
BBX 9 9 1 1
BITMAP
C180
C180
C180
FF80
FF80
C180
C180
FF80
FF80
ENDCHAR
STARTCHAR U+3143
ENCODING 12611
SWIDTH 666 0
DWIDTH 12 0
BBX 11 9 0 1
BITMAP
DB60
DB60
FBE0
FBE0
DB60
DB60
DB60
FBE0
FBE0
ENDCHAR
STARTCHAR U+3144
ENCODING 12612
SWIDTH 666 0
DWIDTH 12 0
BBX 11 9 0 1
BITMAP
D980
D980
F980
FBC0
DBC0
DBC0
DFE0
FE60
FE60
ENDCHAR
STARTCHAR U+3145
ENCODING 12613
SWIDTH 666 0
DWIDTH 12 0
BBX 9 9 1 1
BITMAP
0800
1C00
1C00
3E00
3600
7700
6300
E380
C180
ENDCHAR
STARTCHAR U+3146
ENCODING 12614
SWIDTH 666 0
DWIDTH 12 0
BBX 9 9 1 1
BITMAP
3600
3600
3600
7700
7F00
7F00
DD80
DD80
DD80
ENDCHAR
STARTCHAR U+3147
ENCODING 12615
SWIDTH 666 0
DWIDTH 12 0
BBX 9 9 1 1
BITMAP
3E00
7F00
E380
C180
C180
C180
E380
7F00
3E00
ENDCHAR
STARTCHAR U+3148
ENCODING 12616
SWIDTH 666 0
DWIDTH 12 0
BBX 9 9 1 1
BITMAP
FF80
FF80
1C00
3E00
3600
7700
6300
E380
C180
ENDCHAR
STARTCHAR U+3149
ENCODING 12617
SWIDTH 666 0
DWIDTH 12 0
BBX 9 9 1 1
BITMAP
FF80
FF80
3600
3600
7700
7F00
7F00
DD80
DD80
ENDCHAR
STARTCHAR U+314A
ENCODING 12618
SWIDTH 666 0
DWIDTH 12 0
BBX 9 9 1 1
BITMAP
3E00
3E00
0000
FF80
FF80
3E00
7700
E380
C180
ENDCHAR
STARTCHAR U+314B
ENCODING 12619
SWIDTH 666 0
DWIDTH 12 0
BBX 9 9 1 1
BITMAP
FF80
FF80
0180
0180
FF80
FF80
0180
0180
0180
ENDCHAR
STARTCHAR U+314C
ENCODING 12620
SWIDTH 666 0
DWIDTH 12 0
BBX 9 9 1 1
BITMAP
FF80
FF80
C000
FF80
FF80
C000
C000
FF80
FF80
ENDCHAR
STARTCHAR U+314D
ENCODING 12621
SWIDTH 666 0
DWIDTH 12 0
BBX 9 9 1 1
BITMAP
FF80
FF80
0000
6300
6300
6300
6300
FF80
FF80
ENDCHAR
STARTCHAR U+314E
ENCODING 12622
SWIDTH 666 0
DWIDTH 12 0
BBX 9 10 1 1
BITMAP
3E00
3E00
0000
FF80
FF80
3E00
6300
6300
7F00
3E00
ENDCHAR
STARTCHAR U+314F
ENCODING 12623
SWIDTH 666 0
DWIDTH 12 0
BBX 4 11 4 0
BITMAP
C0
C0
C0
C0
F0
F0
C0
C0
C0
C0
C0
ENDCHAR
STARTCHAR U+3150
ENCODING 12624
SWIDTH 666 0
DWIDTH 12 0
BBX 6 11 3 0
BITMAP
CC
CC
CC
CC
FC
FC
CC
CC
CC
CC
CC
ENDCHAR
STARTCHAR U+3151
ENCODING 12625
SWIDTH 666 0
DWIDTH 12 0
BBX 4 11 4 0
BITMAP
C0
C0
F0
F0
C0
C0
F0
F0
C0
C0
C0
ENDCHAR
STARTCHAR U+3152
ENCODING 12626
SWIDTH 666 0
DWIDTH 12 0
BBX 6 11 3 0
BITMAP
CC
CC
FC
FC
CC
CC
FC
FC
CC
CC
CC
ENDCHAR
STARTCHAR U+3153
ENCODING 12627
SWIDTH 666 0
DWIDTH 12 0
BBX 4 11 3 0
BITMAP
30
30
30
30
F0
F0
30
30
30
30
30
ENDCHAR
STARTCHAR U+3154
ENCODING 12628
SWIDTH 666 0
DWIDTH 12 0
BBX 7 11 2 0
BITMAP
36
36
36
36
F6
F6
36
36
36
36
36
ENDCHAR
STARTCHAR U+3155
ENCODING 12629
SWIDTH 666 0
DWIDTH 12 0
BBX 4 11 3 0
BITMAP
30
30
F0
F0
30
30
F0
F0
30
30
30
ENDCHAR
STARTCHAR U+3156
ENCODING 12630
SWIDTH 666 0
DWIDTH 12 0
BBX 7 11 2 0
BITMAP
36
36
F6
F6
36
36
F6
F6
36
36
36
ENDCHAR
STARTCHAR U+3157
ENCODING 12631
SWIDTH 666 0
DWIDTH 12 0
BBX 11 7 0 2
BITMAP
0600
0600
0600
0600
0600
FFE0
FFE0
ENDCHAR
STARTCHAR U+3158
ENCODING 12632
SWIDTH 666 0
DWIDTH 12 0
BBX 11 11 0 0
BITMAP
00C0
00C0
00C0
00C0
18E0
18E0
18C0
FFC0
FFC0
00C0
00C0
ENDCHAR
STARTCHAR U+3159
ENCODING 12633
SWIDTH 666 0
DWIDTH 12 0
BBX 10 11 0 0
BITMAP
02C0
02C0
02C0
02C0
33C0
33C0
32C0
FEC0
FEC0
02C0
02C0
ENDCHAR
STARTCHAR U+315A
ENCODING 12634
SWIDTH 666 0
DWIDTH 12 0
BBX 10 11 0 0
BITMAP
00C0
00C0
00C0
00C0
18C0
18C0
18C0
FFC0
FFC0
00C0
00C0
ENDCHAR
STARTCHAR U+315B
ENCODING 12635
SWIDTH 666 0
DWIDTH 12 0
BBX 11 7 0 2
BITMAP
3180
3180
3180
3180
3180
FFE0
FFE0
ENDCHAR
STARTCHAR U+315C
ENCODING 12636
SWIDTH 666 0
DWIDTH 12 0
BBX 11 6 0 2
BITMAP
FFE0
FFE0
0600
0600
0600
0600
ENDCHAR
STARTCHAR U+315D
ENCODING 12637
SWIDTH 666 0
DWIDTH 12 0
BBX 10 11 0 0
BITMAP
00C0
00C0
00C0
00C0
FFC0
FFC0
18C0
1BC0
1BC0
18C0
18C0
ENDCHAR
STARTCHAR U+315E
ENCODING 12638
SWIDTH 666 0
DWIDTH 12 0
BBX 10 11 0 0
BITMAP
02C0
02C0
02C0
02C0
FEC0
FEC0
32C0
36C0
36C0
32C0
32C0
ENDCHAR
STARTCHAR U+315F
ENCODING 12639
SWIDTH 666 0
DWIDTH 12 0
BBX 10 11 0 0
BITMAP
00C0
00C0
00C0
00C0
00C0
FFC0
FFC0
18C0
18C0
18C0
18C0
ENDCHAR
STARTCHAR U+3160
ENCODING 12640
SWIDTH 666 0
DWIDTH 12 0
BBX 11 6 0 2
BITMAP
FFE0
FFE0
3180
3180
3180
3180
ENDCHAR
STARTCHAR U+3161
ENCODING 12641
SWIDTH 666 0
DWIDTH 12 0
BBX 11 2 0 4
BITMAP
FFE0
FFE0
ENDCHAR
STARTCHAR U+3162
ENCODING 12642
SWIDTH 666 0
DWIDTH 12 0
BBX 10 11 0 0
BITMAP
00C0
00C0
00C0
00C0
00C0
00C0
00C0
FFC0
FFC0
00C0
00C0
ENDCHAR
STARTCHAR U+3163
ENCODING 12643
SWIDTH 666 0
DWIDTH 12 0
BBX 2 11 5 0
BITMAP
C0
C0
C0
C0
C0
C0
C0
C0
C0
C0
C0
ENDCHAR
STARTCHAR U+3200
ENCODING 12800
SWIDTH 666 0
DWIDTH 12 0
BBX 11 11 0 0
BITMAP
4040
4040
9F20
8120
8120
8120
8120
8120
8120
4040
4040
ENDCHAR
STARTCHAR U+3201
ENCODING 12801
SWIDTH 666 0
DWIDTH 12 0
BBX 11 11 0 0
BITMAP
4040
4040
9020
9020
9020
9020
9020
9020
9F20
4040
4040
ENDCHAR
STARTCHAR U+3202
ENCODING 12802
SWIDTH 666 0
DWIDTH 12 0
BBX 11 11 0 0
BITMAP
4040
4040
9F20
9020
9020
9020
9020
9020
9F20
4040
4040
ENDCHAR
STARTCHAR U+3203
ENCODING 12803
SWIDTH 666 0
DWIDTH 12 0
BBX 11 11 0 0
BITMAP
4040
4040
9F20
8120
8120
9F20
9020
9020
9F20
4040
4040
ENDCHAR
STARTCHAR U+3204
ENCODING 12804
SWIDTH 666 0
DWIDTH 12 0
BBX 11 11 0 0
BITMAP
4040
4040
9F20
9120
9120
9120
9120
9120
9F20
4040
4040
ENDCHAR
STARTCHAR U+3205
ENCODING 12805
SWIDTH 666 0
DWIDTH 12 0
BBX 11 11 0 0
BITMAP
4040
4040
9120
9120
9F20
9120
9120
9120
9F20
4040
4040
ENDCHAR
STARTCHAR U+3206
ENCODING 12806
SWIDTH 666 0
DWIDTH 12 0
BBX 11 11 0 0
BITMAP
4040
4040
8420
8420
8420
8A20
8A20
9120
9120
4040
4040
ENDCHAR
STARTCHAR U+3207
ENCODING 12807
SWIDTH 666 0
DWIDTH 12 0
BBX 11 11 0 0
BITMAP
4040
4040
8E20
9120
A0A0
A0A0
A0A0
9120
8E20
4040
4040
ENDCHAR
STARTCHAR U+3208
ENCODING 12808
SWIDTH 666 0
DWIDTH 12 0
BBX 11 11 0 0
BITMAP
4040
4040
9F20
8420
8420
8A20
8A20
9120
8020
4040
4040
ENDCHAR
STARTCHAR U+3209
ENCODING 12809
SWIDTH 666 0
DWIDTH 12 0
BBX 11 11 0 0
BITMAP
4040
4040
8E20
8020
9F20
8420
8420
8A20
9120
4040
4040
ENDCHAR
STARTCHAR U+320A
ENCODING 12810
SWIDTH 666 0
DWIDTH 12 0
BBX 11 11 0 0
BITMAP
4040
4040
9F20
8120
8120
9F20
8120
8120
8120
4040
4040
ENDCHAR
STARTCHAR U+320B
ENCODING 12811
SWIDTH 666 0
DWIDTH 12 0
BBX 11 11 0 0
BITMAP
4040
4040
9F20
9020
9020
9F20
9020
9020
9F20
4040
4040
ENDCHAR
STARTCHAR U+320C
ENCODING 12812
SWIDTH 666 0
DWIDTH 12 0
BBX 11 11 0 0
BITMAP
4040
4040
9F20
8A20
8A20
8A20
8A20
8A20
9F20
4040
4040
ENDCHAR
STARTCHAR U+320D
ENCODING 12813
SWIDTH 666 0
DWIDTH 12 0
BBX 11 11 0 0
BITMAP
4040
4040
8E20
8020
9F20
8E20
9120
9120
8E20
4040
4040
ENDCHAR
STARTCHAR U+320E
ENCODING 12814
SWIDTH 666 0
DWIDTH 12 0
BBX 11 11 0 0
BITMAP
4040
4040
BD20
8520
8520
85A0
8920
B120
8120
4040
4040
ENDCHAR
STARTCHAR U+320F
ENCODING 12815
SWIDTH 666 0
DWIDTH 12 0
BBX 11 11 0 0
BITMAP
4040
4040
A120
A120
A120
A1A0
A120
BD20
8120
4040
4040
ENDCHAR
STARTCHAR U+3210
ENCODING 12816
SWIDTH 666 0
DWIDTH 12 0
BBX 11 11 0 0
BITMAP
4040
4040
BD20
A120
A120
A1A0
A120
BD20
8120
4040
4040
ENDCHAR
STARTCHAR U+3211
ENCODING 12817
SWIDTH 666 0
DWIDTH 12 0
BBX 11 11 0 0
BITMAP
4040
4040
BD20
8520
BD20
A1A0
A120
BD20
8120
4040
4040
ENDCHAR
STARTCHAR U+3212
ENCODING 12818
SWIDTH 666 0
DWIDTH 12 0
BBX 11 11 0 0
BITMAP
4040
4040
BD20
A520
A520
A5A0
A520
BD20
8120
4040
4040
ENDCHAR
STARTCHAR U+3213
ENCODING 12819
SWIDTH 666 0
DWIDTH 12 0
BBX 11 11 0 0
BITMAP
4040
4040
A520
A520
BD20
A5A0
A520
BD20
8120
4040
4040
ENDCHAR
STARTCHAR U+3214
ENCODING 12820
SWIDTH 666 0
DWIDTH 12 0
BBX 11 11 0 0
BITMAP
4040
4040
9120
9120
9120
A9A0
A920
A520
8120
4040
4040
ENDCHAR
STARTCHAR U+3215
ENCODING 12821
SWIDTH 666 0
DWIDTH 12 0
BBX 11 11 0 0
BITMAP
4040
4040
9920
A520
A520
A5A0
A520
9920
8120
4040
4040
ENDCHAR
STARTCHAR U+3216
ENCODING 12822
SWIDTH 666 0
DWIDTH 12 0
BBX 11 11 0 0
BITMAP
4040
4040
BD20
9120
9120
A9A0
A920
A520
8120
4040
4040
ENDCHAR
STARTCHAR U+3217
ENCODING 12823
SWIDTH 666 0
DWIDTH 12 0
BBX 11 11 0 0
BITMAP
4040
4040
9120
BD20
9120
A9A0
A920
A520
8120
4040
4040
ENDCHAR
STARTCHAR U+3218
ENCODING 12824
SWIDTH 666 0
DWIDTH 12 0
BBX 11 11 0 0
BITMAP
4040
4040
BD20
8520
BD20
85A0
8920
B120
8120
4040
4040
ENDCHAR
STARTCHAR U+3219
ENCODING 12825
SWIDTH 666 0
DWIDTH 12 0
BBX 11 11 0 0
BITMAP
4040
4040
BD20
A120
BD20
A1A0
A120
BD20
8120
4040
4040
ENDCHAR
STARTCHAR U+321A
ENCODING 12826
SWIDTH 666 0
DWIDTH 12 0
BBX 11 11 0 0
BITMAP
4040
4040
BF20
9520
9520
95A0
9520
BF20
8120
4040
4040
ENDCHAR
STARTCHAR U+321B
ENCODING 12827
SWIDTH 666 0
DWIDTH 12 0
BBX 11 11 0 0
BITMAP
4040
4040
9120
BD20
9920
A5A0
A520
9920
8120
4040
4040
ENDCHAR
STARTCHAR U+321C
ENCODING 12828
SWIDTH 666 0
DWIDTH 12 0
BBX 11 11 0 0
BITMAP
4040
5F40
8420
8A20
9120
8020
BFA0
8420
8420
4440
4040
ENDCHAR
STARTCHAR U+3232
ENCODING 12850
SWIDTH 666 0
DWIDTH 12 0
BBX 11 11 0 0
BITMAP
4040
5140
9520
BFE0
9120
BFE0
D3A0
9560
9920
5140
4040
ENDCHAR
STARTCHAR U+3233
ENCODING 12851
SWIDTH 666 0
DWIDTH 12 0
BBX 11 11 0 0
BITMAP
4040
4440
BFA0
8820
8F20
9920
AF20
8920
8F20
4940
4040
ENDCHAR
STARTCHAR U+3239
ENCODING 12857
SWIDTH 666 0
DWIDTH 12 0
BBX 11 11 0 0
BITMAP
4040
5240
92A0
9FA0
B220
D220
9220
9120
9120
5140
4040
ENDCHAR
STARTCHAR U+3260
ENCODING 12896
SWIDTH 666 0
DWIDTH 12 0
BBX 11 11 0 0
BITMAP
1F00
2080
4040
9F20
8120
8120
8120
8120
4040
2080
1F00
ENDCHAR
STARTCHAR U+3261
ENCODING 12897
SWIDTH 666 0
DWIDTH 12 0
BBX 11 11 0 0
BITMAP
1F00
2080
4040
9020
9020
9020
9020
9F20
4040
2080
1F00
ENDCHAR
STARTCHAR U+3262
ENCODING 12898
SWIDTH 666 0
DWIDTH 12 0
BBX 11 11 0 0
BITMAP
1F00
2080
4040
9F20
9020
9020
9020
9F20
4040
2080
1F00
ENDCHAR
STARTCHAR U+3263
ENCODING 12899
SWIDTH 666 0
DWIDTH 12 0
BBX 11 11 0 0
BITMAP
1F00
2080
4040
9F20
8120
9F20
9020
9F20
4040
2080
1F00
ENDCHAR
STARTCHAR U+3264
ENCODING 12900
SWIDTH 666 0
DWIDTH 12 0
BBX 11 11 0 0
BITMAP
1F00
2080
4040
9F20
9120
9120
9120
9F20
4040
2080
1F00
ENDCHAR
STARTCHAR U+3265
ENCODING 12901
SWIDTH 666 0
DWIDTH 12 0
BBX 11 11 0 0
BITMAP
1F00
2080
4040
9120
9F20
9120
9120
9F20
4040
2080
1F00
ENDCHAR
STARTCHAR U+3266
ENCODING 12902
SWIDTH 666 0
DWIDTH 12 0
BBX 11 11 0 0
BITMAP
1F00
2080
4040
8420
8420
8A20
9120
8020
4040
2080
1F00
ENDCHAR
STARTCHAR U+3267
ENCODING 12903
SWIDTH 666 0
DWIDTH 12 0
BBX 11 11 0 0
BITMAP
1F00
2080
4040
8E20
9120
9120
9120
8E20
4040
2080
1F00
ENDCHAR
STARTCHAR U+3268
ENCODING 12904
SWIDTH 666 0
DWIDTH 12 0
BBX 11 11 0 0
BITMAP
1F00
2080
4040
9F20
8420
8420
8A20
9120
4040
2080
1F00
ENDCHAR
STARTCHAR U+3269
ENCODING 12905
SWIDTH 666 0
DWIDTH 12 0
BBX 11 11 0 0
BITMAP
1F00
2080
4040
8420
9F20
8420
8A20
9120
4040
2080
1F00
ENDCHAR
STARTCHAR U+326A
ENCODING 12906
SWIDTH 666 0
DWIDTH 12 0
BBX 11 11 0 0
BITMAP
1F00
2080
4040
9F20
8120
9F20
8120
8120
4040
2080
1F00
ENDCHAR
STARTCHAR U+326B
ENCODING 12907
SWIDTH 666 0
DWIDTH 12 0
BBX 11 11 0 0
BITMAP
1F00
2080
4040
9F20
9020
9F20
9020
9F20
4040
2080
1F00
ENDCHAR
STARTCHAR U+326C
ENCODING 12908
SWIDTH 666 0
DWIDTH 12 0
BBX 11 11 0 0
BITMAP
1F00
2080
4040
9F20
8A20
8A20
8A20
9F20
4040
2080
1F00
ENDCHAR
STARTCHAR U+326D
ENCODING 12909
SWIDTH 666 0
DWIDTH 12 0
BBX 11 11 0 0
BITMAP
1F00
2080
4040
8420
9F20
8E20
9120
8E20
4040
2080
1F00
ENDCHAR
STARTCHAR U+326E
ENCODING 12910
SWIDTH 666 0
DWIDTH 12 0
BBX 11 11 0 0
BITMAP
1F00
2080
4040
9D20
8520
85A0
8920
9120
4040
2080
1F00
ENDCHAR
STARTCHAR U+326F
ENCODING 12911
SWIDTH 666 0
DWIDTH 12 0
BBX 11 11 0 0
BITMAP
1F00
2080
4040
9120
9120
91A0
9120
9D20
4040
2080
1F00
ENDCHAR
STARTCHAR U+3270
ENCODING 12912
SWIDTH 666 0
DWIDTH 12 0
BBX 11 11 0 0
BITMAP
1F00
2080
4040
9D20
9120
91A0
9120
9D20
4040
2080
1F00
ENDCHAR
STARTCHAR U+3271
ENCODING 12913
SWIDTH 666 0
DWIDTH 12 0
BBX 11 11 0 0
BITMAP
1F00
2080
4040
9D20
8520
9DA0
9120
9D20
4040
2080
1F00
ENDCHAR
STARTCHAR U+3272
ENCODING 12914
SWIDTH 666 0
DWIDTH 12 0
BBX 11 11 0 0
BITMAP
1F00
2080
4040
9D20
9520
95A0
9520
9D20
4040
2080
1F00
ENDCHAR
STARTCHAR U+3273
ENCODING 12915
SWIDTH 666 0
DWIDTH 12 0
BBX 11 11 0 0
BITMAP
1F00
2080
4040
9520
9520
9DA0
9520
9D20
4040
2080
1F00
ENDCHAR
STARTCHAR U+3274
ENCODING 12916
SWIDTH 666 0
DWIDTH 12 0
BBX 11 11 0 0
BITMAP
1F00
2080
4040
8920
8920
89A0
9520
9520
4040
2080
1F00
ENDCHAR
STARTCHAR U+3275
ENCODING 12917
SWIDTH 666 0
DWIDTH 12 0
BBX 11 11 0 0
BITMAP
1F00
2080
4040
8920
9520
95A0
9520
8920
4040
2080
1F00
ENDCHAR
STARTCHAR U+3276
ENCODING 12918
SWIDTH 666 0
DWIDTH 12 0
BBX 11 11 0 0
BITMAP
1F00
2080
4040
9D20
8920
89A0
9520
9520
4040
2080
1F00
ENDCHAR
STARTCHAR U+3277
ENCODING 12919
SWIDTH 666 0
DWIDTH 12 0
BBX 11 11 0 0
BITMAP
1F00
2080
4040
8920
9D20
89A0
8920
9520
4040
2080
1F00
ENDCHAR
STARTCHAR U+3278
ENCODING 12920
SWIDTH 666 0
DWIDTH 12 0
BBX 11 11 0 0
BITMAP
1F00
2080
4040
9D20
8520
9DA0
8920
9120
4040
2080
1F00
ENDCHAR
STARTCHAR U+3279
ENCODING 12921
SWIDTH 666 0
DWIDTH 12 0
BBX 11 11 0 0
BITMAP
1F00
2080
4040
9D20
9120
9DA0
9120
9D20
4040
2080
1F00
ENDCHAR
STARTCHAR U+327A
ENCODING 12922
SWIDTH 666 0
DWIDTH 12 0
BBX 11 11 0 0
BITMAP
1F00
2080
4040
BF20
9520
95A0
9520
BF20
4040
2080
1F00
ENDCHAR
STARTCHAR U+327B
ENCODING 12923
SWIDTH 666 0
DWIDTH 12 0
BBX 11 11 0 0
BITMAP
1F00
2080
4040
8920
9D20
89A0
9520
8920
4040
2080
1F00
ENDCHAR
STARTCHAR U+327E
ENCODING 12926
SWIDTH 666 0
DWIDTH 12 0
BBX 11 11 0 0
BITMAP
1F00
2080
4E40
9120
8E20
8020
BFA0
8420
4440
2080
1F00
ENDCHAR
STARTCHAR U+327F
ENCODING 12927
SWIDTH 666 0
DWIDTH 12 0
BBX 11 11 0 0
BITMAP
1F00
2080
4040
8920
8A00
ECE0
0A20
8920
4040
2080
1F00
ENDCHAR
STARTCHAR U+32A4
ENCODING 12964
SWIDTH 666 0
DWIDTH 12 0
BBX 11 11 0 0
BITMAP
1F00
2080
4440
8420
8720
8420
8420
BFA0
4040
2080
1F00
ENDCHAR
STARTCHAR U+32A5
ENCODING 12965
SWIDTH 666 0
DWIDTH 12 0
BBX 11 11 0 0
BITMAP
1F00
2080
4440
BFA0
A4A0
A4A0
BFA0
8420
4440
2080
1F00
ENDCHAR
STARTCHAR U+32A6
ENCODING 12966
SWIDTH 666 0
DWIDTH 12 0
BBX 11 11 0 0
BITMAP
1F00
2080
4040
BFA0
8420
8620
8520
8420
4440
2080
1F00
ENDCHAR
STARTCHAR U+32A7
ENCODING 12967
SWIDTH 666 0
DWIDTH 12 0
BBX 11 11 0 0
BITMAP
1F00
2080
4840
BFA0
9020
9F20
A420
C420
5F40
2080
1F00
ENDCHAR
STARTCHAR U+32A8
ENCODING 12968
SWIDTH 666 0
DWIDTH 12 0
BBX 11 11 0 0
BITMAP
1F00
2080
4840
BFA0
9020
9F20
B120
D120
5F40
2080
1F00
ENDCHAR
STARTCHAR U+3303
ENCODING 13059
SWIDTH 666 0
DWIDTH 12 0
BBX 11 11 0 0
BITMAP
F800
0800
33E0
2000
C000
0000
5000
5000
5400
5400
9800
ENDCHAR
STARTCHAR U+330D
ENCODING 13069
SWIDTH 666 0
DWIDTH 12 0
BBX 11 11 0 0
BITMAP
43E0
FA20
4A20
4A20
9BE0
0000
8800
8800
8BE0
1000
2000
ENDCHAR
STARTCHAR U+3314
ENCODING 13076
SWIDTH 666 0
DWIDTH 12 0
BBX 10 11 1 0
BITMAP
2000
F800
2000
FC00
1000
1000
07C0
0440
0440
0440
07C0
ENDCHAR
STARTCHAR U+3318
ENCODING 13080
SWIDTH 666 0
DWIDTH 12 0
BBX 11 11 0 0
BITMAP
75C0
4800
8BE0
1020
61C0
0000
2000
4000
5000
8800
F800
ENDCHAR
STARTCHAR U+3322
ENCODING 13090
SWIDTH 666 0
DWIDTH 12 0
BBX 10 11 0 0
BITMAP
4200
F900
4840
4080
3B00
0000
7800
1000
FC00
1000
2000
ENDCHAR
STARTCHAR U+3323
ENCODING 13091
SWIDTH 666 0
DWIDTH 12 0
BBX 11 11 0 0
BITMAP
4100
F880
4820
4040
3980
0000
2000
2000
3000
2800
2000
ENDCHAR
STARTCHAR U+3326
ENCODING 13094
SWIDTH 666 0
DWIDTH 12 0
BBX 9 11 1 0
BITMAP
A800
8000
C000
A000
8000
8000
0A00
0A00
0A80
0A80
1300
ENDCHAR
STARTCHAR U+3327
ENCODING 13095
SWIDTH 666 0
DWIDTH 12 0
BBX 9 11 1 0
BITMAP
8000
8000
C000
A000
8000
8000
0400
0200
0080
0100
0600
ENDCHAR
STARTCHAR U+332B
ENCODING 13099
SWIDTH 666 0
DWIDTH 12 0
BBX 11 11 0 0
BITMAP
5400
5000
53E0
5000
8800
0000
4440
F240
5060
4140
7640
ENDCHAR
STARTCHAR U+3336
ENCODING 13110
SWIDTH 666 0
DWIDTH 12 0
BBX 11 11 0 0
BITMAP
21E0
5120
9220
0840
0580
0000
7140
5140
B740
1140
6260
ENDCHAR
STARTCHAR U+333B
ENCODING 13115
SWIDTH 666 0
DWIDTH 12 0
BBX 11 11 0 0
BITMAP
0800
2000
51E0
8800
0400
0000
D400
0000
C800
1000
E000
ENDCHAR
STARTCHAR U+3349
ENCODING 13129
SWIDTH 666 0
DWIDTH 12 0
BBX 10 11 1 0
BITMAP
C000
3000
C000
3000
C000
3240
0240
0240
0240
0080
0100
ENDCHAR
STARTCHAR U+334A
ENCODING 13130
SWIDTH 666 0
DWIDTH 12 0
BBX 11 11 0 0
BITMAP
F220
0220
F220
0040
F080
0000
5940
5140
5740
5140
8A60
ENDCHAR
STARTCHAR U+334D
ENCODING 13133
SWIDTH 666 0
DWIDTH 12 0
BBX 11 11 0 0
BITMAP
0800
5000
23E0
5000
8000
0000
4280
4280
62A0
52A0
44C0
ENDCHAR
STARTCHAR U+3351
ENCODING 13137
SWIDTH 666 0
DWIDTH 12 0
BBX 11 11 0 0
BITMAP
8800
8AA0
8AA0
1020
21C0
0000
4280
4280
62A0
52A0
44C0
ENDCHAR
STARTCHAR U+3357
ENCODING 13143
SWIDTH 666 0
DWIDTH 12 0
BBX 11 11 0 0
BITMAP
F800
8AA0
8AA0
0820
31C0
0000
2000
2000
3000
2800
2000
ENDCHAR
STARTCHAR U+337B
ENCODING 13179
SWIDTH 666 0
DWIDTH 12 0
BBX 11 11 0 0
BITMAP
F8A0
2080
ABE0
AA80
AA80
23A0
FAA0
22C0
2280
24C0
2520
ENDCHAR
STARTCHAR U+337C
ENCODING 13180
SWIDTH 666 0
DWIDTH 12 0
BBX 11 11 0 0
BITMAP
FF00
AAE0
AAA0
AFA0
FAA0
A2A0
BBA0
AEA0
EAA0
2AE0
3A00
ENDCHAR
STARTCHAR U+337D
ENCODING 13181
SWIDTH 666 0
DWIDTH 12 0
BBX 11 11 0 0
BITMAP
27E0
2080
F880
2080
2280
22E0
5280
5280
5280
8A80
8FE0
ENDCHAR
STARTCHAR U+337E
ENCODING 13182
SWIDTH 666 0
DWIDTH 12 0
BBX 11 11 0 0
BITMAP
3A40
E940
A880
BAA0
E9E0
A800
B8E0
E9A0
2AA0
2AA0
48E0
ENDCHAR
STARTCHAR U+338E
ENCODING 13198
SWIDTH 666 0
DWIDTH 12 0
BBX 10 8 0 0
BITMAP
D180
AA40
AA40
AA40
A9C0
A840
AA40
A980
ENDCHAR
STARTCHAR U+338F
ENCODING 13199
SWIDTH 666 0
DWIDTH 12 0
BBX 10 11 0 0
BITMAP
8000
8000
8000
8980
9240
A240
C240
C1C0
A040
9240
8980
ENDCHAR
STARTCHAR U+339C
ENCODING 13212
SWIDTH 666 0
DWIDTH 12 0
BBX 11 8 0 0
BITMAP
D340
AAA0
AAA0
AAA0
AAA0
AAA0
AAA0
AAA0
ENDCHAR
STARTCHAR U+339D
ENCODING 13213
SWIDTH 666 0
DWIDTH 12 0
BBX 10 8 1 0
BITMAP
6680
9540
9540
8540
8540
9540
9540
6540
ENDCHAR
STARTCHAR U+339E
ENCODING 13214
SWIDTH 666 0
DWIDTH 12 0
BBX 11 11 0 0
BITMAP
8000
8000
8000
8B40
92A0
A2A0
C2A0
C2A0
A2A0
92A0
8AA0
ENDCHAR
STARTCHAR U+33A1
ENCODING 13217
SWIDTH 666 0
DWIDTH 12 0
BBX 11 11 0 0
BITMAP
00C0
0020
0040
ECE0
9200
9200
9200
9200
9200
9200
9200
ENDCHAR
STARTCHAR U+33A5
ENCODING 13221
SWIDTH 666 0
DWIDTH 12 0
BBX 11 11 0 0
BITMAP
00C0
0020
00C0
EC20
92C0
9200
9200
9200
9200
9200
9200
ENDCHAR
STARTCHAR U+33C4
ENCODING 13252
SWIDTH 666 0
DWIDTH 12 0
BBX 9 8 1 0
BITMAP
6300
9480
9400
8400
8400
9400
9480
6300
ENDCHAR
STARTCHAR U+33CD
ENCODING 13261
SWIDTH 666 0
DWIDTH 12 0
BBX 11 11 0 0
BITMAP
9480
9480
9480
A500
A500
C600
C600
A500
A500
9480
94A0
ENDCHAR
STARTCHAR U+AC00
ENCODING 44032
SWIDTH 666 0
DWIDTH 12 0
BBX 11 11 0 0
BITMAP
FCC0
FCC0
0CC0
0CC0
0CE0
1CE0
18C0
38C0
F0C0
E0C0
00C0
ENDCHAR
STARTCHAR U+AC01
ENCODING 44033
SWIDTH 666 0
DWIDTH 12 0
BBX 11 11 0 0
BITMAP
FCC0
FCC0
0CE0
1CE0
F8C0
F0C0
0000
7FC0
7FC0
00C0
00C0
ENDCHAR
STARTCHAR U+AC02
ENCODING 44034
SWIDTH 666 0
DWIDTH 12 0
BBX 11 11 0 0
BITMAP
FCC0
FCC0
0CE0
1CE0
F8C0
F0C0
0000
7FC0
7FC0
0CC0
0CC0
ENDCHAR
STARTCHAR U+AC03
ENCODING 44035
SWIDTH 666 0
DWIDTH 12 0
BBX 11 11 0 0
BITMAP
FCC0
FCC0
0CE0
1CE0
F8C0
F0C0
0000
7980
7980
1BC0
1AC0
ENDCHAR
STARTCHAR U+AC04
ENCODING 44036
SWIDTH 666 0
DWIDTH 12 0
BBX 11 11 0 0
BITMAP
FCC0
FCC0
0CE0
1CE0
F8C0
F0C0
00C0
6000
6000
7FC0
7FC0
ENDCHAR
STARTCHAR U+AC05
ENCODING 44037
SWIDTH 666 0
DWIDTH 12 0
BBX 11 11 0 0
BITMAP
FCC0
FCC0
0CE0
1CE0
F8C0
F0C0
0000
67C0
6380
7FC0
7EC0
ENDCHAR
STARTCHAR U+AC06
ENCODING 44038
SWIDTH 666 0
DWIDTH 12 0
BBX 11 11 0 0
BITMAP
FCC0
FCC0
0CE0
1CE0
F8C0
F0C0
0300
6FE0
66C0
7FC0
7B80
ENDCHAR
STARTCHAR U+AC07
ENCODING 44039
SWIDTH 666 0
DWIDTH 12 0
BBX 11 11 0 0
BITMAP
FCC0
FCC0
0CE0
1CE0
F8C0
F0C0
0000
7FC0
6000
7FC0
7FC0
ENDCHAR
STARTCHAR U+AC08
ENCODING 44040
SWIDTH 666 0
DWIDTH 12 0
BBX 11 11 0 0
BITMAP
FCC0
FCC0
0CE0
1CE0
F8C0
F0C0
7FC0
07C0
7800
7FC0
7FC0
ENDCHAR
STARTCHAR U+AC09
ENCODING 44041
SWIDTH 666 0
DWIDTH 12 0
BBX 11 11 0 0
BITMAP
FCC0
FCC0
0CE0
1CE0
F8C0
F0C0
7BC0
1BC0
60C0
78C0
78C0
ENDCHAR
STARTCHAR U+AC0A
ENCODING 44042
SWIDTH 666 0
DWIDTH 12 0
BBX 11 11 0 0
BITMAP
FCC0
FCC0
0CE0
1CE0
F8C0
F0C0
7BC0
1AC0
62C0
7BC0
7BC0
ENDCHAR
STARTCHAR U+AC0B
ENCODING 44043
SWIDTH 666 0
DWIDTH 12 0
BBX 11 11 0 0
BITMAP
FCC0
FCC0
0CE0
1CE0
F8C0
F0C0
7AC0
1BC0
62C0
7BC0
7BC0
ENDCHAR
STARTCHAR U+AC0C
ENCODING 44044
SWIDTH 666 0
DWIDTH 12 0
BBX 11 11 0 0
BITMAP
FCC0
FCC0
0CE0
1CE0
F8C0
F0C0
7980
1980
6180
7BC0
7AC0
ENDCHAR
STARTCHAR U+AC0D
ENCODING 44045
SWIDTH 666 0
DWIDTH 12 0
BBX 11 11 0 0
BITMAP
FCC0
FCC0
0CE0
1CE0
F8C0
F0C0
7BC0
1B00
63C0
7B00
7BC0
ENDCHAR
STARTCHAR U+AC0E
ENCODING 44046
SWIDTH 666 0
DWIDTH 12 0
BBX 11 11 0 0
BITMAP
FCC0
FCC0
0CE0
1CE0
F8C0
F0C0
7FC0
1A80
6280
7FC0
7FC0
ENDCHAR
STARTCHAR U+AC0F
ENCODING 44047
SWIDTH 666 0
DWIDTH 12 0
BBX 11 11 0 0
BITMAP
FCC0
FCC0
0CE0
1CE0
F8C0
F1C0
7FC0
1B80
66C0
7FC0
7B80
ENDCHAR
STARTCHAR U+AC10
ENCODING 44048
SWIDTH 666 0
DWIDTH 12 0
BBX 11 11 0 0
BITMAP
FCC0
FCC0
0CE0
1CE0
F8C0
F0C0
0000
7FC0
60C0
7FC0
7FC0
ENDCHAR
STARTCHAR U+AC11
ENCODING 44049
SWIDTH 666 0
DWIDTH 12 0
BBX 11 11 0 0
BITMAP
FCC0
FCC0
0CE0
1CE0
F8C0
F0C0
60C0
7FC0
60C0
7FC0
7FC0
ENDCHAR
STARTCHAR U+AC12
ENCODING 44050
SWIDTH 666 0
DWIDTH 12 0
BBX 11 11 0 0
BITMAP
FCC0
FCC0
0CE0
1CE0
F8C0
F0C0
0000
6D80
7D80
6FC0
7EC0
ENDCHAR
STARTCHAR U+AC13
ENCODING 44051
SWIDTH 666 0
DWIDTH 12 0
BBX 11 11 0 0
BITMAP
FCC0
FCC0
0CE0
1CE0
F8C0
F0C0
04C0
0E00
1F00
7BC0
71C0
ENDCHAR
STARTCHAR U+AC14
ENCODING 44052
SWIDTH 666 0
DWIDTH 12 0
BBX 11 11 0 0
BITMAP
FCC0
FCC0
0CE0
1CE0
F8C0
F0C0
0000
1100
3B80
7FC0
6EC0
ENDCHAR
STARTCHAR U+AC15
ENCODING 44053
SWIDTH 666 0
DWIDTH 12 0
BBX 11 11 0 0
BITMAP
FCC0
FCC0
0CE0
1CE0
F8C0
F0C0
0000
3F80
60C0
7FC0
3F80
ENDCHAR
STARTCHAR U+AC16
ENCODING 44054
SWIDTH 666 0
DWIDTH 12 0
BBX 11 11 0 0
BITMAP
FCC0
FCC0
0CE0
1CE0
F8C0
F0C0
0000
7FC0
1F00
7BC0
71C0
ENDCHAR
STARTCHAR U+AC17
ENCODING 44055
SWIDTH 666 0
DWIDTH 12 0
BBX 11 11 0 0
BITMAP
FCC0
FCC0
0CE0
1CE0
F8C0
F0C0
0600
7FC0
1F00
7BC0
71C0
ENDCHAR
STARTCHAR U+AC18
ENCODING 44056
SWIDTH 666 0
DWIDTH 12 0
BBX 11 11 0 0
BITMAP
FCC0
FCC0
0CE0
1CE0
F8C0
F0C0
0000
7FC0
00C0
7FC0
00C0
ENDCHAR
STARTCHAR U+AC19
ENCODING 44057
SWIDTH 666 0
DWIDTH 12 0
BBX 11 11 0 0
BITMAP
FCC0
FCC0
0CE0
1CE0
F8C0
FFC0
6000
7FC0
6000
7FC0
7FC0
ENDCHAR
STARTCHAR U+AC1A
ENCODING 44058
SWIDTH 666 0
DWIDTH 12 0
BBX 11 11 0 0
BITMAP
FCC0
FCC0
0CE0
1CE0
F8C0
F0C0
0000
7FC0
3180
7FC0
7FC0
ENDCHAR
STARTCHAR U+AC1B
ENCODING 44059
SWIDTH 666 0
DWIDTH 12 0
BBX 11 11 0 0
BITMAP
FCC0
FCC0
0CE0
1CE0
F8C0
F0C0
0600
7FC0
3180
3F80
1F00
ENDCHAR
STARTCHAR U+AC1C
ENCODING 44060
SWIDTH 666 0
DWIDTH 12 0
BBX 10 11 0 0
BITMAP
FAC0
FAC0
1AC0
1AC0
1BC0
3BC0
32C0
72C0
E2C0
C2C0
02C0
ENDCHAR
STARTCHAR U+AC1D
ENCODING 44061
SWIDTH 666 0
DWIDTH 12 0
BBX 10 11 0 0
BITMAP
FAC0
FAC0
1BC0
3BC0
F2C0
E2C0
0000
7FC0
7FC0
00C0
00C0
ENDCHAR
STARTCHAR U+AC1E
ENCODING 44062
SWIDTH 666 0
DWIDTH 12 0
BBX 10 11 0 0
BITMAP
FAC0
FAC0
1BC0
3BC0
F2C0
E2C0
0000
7FC0
7FC0
0CC0
0CC0
ENDCHAR
STARTCHAR U+AC1F
ENCODING 44063
SWIDTH 666 0
DWIDTH 12 0
BBX 10 11 0 0
BITMAP
FAC0
FAC0
1BC0
3BC0
F2C0
E2C0
0000
7980
7980
1BC0
1AC0
ENDCHAR
STARTCHAR U+AC20
ENCODING 44064
SWIDTH 666 0
DWIDTH 12 0
BBX 10 11 0 0
BITMAP
FAC0
FAC0
1BC0
3BC0
F2C0
E2C0
02C0
6000
6000
7FC0
7FC0
ENDCHAR
STARTCHAR U+AC21
ENCODING 44065
SWIDTH 666 0
DWIDTH 12 0
BBX 10 11 0 0
BITMAP
FAC0
FAC0
1BC0
3BC0
F2C0
E2C0
0000
67C0
6380
7FC0
7EC0
ENDCHAR
STARTCHAR U+AC22
ENCODING 44066
SWIDTH 666 0
DWIDTH 12 0
BBX 11 11 0 0
BITMAP
FAC0
FAC0
1BC0
3BC0
F2C0
E2C0
0180
6FE0
66C0
7FC0
7B80
ENDCHAR
STARTCHAR U+AC23
ENCODING 44067
SWIDTH 666 0
DWIDTH 12 0
BBX 10 11 0 0
BITMAP
FAC0
FAC0
1BC0
3BC0
F2C0
E2C0
0000
7FC0
6000
7FC0
7FC0
ENDCHAR
STARTCHAR U+AC24
ENCODING 44068
SWIDTH 666 0
DWIDTH 12 0
BBX 10 11 0 0
BITMAP
FAC0
FAC0
1BC0
3BC0
F2C0
E2C0
7FC0
07C0
7800
7FC0
7FC0
ENDCHAR
STARTCHAR U+AC25
ENCODING 44069
SWIDTH 666 0
DWIDTH 12 0
BBX 10 11 0 0
BITMAP
FAC0
FAC0
1BC0
3BC0
F2C0
E2C0
7BC0
1BC0
60C0
78C0
78C0
ENDCHAR
STARTCHAR U+AC26
ENCODING 44070
SWIDTH 666 0
DWIDTH 12 0
BBX 10 11 0 0
BITMAP
FAC0
FAC0
1BC0
3BC0
F2C0
E2C0
7BC0
1AC0
62C0
7BC0
7BC0
ENDCHAR
STARTCHAR U+AC27
ENCODING 44071
SWIDTH 666 0
DWIDTH 12 0
BBX 10 11 0 0
BITMAP
FAC0
FAC0
1BC0
3BC0
F2C0
E2C0
7AC0
1BC0
62C0
7BC0
7BC0
ENDCHAR
STARTCHAR U+AC28
ENCODING 44072
SWIDTH 666 0
DWIDTH 12 0
BBX 10 11 0 0
BITMAP
FAC0
FAC0
1BC0
3BC0
F2C0
E2C0
7980
1980
6180
7BC0
7AC0
ENDCHAR
STARTCHAR U+AC29
ENCODING 44073
SWIDTH 666 0
DWIDTH 12 0
BBX 10 11 0 0
BITMAP
FAC0
FAC0
1BC0
3BC0
F2C0
E2C0
7BC0
1B00
63C0
7B00
7BC0
ENDCHAR
STARTCHAR U+AC2A
ENCODING 44074
SWIDTH 666 0
DWIDTH 12 0
BBX 10 11 0 0
BITMAP
FAC0
FAC0
1BC0
3BC0
F2C0
E2C0
7FC0
1A80
6280
7FC0
7FC0
ENDCHAR
STARTCHAR U+AC2B
ENCODING 44075
SWIDTH 666 0
DWIDTH 12 0
BBX 10 11 0 0
BITMAP
FAC0
FAC0
1BC0
3BC0
F2C0
E3C0
7FC0
1B80
66C0
7FC0
7B80
ENDCHAR
STARTCHAR U+AC2C
ENCODING 44076
SWIDTH 666 0
DWIDTH 12 0
BBX 10 11 0 0
BITMAP
FAC0
FAC0
1BC0
3BC0
F2C0
E2C0
0000
7FC0
60C0
7FC0
7FC0
ENDCHAR
STARTCHAR U+AC2D
ENCODING 44077
SWIDTH 666 0
DWIDTH 12 0
BBX 10 11 0 0
BITMAP
FAC0
FAC0
1BC0
3BC0
F2C0
E2C0
60C0
7FC0
60C0
7FC0
7FC0
ENDCHAR
STARTCHAR U+AC2E
ENCODING 44078
SWIDTH 666 0
DWIDTH 12 0
BBX 10 11 0 0
BITMAP
FAC0
FAC0
1BC0
3BC0
F2C0
E2C0
0000
6D80
7D80
6FC0
7EC0
ENDCHAR
STARTCHAR U+AC2F
ENCODING 44079
SWIDTH 666 0
DWIDTH 12 0
BBX 10 11 0 0
BITMAP
FAC0
FAC0
1BC0
3BC0
F2C0
E2C0
0400
0E00
1F00
7BC0
71C0
ENDCHAR
STARTCHAR U+AC30
ENCODING 44080
SWIDTH 666 0
DWIDTH 12 0
BBX 10 11 0 0
BITMAP
FAC0
FAC0
1BC0
3BC0
F2C0
E2C0
0000
1100
3B80
7FC0
6EC0
ENDCHAR
STARTCHAR U+AC31
ENCODING 44081
SWIDTH 666 0
DWIDTH 12 0
BBX 10 11 0 0
BITMAP
FAC0
FAC0
1BC0
3BC0
F2C0
E2C0
0000
3F80
60C0
7FC0
3F80
ENDCHAR
STARTCHAR U+AC32
ENCODING 44082
SWIDTH 666 0
DWIDTH 12 0
BBX 10 11 0 0
BITMAP
FAC0
FAC0
1BC0
3BC0
F2C0
E2C0
0000
7FC0
1F00
7BC0
71C0
ENDCHAR
STARTCHAR U+AC33
ENCODING 44083
SWIDTH 666 0
DWIDTH 12 0
BBX 10 11 0 0
BITMAP
FAC0
FAC0
1BC0
3BC0
F2C0
E2C0
0C00
7FC0
1F00
7BC0
71C0
ENDCHAR
STARTCHAR U+AC34
ENCODING 44084
SWIDTH 666 0
DWIDTH 12 0
BBX 10 11 0 0
BITMAP
FAC0
FAC0
1BC0
3BC0
F2C0
E2C0
0000
7FC0
00C0
7FC0
00C0
ENDCHAR
STARTCHAR U+AC35
ENCODING 44085
SWIDTH 666 0
DWIDTH 12 0
BBX 10 11 0 0
BITMAP
FAC0
FAC0
1BC0
3BC0
F2C0
FFC0
6000
7FC0
6000
7FC0
7FC0
ENDCHAR
STARTCHAR U+AC36
ENCODING 44086
SWIDTH 666 0
DWIDTH 12 0
BBX 10 11 0 0
BITMAP
FAC0
FAC0
1BC0
3BC0
F2C0
E2C0
0000
7FC0
3180
7FC0
7FC0
ENDCHAR
STARTCHAR U+AC37
ENCODING 44087
SWIDTH 666 0
DWIDTH 12 0
BBX 10 11 0 0
BITMAP
FAC0
FAC0
1BC0
3BC0
F2C0
E2C0
0C00
7FC0
3180
3F80
1F00
ENDCHAR
STARTCHAR U+AC38
ENCODING 44088
SWIDTH 666 0
DWIDTH 12 0
BBX 11 11 0 0
BITMAP
FCC0
FCC0
0CE0
0CE0
0CC0
1CC0
18E0
38E0
F0C0
E0C0
00C0
ENDCHAR
STARTCHAR U+AC39
ENCODING 44089
SWIDTH 666 0
DWIDTH 12 0
BBX 11 11 0 0
BITMAP
FCC0
FCE0
0CC0
1CE0
F8E0
F0C0
0000
7FC0
7FC0
00C0
00C0
ENDCHAR
STARTCHAR U+AC3A
ENCODING 44090
SWIDTH 666 0
DWIDTH 12 0
BBX 11 11 0 0
BITMAP
FCC0
FCE0
0CC0
1CE0
F8E0
F0C0
0000
7FC0
7FC0
0CC0
0CC0
ENDCHAR
STARTCHAR U+AC3B
ENCODING 44091
SWIDTH 666 0
DWIDTH 12 0
BBX 11 11 0 0
BITMAP
FCC0
FCE0
0CC0
1CE0
F8E0
F0C0
0000
7980
7980
1BC0
1AC0
ENDCHAR
STARTCHAR U+AC3C
ENCODING 44092
SWIDTH 666 0
DWIDTH 12 0
BBX 11 11 0 0
BITMAP
FCC0
FCE0
0CE0
1CC0
F8E0
F0E0
00C0
6000
6000
7FC0
7FC0
ENDCHAR
STARTCHAR U+AC3D
ENCODING 44093
SWIDTH 666 0
DWIDTH 12 0
BBX 11 11 0 0
BITMAP
FCC0
FCE0
0CC0
1CE0
F8E0
F0C0
0000
67C0
6380
7FC0
7EC0
ENDCHAR
STARTCHAR U+AC3E
ENCODING 44094
SWIDTH 666 0
DWIDTH 12 0
BBX 11 11 0 0
BITMAP
FCC0
FCE0
0CC0
1CE0
F8E0
F0C0
0300
6FE0
66C0
7FC0
7B80
ENDCHAR
STARTCHAR U+AC3F
ENCODING 44095
SWIDTH 666 0
DWIDTH 12 0
BBX 11 11 0 0
BITMAP
FCC0
FCE0
0CC0
1CE0
F8E0
F0C0
0000
7FC0
6000
7FC0
7FC0
ENDCHAR
STARTCHAR U+AC40
ENCODING 44096
SWIDTH 666 0
DWIDTH 12 0
BBX 11 11 0 0
BITMAP
FCC0
FCE0
0CC0
1CE0
F8E0
F0C0
7FC0
07C0
7800
7FC0
7FC0
ENDCHAR
STARTCHAR U+AC41
ENCODING 44097
SWIDTH 666 0
DWIDTH 12 0
BBX 11 11 0 0
BITMAP
FCC0
FCE0
0CC0
1CE0
F8E0
F0C0
7BC0
1BC0
60C0
78C0
78C0
ENDCHAR
STARTCHAR U+AC42
ENCODING 44098
SWIDTH 666 0
DWIDTH 12 0
BBX 11 11 0 0
BITMAP
FCC0
FCE0
0CC0
1CE0
F8E0
F0C0
7BC0
1AC0
62C0
7BC0
7BC0
ENDCHAR
STARTCHAR U+AC43
ENCODING 44099
SWIDTH 666 0
DWIDTH 12 0
BBX 11 11 0 0
BITMAP
FCC0
FCE0
0CC0
1CE0
F8E0
F0C0
7AC0
1BC0
62C0
7BC0
7BC0
ENDCHAR
STARTCHAR U+AC44
ENCODING 44100
SWIDTH 666 0
DWIDTH 12 0
BBX 11 11 0 0
BITMAP
FCC0
FCE0
0CC0
1CE0
F8E0
F0C0
7980
1980
6180
7BC0
7AC0
ENDCHAR
STARTCHAR U+AC45
ENCODING 44101
SWIDTH 666 0
DWIDTH 12 0
BBX 11 11 0 0
BITMAP
FCC0
FCE0
0CC0
1CE0
F8E0
F0C0
7BC0
1B00
63C0
7B00
7BC0
ENDCHAR
STARTCHAR U+AC46
ENCODING 44102
SWIDTH 666 0
DWIDTH 12 0
BBX 11 11 0 0
BITMAP
FCC0
FCE0
0CC0
1CE0
F8E0
F0C0
7FC0
1A80
6280
7FC0
7FC0
ENDCHAR
STARTCHAR U+AC47
ENCODING 44103
SWIDTH 666 0
DWIDTH 12 0
BBX 11 11 0 0
BITMAP
FCC0
FCE0
0CC0
1CE0
F8E0
F1C0
7FC0
1B80
66C0
7FC0
7B80
ENDCHAR
STARTCHAR U+AC48
ENCODING 44104
SWIDTH 666 0
DWIDTH 12 0
BBX 11 11 0 0
BITMAP
FCC0
FCE0
0CC0
1CE0
F8E0
F0C0
0000
7FC0
60C0
7FC0
7FC0
ENDCHAR
STARTCHAR U+AC49
ENCODING 44105
SWIDTH 666 0
DWIDTH 12 0
BBX 11 11 0 0
BITMAP
FCC0
FCE0
0CC0
1CE0
F8E0
F0C0
60C0
7FC0
60C0
7FC0
7FC0
ENDCHAR
STARTCHAR U+AC4A
ENCODING 44106
SWIDTH 666 0
DWIDTH 12 0
BBX 11 11 0 0
BITMAP
FCC0
FCE0
0CC0
1CE0
F8E0
F0C0
0000
6D80
7D80
6FC0
7EC0
ENDCHAR
STARTCHAR U+AC4B
ENCODING 44107
SWIDTH 666 0
DWIDTH 12 0
BBX 11 11 0 0
BITMAP
FCC0
FCE0
0CE0
1CC0
F8E0
F0E0
04C0
0E00
1F00
7BC0
71C0
ENDCHAR
STARTCHAR U+AC4C
ENCODING 44108
SWIDTH 666 0
DWIDTH 12 0
BBX 11 11 0 0
BITMAP
FCC0
FCE0
0CC0
1CE0
F8E0
F0C0
0000
1100
3B80
7FC0
6EC0
ENDCHAR
STARTCHAR U+AC4D
ENCODING 44109
SWIDTH 666 0
DWIDTH 12 0
BBX 11 11 0 0
BITMAP
FCC0
FCE0
0CC0
1CE0
F8E0
F0C0
0000
3F80
60C0
7FC0
3F80
ENDCHAR
STARTCHAR U+AC4E
ENCODING 44110
SWIDTH 666 0
DWIDTH 12 0
BBX 11 11 0 0
BITMAP
FCC0
FCE0
0CC0
1CE0
F8E0
F0C0
0000
7FC0
1F00
7BC0
71C0
ENDCHAR
STARTCHAR U+AC4F
ENCODING 44111
SWIDTH 666 0
DWIDTH 12 0
BBX 11 11 0 0
BITMAP
FCC0
FCE0
0CC0
1CE0
F8E0
F0C0
0600
7FC0
1F00
7BC0
71C0
ENDCHAR
STARTCHAR U+AC50
ENCODING 44112
SWIDTH 666 0
DWIDTH 12 0
BBX 11 11 0 0
BITMAP
FCC0
FCE0
0CC0
1CE0
F8E0
F0C0
0000
7FC0
00C0
7FC0
00C0
ENDCHAR
STARTCHAR U+AC51
ENCODING 44113
SWIDTH 666 0
DWIDTH 12 0
BBX 11 11 0 0
BITMAP
FCC0
FCE0
0CC0
1CE0
F8E0
FFC0
6000
7FC0
6000
7FC0
7FC0
ENDCHAR
STARTCHAR U+AC52
ENCODING 44114
SWIDTH 666 0
DWIDTH 12 0
BBX 11 11 0 0
BITMAP
FCC0
FCE0
0CC0
1CE0
F8E0
F0C0
0000
7FC0
3180
7FC0
7FC0
ENDCHAR
STARTCHAR U+AC53
ENCODING 44115
SWIDTH 666 0
DWIDTH 12 0
BBX 11 11 0 0
BITMAP
FCC0
FCE0
0CC0
1CE0
F8E0
F0C0
0600
7FC0
3180
3F80
1F00
ENDCHAR
STARTCHAR U+AC54
ENCODING 44116
SWIDTH 666 0
DWIDTH 12 0
BBX 10 11 0 0
BITMAP
FAC0
FAC0
1BC0
1BC0
1AC0
3AC0
33C0
73C0
E2C0
C2C0
02C0
ENDCHAR
STARTCHAR U+AC55
ENCODING 44117
SWIDTH 666 0
DWIDTH 12 0
BBX 10 11 0 0
BITMAP
FAC0
FBC0
1AC0
3BC0
F3C0
E2C0
0000
7FC0
7FC0
00C0
00C0
ENDCHAR
STARTCHAR U+AC56
ENCODING 44118
SWIDTH 666 0
DWIDTH 12 0
BBX 10 11 0 0
BITMAP
FAC0
FBC0
1AC0
3BC0
F3C0
E2C0
0000
7FC0
7FC0
0CC0
0CC0
ENDCHAR
STARTCHAR U+AC57
ENCODING 44119
SWIDTH 666 0
DWIDTH 12 0
BBX 10 11 0 0
BITMAP
FAC0
FBC0
1AC0
3BC0
F3C0
E2C0
0000
7980
7980
1BC0
1AC0
ENDCHAR
STARTCHAR U+AC58
ENCODING 44120
SWIDTH 666 0
DWIDTH 12 0
BBX 10 11 0 0
BITMAP
FAC0
FBC0
1BC0
3AC0
F3C0
E3C0
02C0
6000
6000
7FC0
7FC0
ENDCHAR
STARTCHAR U+AC59
ENCODING 44121
SWIDTH 666 0
DWIDTH 12 0
BBX 10 11 0 0
BITMAP
FAC0
FBC0
1AC0
3BC0
F3C0
E2C0
0000
67C0
6380
7FC0
7EC0
ENDCHAR
STARTCHAR U+AC5A
ENCODING 44122
SWIDTH 666 0
DWIDTH 12 0
BBX 11 11 0 0
BITMAP
FAC0
FBC0
1AC0
3BC0
F3C0
E2C0
0180
6FE0
66C0
7FC0
7B80
ENDCHAR
STARTCHAR U+AC5B
ENCODING 44123
SWIDTH 666 0
DWIDTH 12 0
BBX 10 11 0 0
BITMAP
FAC0
FBC0
1AC0
3BC0
F3C0
E2C0
0000
7FC0
6000
7FC0
7FC0
ENDCHAR
STARTCHAR U+AC5C
ENCODING 44124
SWIDTH 666 0
DWIDTH 12 0
BBX 10 11 0 0
BITMAP
FAC0
FBC0
1AC0
3BC0
F3C0
E2C0
7FC0
07C0
7800
7FC0
7FC0
ENDCHAR
STARTCHAR U+AC5D
ENCODING 44125
SWIDTH 666 0
DWIDTH 12 0
BBX 10 11 0 0
BITMAP
FAC0
FBC0
1AC0
3BC0
F3C0
E2C0
7BC0
1BC0
60C0
78C0
78C0
ENDCHAR
STARTCHAR U+AC5E
ENCODING 44126
SWIDTH 666 0
DWIDTH 12 0
BBX 10 11 0 0
BITMAP
FAC0
FBC0
1AC0
3BC0
F3C0
E2C0
7BC0
1AC0
62C0
7BC0
7BC0
ENDCHAR
STARTCHAR U+AC5F
ENCODING 44127
SWIDTH 666 0
DWIDTH 12 0
BBX 10 11 0 0
BITMAP
FAC0
FBC0
1AC0
3BC0
F3C0
E2C0
7AC0
1BC0
62C0
7BC0
7BC0
ENDCHAR
STARTCHAR U+AC60
ENCODING 44128
SWIDTH 666 0
DWIDTH 12 0
BBX 10 11 0 0
BITMAP
FAC0
FBC0
1AC0
3BC0
F3C0
E2C0
7980
1980
6180
7BC0
7AC0
ENDCHAR
STARTCHAR U+AC61
ENCODING 44129
SWIDTH 666 0
DWIDTH 12 0
BBX 10 11 0 0
BITMAP
FAC0
FBC0
1AC0
3BC0
F3C0
E2C0
7BC0
1B00
63C0
7B00
7BC0
ENDCHAR
STARTCHAR U+AC62
ENCODING 44130
SWIDTH 666 0
DWIDTH 12 0
BBX 10 11 0 0
BITMAP
FAC0
FBC0
1AC0
3BC0
F3C0
E2C0
7FC0
1A80
6280
7FC0
7FC0
ENDCHAR
STARTCHAR U+AC63
ENCODING 44131
SWIDTH 666 0
DWIDTH 12 0
BBX 10 11 0 0
BITMAP
FAC0
FBC0
1AC0
3BC0
F2C0
E3C0
7FC0
1B80
66C0
7FC0
7B80
ENDCHAR
STARTCHAR U+AC64
ENCODING 44132
SWIDTH 666 0
DWIDTH 12 0
BBX 10 11 0 0
BITMAP
FAC0
FBC0
1AC0
3BC0
F3C0
E2C0
0000
7FC0
60C0
7FC0
7FC0
ENDCHAR
STARTCHAR U+AC65
ENCODING 44133
SWIDTH 666 0
DWIDTH 12 0
BBX 10 11 0 0
BITMAP
FAC0
FBC0
1AC0
3BC0
F3C0
E2C0
60C0
7FC0
60C0
7FC0
7FC0
ENDCHAR
STARTCHAR U+AC66
ENCODING 44134
SWIDTH 666 0
DWIDTH 12 0
BBX 10 11 0 0
BITMAP
FAC0
FBC0
1AC0
3BC0
F3C0
E2C0
0000
6D80
7D80
6FC0
7EC0
ENDCHAR
STARTCHAR U+AC67
ENCODING 44135
SWIDTH 666 0
DWIDTH 12 0
BBX 10 11 0 0
BITMAP
FAC0
FBC0
1AC0
3BC0
F3C0
E2C0
0400
0E00
1F00
7BC0
71C0
ENDCHAR
STARTCHAR U+AC68
ENCODING 44136
SWIDTH 666 0
DWIDTH 12 0
BBX 10 11 0 0
BITMAP
FAC0
FBC0
1AC0
3BC0
F3C0
E2C0
0000
1100
3B80
7FC0
6EC0
ENDCHAR
STARTCHAR U+AC69
ENCODING 44137
SWIDTH 666 0
DWIDTH 12 0
BBX 10 11 0 0
BITMAP
FAC0
FBC0
1AC0
3BC0
F3C0
E2C0
0000
3F80
60C0
7FC0
3F80
ENDCHAR
STARTCHAR U+AC6A
ENCODING 44138
SWIDTH 666 0
DWIDTH 12 0
BBX 10 11 0 0
BITMAP
FAC0
FBC0
1AC0
3BC0
F3C0
E2C0
0000
7FC0
1F00
7BC0
71C0
ENDCHAR
STARTCHAR U+AC6B
ENCODING 44139
SWIDTH 666 0
DWIDTH 12 0
BBX 10 11 0 0
BITMAP
FAC0
FBC0
1AC0
3BC0
F3C0
E2C0
0C00
7FC0
1F00
7BC0
71C0
ENDCHAR
STARTCHAR U+AC6C
ENCODING 44140
SWIDTH 666 0
DWIDTH 12 0
BBX 10 11 0 0
BITMAP
FAC0
FBC0
1AC0
3BC0
F3C0
E2C0
0000
7FC0
00C0
7FC0
00C0
ENDCHAR
STARTCHAR U+AC6D
ENCODING 44141
SWIDTH 666 0
DWIDTH 12 0
BBX 10 11 0 0
BITMAP
FAC0
FBC0
1AC0
3BC0
F2C0
FFC0
6000
7FC0
6000
7FC0
7FC0
ENDCHAR
STARTCHAR U+AC6E
ENCODING 44142
SWIDTH 666 0
DWIDTH 12 0
BBX 10 11 0 0
BITMAP
FAC0
FBC0
1AC0
3BC0
F3C0
E2C0
0000
7FC0
3180
7FC0
7FC0
ENDCHAR
STARTCHAR U+AC6F
ENCODING 44143
SWIDTH 666 0
DWIDTH 12 0
BBX 10 11 0 0
BITMAP
FAC0
FBC0
1AC0
3BC0
F3C0
E2C0
0C00
7FC0
3180
3F80
1F00
ENDCHAR
STARTCHAR U+AC70
ENCODING 44144
SWIDTH 666 0
DWIDTH 12 0
BBX 10 11 0 0
BITMAP
FCC0
FCC0
0CC0
0CC0
0FC0
1FC0
18C0
38C0
F0C0
E0C0
00C0
ENDCHAR
STARTCHAR U+AC71
ENCODING 44145
SWIDTH 666 0
DWIDTH 12 0
BBX 10 11 0 0
BITMAP
FCC0
FCC0
0FC0
1FC0
F8C0
F0C0
0000
7FC0
7FC0
00C0
00C0
ENDCHAR
STARTCHAR U+AC72
ENCODING 44146
SWIDTH 666 0
DWIDTH 12 0
BBX 10 11 0 0
BITMAP
FCC0
FCC0
0FC0
1FC0
F8C0
F0C0
0000
7FC0
7FC0
0CC0
0CC0
ENDCHAR
STARTCHAR U+AC73
ENCODING 44147
SWIDTH 666 0
DWIDTH 12 0
BBX 10 11 0 0
BITMAP
FCC0
FCC0
0FC0
1FC0
F8C0
F0C0
0000
7980
7980
1BC0
1AC0
ENDCHAR
STARTCHAR U+AC74
ENCODING 44148
SWIDTH 666 0
DWIDTH 12 0
BBX 10 11 0 0
BITMAP
FCC0
FCC0
0FC0
1FC0
F8C0
F0C0
00C0
6000
6000
7FC0
7FC0
ENDCHAR
STARTCHAR U+AC75
ENCODING 44149
SWIDTH 666 0
DWIDTH 12 0
BBX 10 11 0 0
BITMAP
FCC0
FCC0
0FC0
1FC0
F8C0
F0C0
0000
67C0
6380
7FC0
7EC0
ENDCHAR
STARTCHAR U+AC76
ENCODING 44150
SWIDTH 666 0
DWIDTH 12 0
BBX 11 11 0 0
BITMAP
FCC0
FCC0
0FC0
1FC0
F8C0
F0C0
0300
6FE0
66C0
7FC0
7B80
ENDCHAR
STARTCHAR U+AC77
ENCODING 44151
SWIDTH 666 0
DWIDTH 12 0
BBX 10 11 0 0
BITMAP
FCC0
FCC0
0FC0
1FC0
F8C0
F0C0
0000
7FC0
6000
7FC0
7FC0
ENDCHAR
STARTCHAR U+AC78
ENCODING 44152
SWIDTH 666 0
DWIDTH 12 0
BBX 10 11 0 0
BITMAP
FCC0
FCC0
0FC0
1FC0
F8C0
F0C0
7FC0
07C0
7800
7FC0
7FC0
ENDCHAR
STARTCHAR U+AC79
ENCODING 44153
SWIDTH 666 0
DWIDTH 12 0
BBX 10 11 0 0
BITMAP
FCC0
FCC0
0FC0
1FC0
F8C0
F0C0
7BC0
1BC0
60C0
78C0
78C0
ENDCHAR
STARTCHAR U+AC7A
ENCODING 44154
SWIDTH 666 0
DWIDTH 12 0
BBX 10 11 0 0
BITMAP
FCC0
FCC0
0FC0
1FC0
F8C0
F0C0
7BC0
1AC0
62C0
7BC0
7BC0
ENDCHAR
STARTCHAR U+AC7B
ENCODING 44155
SWIDTH 666 0
DWIDTH 12 0
BBX 10 11 0 0
BITMAP
FCC0
FCC0
0FC0
1FC0
F8C0
F0C0
7AC0
1BC0
62C0
7BC0
7BC0
ENDCHAR
STARTCHAR U+AC7C
ENCODING 44156
SWIDTH 666 0
DWIDTH 12 0
BBX 10 11 0 0
BITMAP
FCC0
FCC0
0FC0
1FC0
F8C0
F0C0
7980
1980
6180
7BC0
7AC0
ENDCHAR
STARTCHAR U+AC7D
ENCODING 44157
SWIDTH 666 0
DWIDTH 12 0
BBX 10 11 0 0
BITMAP
FCC0
FCC0
0FC0
1FC0
F8C0
F0C0
7BC0
1B00
63C0
7B00
7BC0
ENDCHAR
STARTCHAR U+AC7E
ENCODING 44158
SWIDTH 666 0
DWIDTH 12 0
BBX 10 11 0 0
BITMAP
FCC0
FCC0
0FC0
1FC0
F8C0
F0C0
7FC0
1A80
6280
7FC0
7FC0
ENDCHAR
STARTCHAR U+AC7F
ENCODING 44159
SWIDTH 666 0
DWIDTH 12 0
BBX 10 11 0 0
BITMAP
FCC0
FCC0
0FC0
1FC0
F8C0
F1C0
7FC0
1B80
66C0
7FC0
7B80
ENDCHAR
STARTCHAR U+AC80
ENCODING 44160
SWIDTH 666 0
DWIDTH 12 0
BBX 10 11 0 0
BITMAP
FCC0
FCC0
0FC0
1FC0
F8C0
F0C0
0000
7FC0
60C0
7FC0
7FC0
ENDCHAR
STARTCHAR U+AC81
ENCODING 44161
SWIDTH 666 0
DWIDTH 12 0
BBX 10 11 0 0
BITMAP
FCC0
FCC0
0FC0
1FC0
F8C0
F0C0
60C0
7FC0
60C0
7FC0
7FC0
ENDCHAR
STARTCHAR U+AC82
ENCODING 44162
SWIDTH 666 0
DWIDTH 12 0
BBX 10 11 0 0
BITMAP
FCC0
FCC0
0FC0
1FC0
F8C0
F0C0
0000
6D80
7D80
6FC0
7EC0
ENDCHAR
STARTCHAR U+AC83
ENCODING 44163
SWIDTH 666 0
DWIDTH 12 0
BBX 10 11 0 0
BITMAP
FCC0
FCC0
0FC0
1FC0
F8C0
F0C0
04C0
0E00
1F00
7BC0
71C0
ENDCHAR
STARTCHAR U+AC84
ENCODING 44164
SWIDTH 666 0
DWIDTH 12 0
BBX 10 11 0 0
BITMAP
FCC0
FCC0
0FC0
1FC0
F8C0
F0C0
0000
1100
3B80
7FC0
6EC0
ENDCHAR
STARTCHAR U+AC85
ENCODING 44165
SWIDTH 666 0
DWIDTH 12 0
BBX 10 11 0 0
BITMAP
FCC0
FCC0
0FC0
1FC0
F8C0
F0C0
0000
3F80
60C0
7FC0
3F80
ENDCHAR
STARTCHAR U+AC86
ENCODING 44166
SWIDTH 666 0
DWIDTH 12 0
BBX 10 11 0 0
BITMAP
FCC0
FCC0
0FC0
1FC0
F8C0
F0C0
0000
7FC0
1F00
7BC0
71C0
ENDCHAR
STARTCHAR U+AC87
ENCODING 44167
SWIDTH 666 0
DWIDTH 12 0
BBX 10 11 0 0
BITMAP
FCC0
FCC0
0FC0
1FC0
F8C0
F0C0
0600
7FC0
1F00
7BC0
71C0
ENDCHAR
STARTCHAR U+AC88
ENCODING 44168
SWIDTH 666 0
DWIDTH 12 0
BBX 10 11 0 0
BITMAP
FCC0
FCC0
0FC0
1FC0
F8C0
F0C0
0000
7FC0
00C0
7FC0
00C0
ENDCHAR
STARTCHAR U+AC89
ENCODING 44169
SWIDTH 666 0
DWIDTH 12 0
BBX 10 11 0 0
BITMAP
FCC0
FCC0
0FC0
1FC0
F8C0
FFC0
6000
7FC0
6000
7FC0
7FC0
ENDCHAR
STARTCHAR U+AC8A
ENCODING 44170
SWIDTH 666 0
DWIDTH 12 0
BBX 10 11 0 0
BITMAP
FCC0
FCC0
0FC0
1FC0
F8C0
F0C0
0000
7FC0
3180
7FC0
7FC0
ENDCHAR
STARTCHAR U+AC8B
ENCODING 44171
SWIDTH 666 0
DWIDTH 12 0
BBX 10 11 0 0
BITMAP
FCC0
FCC0
0FC0
1FC0
F8C0
F0C0
0600
7FC0
3180
3F80
1F00
ENDCHAR
STARTCHAR U+AC8C
ENCODING 44172
SWIDTH 666 0
DWIDTH 12 0
BBX 10 11 0 0
BITMAP
FAC0
FAC0
1AC0
1AC0
1EC0
3EC0
32C0
72C0
E2C0
C2C0
02C0
ENDCHAR
STARTCHAR U+AC8D
ENCODING 44173
SWIDTH 666 0
DWIDTH 12 0
BBX 10 11 0 0
BITMAP
FAC0
FAC0
1EC0
3EC0
F2C0
E2C0
0000
7FC0
7FC0
00C0
00C0
ENDCHAR
STARTCHAR U+AC8E
ENCODING 44174
SWIDTH 666 0
DWIDTH 12 0
BBX 10 11 0 0
BITMAP
FAC0
FAC0
1EC0
3EC0
F2C0
E2C0
0000
7FC0
7FC0
0CC0
0CC0
ENDCHAR
STARTCHAR U+AC8F
ENCODING 44175
SWIDTH 666 0
DWIDTH 12 0
BBX 10 11 0 0
BITMAP
FAC0
FAC0
1EC0
3EC0
F2C0
E2C0
0000
7980
7980
1BC0
1AC0
ENDCHAR
STARTCHAR U+AC90
ENCODING 44176
SWIDTH 666 0
DWIDTH 12 0
BBX 10 11 0 0
BITMAP
FAC0
FAC0
1EC0
3EC0
F2C0
E2C0
02C0
6000
6000
7FC0
7FC0
ENDCHAR
STARTCHAR U+AC91
ENCODING 44177
SWIDTH 666 0
DWIDTH 12 0
BBX 10 11 0 0
BITMAP
FAC0
FAC0
1EC0
3EC0
F2C0
E2C0
0000
67C0
6380
7FC0
7EC0
ENDCHAR
STARTCHAR U+AC92
ENCODING 44178
SWIDTH 666 0
DWIDTH 12 0
BBX 11 11 0 0
BITMAP
FAC0
FAC0
1EC0
3EC0
F2C0
E2C0
0180
6FE0
66C0
7FC0
7B80
ENDCHAR
STARTCHAR U+AC93
ENCODING 44179
SWIDTH 666 0
DWIDTH 12 0
BBX 10 11 0 0
BITMAP
FAC0
FAC0
1EC0
3EC0
F2C0
E2C0
0000
7FC0
6000
7FC0
7FC0
ENDCHAR
STARTCHAR U+AC94
ENCODING 44180
SWIDTH 666 0
DWIDTH 12 0
BBX 10 11 0 0
BITMAP
FAC0
FAC0
1EC0
3EC0
F2C0
E2C0
7FC0
07C0
7800
7FC0
7FC0
ENDCHAR
STARTCHAR U+AC95
ENCODING 44181
SWIDTH 666 0
DWIDTH 12 0
BBX 10 11 0 0
BITMAP
FAC0
FAC0
1EC0
3EC0
F2C0
E2C0
7BC0
1BC0
60C0
78C0
78C0
ENDCHAR
STARTCHAR U+AC96
ENCODING 44182
SWIDTH 666 0
DWIDTH 12 0
BBX 10 11 0 0
BITMAP
FAC0
FAC0
1EC0
3EC0
F2C0
E2C0
7BC0
1AC0
62C0
7BC0
7BC0
ENDCHAR
STARTCHAR U+AC97
ENCODING 44183
SWIDTH 666 0
DWIDTH 12 0
BBX 10 11 0 0
BITMAP
FAC0
FAC0
1EC0
3EC0
F2C0
E2C0
7AC0
1BC0
62C0
7BC0
7BC0
ENDCHAR
STARTCHAR U+AC98
ENCODING 44184
SWIDTH 666 0
DWIDTH 12 0
BBX 10 11 0 0
BITMAP
FAC0
FAC0
1EC0
3EC0
F2C0
E2C0
7980
1980
6180
7BC0
7AC0
ENDCHAR
STARTCHAR U+AC99
ENCODING 44185
SWIDTH 666 0
DWIDTH 12 0
BBX 10 11 0 0
BITMAP
FAC0
FAC0
1EC0
3EC0
F2C0
E2C0
7BC0
1B00
63C0
7B00
7BC0
ENDCHAR
STARTCHAR U+AC9A
ENCODING 44186
SWIDTH 666 0
DWIDTH 12 0
BBX 10 11 0 0
BITMAP
FAC0
FAC0
1EC0
3EC0
F2C0
E2C0
7FC0
1A80
6280
7FC0
7FC0
ENDCHAR
STARTCHAR U+AC9B
ENCODING 44187
SWIDTH 666 0
DWIDTH 12 0
BBX 10 11 0 0
BITMAP
FAC0
FAC0
1EC0
3EC0
F2C0
E3C0
7FC0
1B80
66C0
7FC0
7B80
ENDCHAR
STARTCHAR U+AC9C
ENCODING 44188
SWIDTH 666 0
DWIDTH 12 0
BBX 10 11 0 0
BITMAP
FAC0
FAC0
1EC0
3EC0
F2C0
E2C0
0000
7FC0
60C0
7FC0
7FC0
ENDCHAR
STARTCHAR U+AC9D
ENCODING 44189
SWIDTH 666 0
DWIDTH 12 0
BBX 10 11 0 0
BITMAP
FAC0
FAC0
1EC0
3EC0
F2C0
E2C0
60C0
7FC0
60C0
7FC0
7FC0
ENDCHAR
STARTCHAR U+AC9E
ENCODING 44190
SWIDTH 666 0
DWIDTH 12 0
BBX 10 11 0 0
BITMAP
FAC0
FAC0
1EC0
3EC0
F2C0
E2C0
0000
6D80
7D80
6FC0
7EC0
ENDCHAR
STARTCHAR U+AC9F
ENCODING 44191
SWIDTH 666 0
DWIDTH 12 0
BBX 10 11 0 0
BITMAP
FAC0
FAC0
1EC0
3EC0
F2C0
E2C0
0400
0E00
1F00
7BC0
71C0
ENDCHAR
STARTCHAR U+ACA0
ENCODING 44192
SWIDTH 666 0
DWIDTH 12 0
BBX 10 11 0 0
BITMAP
FAC0
FAC0
1EC0
3EC0
F2C0
E2C0
0000
1100
3B80
7FC0
6EC0
ENDCHAR
STARTCHAR U+ACA1
ENCODING 44193
SWIDTH 666 0
DWIDTH 12 0
BBX 10 11 0 0
BITMAP
FAC0
FAC0
1EC0
3EC0
F2C0
E2C0
0000
3F80
60C0
7FC0
3F80
ENDCHAR
STARTCHAR U+ACA2
ENCODING 44194
SWIDTH 666 0
DWIDTH 12 0
BBX 10 11 0 0
BITMAP
FAC0
FAC0
1EC0
3EC0
F2C0
E2C0
0000
7FC0
1F00
7BC0
71C0
ENDCHAR
STARTCHAR U+ACA3
ENCODING 44195
SWIDTH 666 0
DWIDTH 12 0
BBX 10 11 0 0
BITMAP
FAC0
FAC0
1EC0
3EC0
F2C0
E2C0
0C00
7FC0
1F00
7BC0
71C0
ENDCHAR
STARTCHAR U+ACA4
ENCODING 44196
SWIDTH 666 0
DWIDTH 12 0
BBX 10 11 0 0
BITMAP
FAC0
FAC0
1EC0
3EC0
F2C0
E2C0
0000
7FC0
00C0
7FC0
00C0
ENDCHAR
STARTCHAR U+ACA5
ENCODING 44197
SWIDTH 666 0
DWIDTH 12 0
BBX 10 11 0 0
BITMAP
FAC0
FAC0
1EC0
3EC0
F2C0
FFC0
6000
7FC0
6000
7FC0
7FC0
ENDCHAR
STARTCHAR U+ACA6
ENCODING 44198
SWIDTH 666 0
DWIDTH 12 0
BBX 10 11 0 0
BITMAP
FAC0
FAC0
1EC0
3EC0
F2C0
E2C0
0000
7FC0
3180
7FC0
7FC0
ENDCHAR
STARTCHAR U+ACA7
ENCODING 44199
SWIDTH 666 0
DWIDTH 12 0
BBX 10 11 0 0
BITMAP
FAC0
FAC0
1EC0
3EC0
F2C0
E2C0
0C00
7FC0
3180
3F80
1F00
ENDCHAR
STARTCHAR U+ACA8
ENCODING 44200
SWIDTH 666 0
DWIDTH 12 0
BBX 10 11 0 0
BITMAP
FCC0
FCC0
0FC0
0FC0
0CC0
1CC0
1BC0
3BC0
F0C0
E0C0
00C0
ENDCHAR
STARTCHAR U+ACA9
ENCODING 44201
SWIDTH 666 0
DWIDTH 12 0
BBX 10 11 0 0
BITMAP
FCC0
FFC0
0CC0
1FC0
FBC0
F0C0
0000
7FC0
7FC0
00C0
00C0
ENDCHAR
STARTCHAR U+ACAA
ENCODING 44202
SWIDTH 666 0
DWIDTH 12 0
BBX 10 11 0 0
BITMAP
FCC0
FFC0
0CC0
1FC0
FBC0
F0C0
0000
7FC0
7FC0
0CC0
0CC0
ENDCHAR
STARTCHAR U+ACAB
ENCODING 44203
SWIDTH 666 0
DWIDTH 12 0
BBX 10 11 0 0
BITMAP
FCC0
FFC0
0CC0
1FC0
FBC0
F0C0
0000
7980
7980
1BC0
1AC0
ENDCHAR
STARTCHAR U+ACAC
ENCODING 44204
SWIDTH 666 0
DWIDTH 12 0
BBX 10 11 0 0
BITMAP
FCC0
FFC0
0CC0
1FC0
FBC0
F0C0
00C0
6000
6000
7FC0
7FC0
ENDCHAR
STARTCHAR U+ACAD
ENCODING 44205
SWIDTH 666 0
DWIDTH 12 0
BBX 10 11 0 0
BITMAP
FCC0
FFC0
0CC0
1FC0
FBC0
F0C0
0000
67C0
6380
7FC0
7EC0
ENDCHAR
STARTCHAR U+ACAE
ENCODING 44206
SWIDTH 666 0
DWIDTH 12 0
BBX 11 11 0 0
BITMAP
FCC0
FFC0
0CC0
1FC0
FBC0
F0C0
0300
6FE0
66C0
7FC0
7B80
ENDCHAR
STARTCHAR U+ACAF
ENCODING 44207
SWIDTH 666 0
DWIDTH 12 0
BBX 10 11 0 0
BITMAP
FCC0
FFC0
0CC0
1FC0
FBC0
F0C0
0000
7FC0
6000
7FC0
7FC0
ENDCHAR
STARTCHAR U+ACB0
ENCODING 44208
SWIDTH 666 0
DWIDTH 12 0
BBX 10 11 0 0
BITMAP
FCC0
FFC0
0CC0
1FC0
FBC0
F0C0
7FC0
07C0
7800
7FC0
7FC0
ENDCHAR
STARTCHAR U+ACB1
ENCODING 44209
SWIDTH 666 0
DWIDTH 12 0
BBX 10 11 0 0
BITMAP
FCC0
FFC0
0CC0
1FC0
FBC0
F0C0
7BC0
1BC0
60C0
78C0
78C0
ENDCHAR
STARTCHAR U+ACB2
ENCODING 44210
SWIDTH 666 0
DWIDTH 12 0
BBX 10 11 0 0
BITMAP
FCC0
FFC0
0CC0
1FC0
FBC0
F0C0
7BC0
1AC0
62C0
7BC0
7BC0
ENDCHAR
STARTCHAR U+ACB3
ENCODING 44211
SWIDTH 666 0
DWIDTH 12 0
BBX 10 11 0 0
BITMAP
FCC0
FFC0
0CC0
1FC0
FBC0
F0C0
7AC0
1BC0
62C0
7BC0
7BC0
ENDCHAR
STARTCHAR U+ACB4
ENCODING 44212
SWIDTH 666 0
DWIDTH 12 0
BBX 10 11 0 0
BITMAP
FCC0
FFC0
0CC0
1FC0
FBC0
F0C0
7980
1980
6180
7BC0
7AC0
ENDCHAR
STARTCHAR U+ACB5
ENCODING 44213
SWIDTH 666 0
DWIDTH 12 0
BBX 10 11 0 0
BITMAP
FCC0
FFC0
0CC0
1FC0
FBC0
F0C0
7BC0
1B00
63C0
7B00
7BC0
ENDCHAR
STARTCHAR U+ACB6
ENCODING 44214
SWIDTH 666 0
DWIDTH 12 0
BBX 10 11 0 0
BITMAP
FCC0
FFC0
0CC0
1FC0
FBC0
F0C0
7FC0
1A80
6280
7FC0
7FC0
ENDCHAR
STARTCHAR U+ACB7
ENCODING 44215
SWIDTH 666 0
DWIDTH 12 0
BBX 10 11 0 0
BITMAP
FCC0
FFC0
0CC0
1FC0
F8C0
F300
7FC0
1B80
66C0
7FC0
7B80
ENDCHAR
STARTCHAR U+ACB8
ENCODING 44216
SWIDTH 666 0
DWIDTH 12 0
BBX 10 11 0 0
BITMAP
FCC0
FFC0
0CC0
1FC0
FBC0
F0C0
0000
7FC0
60C0
7FC0
7FC0
ENDCHAR
STARTCHAR U+ACB9
ENCODING 44217
SWIDTH 666 0
DWIDTH 12 0
BBX 10 11 0 0
BITMAP
FCC0
FFC0
0CC0
1FC0
FBC0
F0C0
60C0
7FC0
60C0
7FC0
7FC0
ENDCHAR
STARTCHAR U+ACBA
ENCODING 44218
SWIDTH 666 0
DWIDTH 12 0
BBX 10 11 0 0
BITMAP
FCC0
FFC0
0CC0
1FC0
FBC0
F0C0
0000
6D80
7D80
6FC0
7EC0
ENDCHAR
STARTCHAR U+ACBB
ENCODING 44219
SWIDTH 666 0
DWIDTH 12 0
BBX 10 11 0 0
BITMAP
FCC0
FFC0
0CC0
1FC0
FBC0
F0C0
04C0
0E00
1F00
7BC0
71C0
ENDCHAR
STARTCHAR U+ACBC
ENCODING 44220
SWIDTH 666 0
DWIDTH 12 0
BBX 10 11 0 0
BITMAP
FCC0
FFC0
0CC0
1FC0
FBC0
F0C0
0000
1100
3B80
7FC0
6EC0
ENDCHAR
STARTCHAR U+ACBD
ENCODING 44221
SWIDTH 666 0
DWIDTH 12 0
BBX 10 11 0 0
BITMAP
FCC0
FFC0
0CC0
1FC0
FBC0
F0C0
0000
3F80
60C0
7FC0
3F80
ENDCHAR
STARTCHAR U+ACBE
ENCODING 44222
SWIDTH 666 0
DWIDTH 12 0
BBX 10 11 0 0
BITMAP
FCC0
FFC0
0CC0
1FC0
FBC0
F0C0
0000
7FC0
1F00
7BC0
71C0
ENDCHAR
STARTCHAR U+ACBF
ENCODING 44223
SWIDTH 666 0
DWIDTH 12 0
BBX 10 11 0 0
BITMAP
FCC0
FFC0
0CC0
1FC0
FBC0
F0C0
0600
7FC0
1F00
7BC0
71C0
ENDCHAR
STARTCHAR U+ACC0
ENCODING 44224
SWIDTH 666 0
DWIDTH 12 0
BBX 10 11 0 0
BITMAP
FCC0
FFC0
0CC0
1FC0
FBC0
F0C0
0000
7FC0
00C0
7FC0
00C0
ENDCHAR
STARTCHAR U+ACC1
ENCODING 44225
SWIDTH 666 0
DWIDTH 12 0
BBX 10 11 0 0
BITMAP
FCC0
FFC0
0CC0
1FC0
F8C0
FFC0
6000
7FC0
6000
7FC0
7FC0
ENDCHAR
STARTCHAR U+ACC2
ENCODING 44226
SWIDTH 666 0
DWIDTH 12 0
BBX 10 11 0 0
BITMAP
FCC0
FFC0
0CC0
1FC0
FBC0
F0C0
0000
7FC0
3180
7FC0
7FC0
ENDCHAR
STARTCHAR U+ACC3
ENCODING 44227
SWIDTH 666 0
DWIDTH 12 0
BBX 10 11 0 0
BITMAP
FCC0
FFC0
0CC0
1FC0
FBC0
F0C0
0600
7FC0
3180
3F80
1F00
ENDCHAR
STARTCHAR U+ACC4
ENCODING 44228
SWIDTH 666 0
DWIDTH 12 0
BBX 10 11 0 0
BITMAP
FAC0
FAC0
1EC0
1EC0
1AC0
3AC0
36C0
76C0
E2C0
C2C0
02C0
ENDCHAR
STARTCHAR U+ACC5
ENCODING 44229
SWIDTH 666 0
DWIDTH 12 0
BBX 10 11 0 0
BITMAP
FAC0
FEC0
1AC0
3EC0
F6C0
E2C0
0000
7FC0
7FC0
00C0
00C0
ENDCHAR
STARTCHAR U+ACC6
ENCODING 44230
SWIDTH 666 0
DWIDTH 12 0
BBX 10 11 0 0
BITMAP
FAC0
FEC0
1AC0
3EC0
F6C0
E2C0
0000
7FC0
7FC0
0CC0
0CC0
ENDCHAR
STARTCHAR U+ACC7
ENCODING 44231
SWIDTH 666 0
DWIDTH 12 0
BBX 10 11 0 0
BITMAP
FAC0
FEC0
1AC0
3EC0
F6C0
E2C0
0000
7980
7980
1BC0
1AC0
ENDCHAR
STARTCHAR U+ACC8
ENCODING 44232
SWIDTH 666 0
DWIDTH 12 0
BBX 10 11 0 0
BITMAP
FAC0
FEC0
1AC0
3EC0
F6C0
E2C0
02C0
6000
6000
7FC0
7FC0
ENDCHAR
STARTCHAR U+ACC9
ENCODING 44233
SWIDTH 666 0
DWIDTH 12 0
BBX 10 11 0 0
BITMAP
FAC0
FEC0
1AC0
3EC0
F6C0
E2C0
0000
67C0
6380
7FC0
7EC0
ENDCHAR
STARTCHAR U+ACCA
ENCODING 44234
SWIDTH 666 0
DWIDTH 12 0
BBX 11 11 0 0
BITMAP
FAC0
FEC0
1AC0
3EC0
F6C0
E2C0
0180
6FE0
66C0
7FC0
7B80
ENDCHAR
STARTCHAR U+ACCB
ENCODING 44235
SWIDTH 666 0
DWIDTH 12 0
BBX 10 11 0 0
BITMAP
FAC0
FEC0
1AC0
3EC0
F6C0
E2C0
0000
7FC0
6000
7FC0
7FC0
ENDCHAR
STARTCHAR U+ACCC
ENCODING 44236
SWIDTH 666 0
DWIDTH 12 0
BBX 10 11 0 0
BITMAP
FAC0
FEC0
1AC0
3EC0
F6C0
E2C0
7FC0
07C0
7800
7FC0
7FC0
ENDCHAR
STARTCHAR U+ACCD
ENCODING 44237
SWIDTH 666 0
DWIDTH 12 0
BBX 10 11 0 0
BITMAP
FAC0
FEC0
1AC0
3EC0
F6C0
E2C0
7BC0
1BC0
60C0
78C0
78C0
ENDCHAR
STARTCHAR U+ACCE
ENCODING 44238
SWIDTH 666 0
DWIDTH 12 0
BBX 10 11 0 0
BITMAP
FAC0
FEC0
1AC0
3EC0
F6C0
E2C0
7BC0
1AC0
62C0
7BC0
7BC0
ENDCHAR
STARTCHAR U+ACCF
ENCODING 44239
SWIDTH 666 0
DWIDTH 12 0
BBX 10 11 0 0
BITMAP
FAC0
FEC0
1AC0
3EC0
F6C0
E2C0
7AC0
1BC0
62C0
7BC0
7BC0
ENDCHAR
STARTCHAR U+ACD0
ENCODING 44240
SWIDTH 666 0
DWIDTH 12 0
BBX 10 11 0 0
BITMAP
FAC0
FEC0
1AC0
3EC0
F6C0
E2C0
7980
1980
6180
7BC0
7AC0
ENDCHAR
STARTCHAR U+ACD1
ENCODING 44241
SWIDTH 666 0
DWIDTH 12 0
BBX 10 11 0 0
BITMAP
FAC0
FEC0
1AC0
3EC0
F6C0
E2C0
7BC0
1B00
63C0
7B00
7BC0
ENDCHAR
STARTCHAR U+ACD2
ENCODING 44242
SWIDTH 666 0
DWIDTH 12 0
BBX 10 11 0 0
BITMAP
FAC0
FEC0
1AC0
3EC0
F6C0
E2C0
7FC0
1A80
6280
7FC0
7FC0
ENDCHAR
STARTCHAR U+ACD3
ENCODING 44243
SWIDTH 666 0
DWIDTH 12 0
BBX 10 11 0 0
BITMAP
FAC0
FEC0
1AC0
3EC0
F6C0
E3C0
7FC0
1B80
66C0
7FC0
7B80
ENDCHAR
STARTCHAR U+ACD4
ENCODING 44244
SWIDTH 666 0
DWIDTH 12 0
BBX 10 11 0 0
BITMAP
FAC0
FEC0
1AC0
3EC0
F6C0
E2C0
0000
7FC0
60C0
7FC0
7FC0
ENDCHAR
STARTCHAR U+ACD5
ENCODING 44245
SWIDTH 666 0
DWIDTH 12 0
BBX 10 11 0 0
BITMAP
FAC0
FEC0
1AC0
3EC0
F6C0
E2C0
60C0
7FC0
60C0
7FC0
7FC0
ENDCHAR
STARTCHAR U+ACD6
ENCODING 44246
SWIDTH 666 0
DWIDTH 12 0
BBX 10 11 0 0
BITMAP
FAC0
FEC0
1AC0
3EC0
F6C0
E2C0
0000
6D80
7D80
6FC0
7EC0
ENDCHAR
STARTCHAR U+ACD7
ENCODING 44247
SWIDTH 666 0
DWIDTH 12 0
BBX 10 11 0 0
BITMAP
FAC0
FEC0
1AC0
3EC0
F6C0
E2C0
0400
0E00
1F00
7BC0
71C0
ENDCHAR
STARTCHAR U+ACD8
ENCODING 44248
SWIDTH 666 0
DWIDTH 12 0
BBX 10 11 0 0
BITMAP
FAC0
FEC0
1AC0
3EC0
F6C0
E2C0
0000
1100
3B80
7FC0
6EC0
ENDCHAR
STARTCHAR U+ACD9
ENCODING 44249
SWIDTH 666 0
DWIDTH 12 0
BBX 10 11 0 0
BITMAP
FAC0
FEC0
1AC0
3EC0
F6C0
E2C0
0000
3F80
60C0
7FC0
3F80
ENDCHAR
STARTCHAR U+ACDA
ENCODING 44250
SWIDTH 666 0
DWIDTH 12 0
BBX 10 11 0 0
BITMAP
FAC0
FEC0
1AC0
3EC0
F6C0
E2C0
0000
7FC0
1F00
7BC0
71C0
ENDCHAR
STARTCHAR U+ACDB
ENCODING 44251
SWIDTH 666 0
DWIDTH 12 0
BBX 10 11 0 0
BITMAP
FAC0
FEC0
1AC0
3EC0
F6C0
E2C0
0C00
7FC0
1F00
7BC0
71C0
ENDCHAR
STARTCHAR U+ACDC
ENCODING 44252
SWIDTH 666 0
DWIDTH 12 0
BBX 10 11 0 0
BITMAP
FAC0
FEC0
1AC0
3EC0
F6C0
E2C0
0000
7FC0
00C0
7FC0
00C0
ENDCHAR
STARTCHAR U+ACDD
ENCODING 44253
SWIDTH 666 0
DWIDTH 12 0
BBX 10 11 0 0
BITMAP
FAC0
FEC0
1AC0
3EC0
F2C0
FFC0
6000
7FC0
6000
7FC0
7FC0
ENDCHAR
STARTCHAR U+ACDE
ENCODING 44254
SWIDTH 666 0
DWIDTH 12 0
BBX 10 11 0 0
BITMAP
FAC0
FEC0
1AC0
3EC0
F6C0
E2C0
0000
7FC0
3180
7FC0
7FC0
ENDCHAR
STARTCHAR U+ACDF
ENCODING 44255
SWIDTH 666 0
DWIDTH 12 0
BBX 10 11 0 0
BITMAP
FAC0
FEC0
1AC0
3EC0
F6C0
E2C0
0C00
7FC0
3180
3F80
1F00
ENDCHAR
STARTCHAR U+ACE0
ENCODING 44256
SWIDTH 666 0
DWIDTH 12 0
BBX 11 10 0 1
BITMAP
7FC0
7FC0
00C0
00C0
0CC0
0CC0
0CC0
0C00
FFE0
FFE0
ENDCHAR
STARTCHAR U+ACE1
ENCODING 44257
SWIDTH 666 0
DWIDTH 12 0
BBX 11 11 0 0
BITMAP
7FC0
7FC0
00C0
0CC0
0CC0
FFE0
0000
7FC0
7FC0
00C0
00C0
ENDCHAR
STARTCHAR U+ACE2
ENCODING 44258
SWIDTH 666 0
DWIDTH 12 0
BBX 11 11 0 0
BITMAP
7FC0
7FC0
00C0
0CC0
0CC0
FFE0
0000
7FC0
7FC0
0CC0
0CC0
ENDCHAR
STARTCHAR U+ACE3
ENCODING 44259
SWIDTH 666 0
DWIDTH 12 0
BBX 11 11 0 0
BITMAP
7FC0
7FC0
00C0
0CC0
0CC0
FFE0
0000
7980
7980
1BC0
1AC0
ENDCHAR
STARTCHAR U+ACE4
ENCODING 44260
SWIDTH 666 0
DWIDTH 12 0
BBX 11 11 0 0
BITMAP
7FC0
7FC0
00C0
0CC0
0CC0
FFE0
FFE0
0000
6000
7FC0
7FC0
ENDCHAR
STARTCHAR U+ACE5
ENCODING 44261
SWIDTH 666 0
DWIDTH 12 0
BBX 11 11 0 0
BITMAP
7FC0
7FC0
00C0
0CC0
0CC0
FFE0
0000
67C0
6380
7FC0
7EC0
ENDCHAR
STARTCHAR U+ACE6
ENCODING 44262
SWIDTH 666 0
DWIDTH 12 0
BBX 11 11 0 0
BITMAP
7FC0
7FC0
00C0
0CC0
0CC0
FFE0
0300
6FE0
66C0
7FC0
7B80
ENDCHAR
STARTCHAR U+ACE7
ENCODING 44263
SWIDTH 666 0
DWIDTH 12 0
BBX 11 11 0 0
BITMAP
7FC0
7FC0
00C0
0CC0
0CC0
FFE0
0000
7FC0
6000
7FC0
7FC0
ENDCHAR
STARTCHAR U+ACE8
ENCODING 44264
SWIDTH 666 0
DWIDTH 12 0
BBX 11 11 0 0
BITMAP
7FC0
7FC0
00C0
0CC0
FFE0
0000
7FC0
07C0
7800
7FC0
7FC0
ENDCHAR
STARTCHAR U+ACE9
ENCODING 44265
SWIDTH 666 0
DWIDTH 12 0
BBX 11 11 0 0
BITMAP
7FC0
7FC0
00C0
0CC0
FFE0
0000
7BC0
1BC0
60C0
78C0
78C0
ENDCHAR
STARTCHAR U+ACEA
ENCODING 44266
SWIDTH 666 0
DWIDTH 12 0
BBX 11 11 0 0
BITMAP
7FC0
7FC0
00C0
0CC0
FFE0
0000
7BC0
1AC0
62C0
7BC0
7BC0
ENDCHAR
STARTCHAR U+ACEB
ENCODING 44267
SWIDTH 666 0
DWIDTH 12 0
BBX 11 11 0 0
BITMAP
7FC0
7FC0
00C0
0CC0
FFE0
0000
7AC0
1BC0
62C0
7BC0
7BC0
ENDCHAR
STARTCHAR U+ACEC
ENCODING 44268
SWIDTH 666 0
DWIDTH 12 0
BBX 11 11 0 0
BITMAP
7FC0
7FC0
00C0
0CC0
FFE0
0000
7980
1980
6180
7BC0
7AC0
ENDCHAR
STARTCHAR U+ACED
ENCODING 44269
SWIDTH 666 0
DWIDTH 12 0
BBX 11 11 0 0
BITMAP
7FC0
7FC0
00C0
0CC0
FFE0
0000
7BC0
1B00
63C0
7B00
7BC0
ENDCHAR
STARTCHAR U+ACEE
ENCODING 44270
SWIDTH 666 0
DWIDTH 12 0
BBX 11 11 0 0
BITMAP
7FC0
7FC0
00C0
0CC0
FFE0
0000
7FC0
1A80
6280
7FC0
7FC0
ENDCHAR
STARTCHAR U+ACEF
ENCODING 44271
SWIDTH 666 0
DWIDTH 12 0
BBX 11 11 0 0
BITMAP
7FC0
7FC0
00C0
0CC0
FFE0
0100
7FC0
1B80
66C0
7FC0
7B80
ENDCHAR
STARTCHAR U+ACF0
ENCODING 44272
SWIDTH 666 0
DWIDTH 12 0
BBX 11 11 0 0
BITMAP
7FC0
7FC0
00C0
0CC0
0CC0
FFE0
0000
7FC0
60C0
7FC0
7FC0
ENDCHAR
STARTCHAR U+ACF1
ENCODING 44273
SWIDTH 666 0
DWIDTH 12 0
BBX 11 11 0 0
BITMAP
7FC0
7FC0
00C0
0CC0
0CC0
FFE0
60C0
7FC0
60C0
7FC0
7FC0
ENDCHAR
STARTCHAR U+ACF2
ENCODING 44274
SWIDTH 666 0
DWIDTH 12 0
BBX 11 11 0 0
BITMAP
7FC0
7FC0
00C0
0CC0
0CC0
FFE0
0000
6D80
7D80
6FC0
7EC0
ENDCHAR
STARTCHAR U+ACF3
ENCODING 44275
SWIDTH 666 0
DWIDTH 12 0
BBX 11 11 0 0
BITMAP
7FC0
7FC0
00C0
0CC0
0CC0
FFE0
0000
0E00
1F00
7BC0
71C0
ENDCHAR
STARTCHAR U+ACF4
ENCODING 44276
SWIDTH 666 0
DWIDTH 12 0
BBX 11 11 0 0
BITMAP
7FC0
7FC0
00C0
0CC0
0CC0
FFE0
0000
1100
3B80
7FC0
6EC0
ENDCHAR
STARTCHAR U+ACF5
ENCODING 44277
SWIDTH 666 0
DWIDTH 12 0
BBX 11 11 0 0
BITMAP
7FC0
7FC0
00C0
0CC0
0CC0
FFE0
0000
3F80
60C0
7FC0
3F80
ENDCHAR
STARTCHAR U+ACF6
ENCODING 44278
SWIDTH 666 0
DWIDTH 12 0
BBX 11 11 0 0
BITMAP
7FC0
7FC0
00C0
0CC0
0CC0
FFE0
0000
7FC0
1F00
7BC0
71C0
ENDCHAR
STARTCHAR U+ACF7
ENCODING 44279
SWIDTH 666 0
DWIDTH 12 0
BBX 11 11 0 0
BITMAP
7FC0
7FC0
00C0
0CC0
0CC0
FFE0
0600
7FC0
1F00
7BC0
71C0
ENDCHAR
STARTCHAR U+ACF8
ENCODING 44280
SWIDTH 666 0
DWIDTH 12 0
BBX 11 11 0 0
BITMAP
7FC0
7FC0
00C0
0CC0
0CC0
FFE0
0000
7FC0
00C0
7FC0
00C0
ENDCHAR
STARTCHAR U+ACF9
ENCODING 44281
SWIDTH 666 0
DWIDTH 12 0
BBX 11 11 0 0
BITMAP
7FC0
7FC0
00C0
0CC0
0CC0
FFE0
6000
7FC0
6000
7FC0
7FC0
ENDCHAR
STARTCHAR U+ACFA
ENCODING 44282
SWIDTH 666 0
DWIDTH 12 0
BBX 11 11 0 0
BITMAP
7FC0
7FC0
00C0
0CC0
0CC0
FFE0
0000
7FC0
3180
7FC0
7FC0
ENDCHAR
STARTCHAR U+ACFB
ENCODING 44283
SWIDTH 666 0
DWIDTH 12 0
BBX 11 11 0 0
BITMAP
7FC0
7FC0
00C0
0CC0
0CC0
FFE0
0600
7FC0
3180
3F80
1F00
ENDCHAR
STARTCHAR U+ACFC
ENCODING 44284
SWIDTH 666 0
DWIDTH 12 0
BBX 11 11 0 0
BITMAP
FEC0
FEC0
06C0
06C0
36E0
36E0
36C0
30C0
FFC0
FFC0
00C0
ENDCHAR
STARTCHAR U+ACFD
ENCODING 44285
SWIDTH 666 0
DWIDTH 12 0
BBX 11 11 0 0
BITMAP
FEC0
FEC0
06E0
36E0
30C0
FFC0
0000
7FC0
7FC0
00C0
00C0
ENDCHAR
STARTCHAR U+ACFE
ENCODING 44286
SWIDTH 666 0
DWIDTH 12 0
BBX 11 11 0 0
BITMAP
FEC0
FEC0
06E0
36E0
30C0
FFC0
0000
7FC0
7FC0
0CC0
0CC0
ENDCHAR
STARTCHAR U+ACFF
ENCODING 44287
SWIDTH 666 0
DWIDTH 12 0
BBX 11 11 0 0
BITMAP
FEC0
FEC0
06E0
36E0
30C0
FFC0
0000
7980
7980
1BC0
1AC0
ENDCHAR
STARTCHAR U+AD00
ENCODING 44288
SWIDTH 666 0
DWIDTH 12 0
BBX 11 11 0 0
BITMAP
FEC0
FEC0
06E0
36E0
30C0
FFC0
00C0
6000
6000
7FC0
7FC0
ENDCHAR
STARTCHAR U+AD01
ENCODING 44289
SWIDTH 666 0
DWIDTH 12 0
BBX 11 11 0 0
BITMAP
FEC0
FEC0
06E0
36E0
30C0
FFC0
0000
67C0
6380
7FC0
7EC0
ENDCHAR
STARTCHAR U+AD02
ENCODING 44290
SWIDTH 666 0
DWIDTH 12 0
BBX 11 11 0 0
BITMAP
FEC0
FEC0
06E0
36E0
30C0
FFC0
0300
6FE0
66C0
7FC0
7B80
ENDCHAR
STARTCHAR U+AD03
ENCODING 44291
SWIDTH 666 0
DWIDTH 12 0
BBX 11 11 0 0
BITMAP
FEC0
FEC0
06E0
36E0
30C0
FFC0
0000
7FC0
6000
7FC0
7FC0
ENDCHAR
STARTCHAR U+AD04
ENCODING 44292
SWIDTH 666 0
DWIDTH 12 0
BBX 11 11 0 0
BITMAP
FEC0
FEC0
06E0
36E0
FFC0
0000
7FC0
07C0
7800
7FC0
7FC0
ENDCHAR
STARTCHAR U+AD05
ENCODING 44293
SWIDTH 666 0
DWIDTH 12 0
BBX 11 11 0 0
BITMAP
FEC0
FEC0
06E0
36E0
FFC0
0000
7BC0
1BC0
60C0
78C0
78C0
ENDCHAR
STARTCHAR U+AD06
ENCODING 44294
SWIDTH 666 0
DWIDTH 12 0
BBX 11 11 0 0
BITMAP
FEC0
FEC0
06E0
36E0
FFC0
0000
7BC0
1AC0
62C0
7BC0
7BC0
ENDCHAR
STARTCHAR U+AD07
ENCODING 44295
SWIDTH 666 0
DWIDTH 12 0
BBX 11 11 0 0
BITMAP
FEC0
FEC0
06E0
36E0
FFC0
0000
7AC0
1BC0
62C0
7BC0
7BC0
ENDCHAR
STARTCHAR U+AD08
ENCODING 44296
SWIDTH 666 0
DWIDTH 12 0
BBX 11 11 0 0
BITMAP
FEC0
FEC0
06E0
36E0
FFC0
0000
7980
1980
6180
7BC0
7AC0
ENDCHAR
STARTCHAR U+AD09
ENCODING 44297
SWIDTH 666 0
DWIDTH 12 0
BBX 11 11 0 0
BITMAP
FEC0
FEC0
06E0
36E0
FFC0
0000
7BC0
1B00
63C0
7B00
7BC0
ENDCHAR
STARTCHAR U+AD0A
ENCODING 44298
SWIDTH 666 0
DWIDTH 12 0
BBX 11 11 0 0
BITMAP
FEC0
FEC0
06E0
36E0
FFC0
0000
7FC0
1A80
6280
7FC0
7FC0
ENDCHAR
STARTCHAR U+AD0B
ENCODING 44299
SWIDTH 666 0
DWIDTH 12 0
BBX 11 11 0 0
BITMAP
FEC0
FEC0
06E0
36E0
FFC0
0100
7FC0
1B80
66C0
7FC0
7B80
ENDCHAR
STARTCHAR U+AD0C
ENCODING 44300
SWIDTH 666 0
DWIDTH 12 0
BBX 11 11 0 0
BITMAP
FEC0
FEC0
06E0
36E0
30C0
FFC0
0000
7FC0
60C0
7FC0
7FC0
ENDCHAR
STARTCHAR U+AD0D
ENCODING 44301
SWIDTH 666 0
DWIDTH 12 0
BBX 11 11 0 0
BITMAP
FEC0
FEC0
06E0
36C0
30C0
FFC0
60C0
7FC0
60C0
7FC0
7FC0
ENDCHAR
STARTCHAR U+AD0E
ENCODING 44302
SWIDTH 666 0
DWIDTH 12 0
BBX 11 11 0 0
BITMAP
FEC0
FEC0
06E0
36C0
30C0
FFC0
0000
6D80
7D80
6FC0
7EC0
ENDCHAR
STARTCHAR U+AD0F
ENCODING 44303
SWIDTH 666 0
DWIDTH 12 0
BBX 11 11 0 0
BITMAP
FEC0
FEC0
06E0
36E0
30C0
FFC0
00C0
0E00
1F00
7BC0
71C0
ENDCHAR
STARTCHAR U+AD10
ENCODING 44304
SWIDTH 666 0
DWIDTH 12 0
BBX 11 11 0 0
BITMAP
FEC0
FEC0
06E0
36E0
30C0
FFC0
0000
1100
3B80
7FC0
6EC0
ENDCHAR
STARTCHAR U+AD11
ENCODING 44305
SWIDTH 666 0
DWIDTH 12 0
BBX 11 11 0 0
BITMAP
FEC0
FEC0
06E0
36E0
30C0
FFC0
0000
3F80
60C0
7FC0
3F80
ENDCHAR
STARTCHAR U+AD12
ENCODING 44306
SWIDTH 666 0
DWIDTH 12 0
BBX 11 11 0 0
BITMAP
FEC0
FEC0
06E0
36E0
30C0
FFC0
0000
7FC0
1F00
7BC0
71C0
ENDCHAR
STARTCHAR U+AD13
ENCODING 44307
SWIDTH 666 0
DWIDTH 12 0
BBX 11 11 0 0
BITMAP
FEC0
FEC0
06E0
36E0
30C0
FFC0
0600
7FC0
1F00
7BC0
71C0
ENDCHAR
STARTCHAR U+AD14
ENCODING 44308
SWIDTH 666 0
DWIDTH 12 0
BBX 11 11 0 0
BITMAP
FEC0
FEC0
06E0
36E0
30C0
FFC0
0000
7FC0
00C0
7FC0
00C0
ENDCHAR
STARTCHAR U+AD15
ENCODING 44309
SWIDTH 666 0
DWIDTH 12 0
BBX 11 11 0 0
BITMAP
FEC0
FEC0
06E0
36E0
30C0
FFC0
6000
7FC0
6000
7FC0
7FC0
ENDCHAR
STARTCHAR U+AD16
ENCODING 44310
SWIDTH 666 0
DWIDTH 12 0
BBX 11 11 0 0
BITMAP
FEC0
FEC0
06E0
36E0
30C0
FFC0
0000
7FC0
3180
7FC0
7FC0
ENDCHAR
STARTCHAR U+AD17
ENCODING 44311
SWIDTH 666 0
DWIDTH 12 0
BBX 11 11 0 0
BITMAP
FEC0
FEC0
06E0
36E0
30C0
FFC0
0600
7FC0
3180
3F80
1F00
ENDCHAR
STARTCHAR U+AD18
ENCODING 44312
SWIDTH 666 0
DWIDTH 12 0
BBX 10 11 0 0
BITMAP
FAC0
FAC0
0AC0
0AC0
6BC0
6BC0
62C0
62C0
FEC0
FEC0
02C0
ENDCHAR
STARTCHAR U+AD19
ENCODING 44313
SWIDTH 666 0
DWIDTH 12 0
BBX 10 11 0 0
BITMAP
FAC0
FAC0
0BC0
6BC0
6AC0
FEC0
0000
7FC0
7FC0
00C0
00C0
ENDCHAR
STARTCHAR U+AD1A
ENCODING 44314
SWIDTH 666 0
DWIDTH 12 0
BBX 10 11 0 0
BITMAP
FAC0
FAC0
0BC0
6BC0
6AC0
FEC0
0000
7FC0
7FC0
0CC0
0CC0
ENDCHAR
STARTCHAR U+AD1B
ENCODING 44315
SWIDTH 666 0
DWIDTH 12 0
BBX 10 11 0 0
BITMAP
FAC0
FAC0
0BC0
6BC0
6AC0
FEC0
0000
7980
7980
1BC0
1AC0
ENDCHAR
STARTCHAR U+AD1C
ENCODING 44316
SWIDTH 666 0
DWIDTH 12 0
BBX 10 11 0 0
BITMAP
FAC0
FAC0
0BC0
6BC0
6AC0
FEC0
02C0
6000
6000
7FC0
7FC0
ENDCHAR
STARTCHAR U+AD1D
ENCODING 44317
SWIDTH 666 0
DWIDTH 12 0
BBX 10 11 0 0
BITMAP
FAC0
FAC0
0BC0
6BC0
6AC0
FEC0
0000
67C0
6380
7FC0
7EC0
ENDCHAR
STARTCHAR U+AD1E
ENCODING 44318
SWIDTH 666 0
DWIDTH 12 0
BBX 11 11 0 0
BITMAP
FAC0
FAC0
0BC0
6BC0
6AC0
FEC0
0180
6FE0
66C0
7FC0
7B80
ENDCHAR
STARTCHAR U+AD1F
ENCODING 44319
SWIDTH 666 0
DWIDTH 12 0
BBX 10 11 0 0
BITMAP
FAC0
FAC0
0BC0
6BC0
6AC0
FEC0
0000
7FC0
6000
7FC0
7FC0
ENDCHAR
STARTCHAR U+AD20
ENCODING 44320
SWIDTH 666 0
DWIDTH 12 0
BBX 10 11 0 0
BITMAP
FAC0
FAC0
0BC0
6BC0
FEC0
0000
7FC0
07C0
7800
7FC0
7FC0
ENDCHAR
STARTCHAR U+AD21
ENCODING 44321
SWIDTH 666 0
DWIDTH 12 0
BBX 10 11 0 0
BITMAP
FAC0
FAC0
0BC0
6BC0
FEC0
0000
7BC0
1BC0
60C0
78C0
78C0
ENDCHAR
STARTCHAR U+AD22
ENCODING 44322
SWIDTH 666 0
DWIDTH 12 0
BBX 10 11 0 0
BITMAP
FAC0
FAC0
0BC0
6BC0
FEC0
0000
7BC0
1AC0
62C0
7BC0
7BC0
ENDCHAR
STARTCHAR U+AD23
ENCODING 44323
SWIDTH 666 0
DWIDTH 12 0
BBX 10 11 0 0
BITMAP
FAC0
FAC0
0BC0
6BC0
FEC0
0000
7AC0
1BC0
62C0
7BC0
7BC0
ENDCHAR
STARTCHAR U+AD24
ENCODING 44324
SWIDTH 666 0
DWIDTH 12 0
BBX 10 11 0 0
BITMAP
FAC0
FAC0
0BC0
6BC0
FEC0
0000
7980
1980
6180
7BC0
7AC0
ENDCHAR
STARTCHAR U+AD25
ENCODING 44325
SWIDTH 666 0
DWIDTH 12 0
BBX 10 11 0 0
BITMAP
FAC0
FAC0
0BC0
6BC0
FEC0
0000
7BC0
1B00
63C0
7B00
7BC0
ENDCHAR
STARTCHAR U+AD26
ENCODING 44326
SWIDTH 666 0
DWIDTH 12 0
BBX 10 11 0 0
BITMAP
FAC0
FAC0
0BC0
6BC0
FEC0
0000
7FC0
1A80
6280
7FC0
7FC0
ENDCHAR
STARTCHAR U+AD27
ENCODING 44327
SWIDTH 666 0
DWIDTH 12 0
BBX 10 11 0 0
BITMAP
FAC0
FAC0
0BC0
6BC0
FEC0
0100
7FC0
1B80
66C0
7FC0
7B80
ENDCHAR
STARTCHAR U+AD28
ENCODING 44328
SWIDTH 666 0
DWIDTH 12 0
BBX 10 11 0 0
BITMAP
FAC0
FAC0
0BC0
6BC0
6AC0
FEC0
0000
7FC0
60C0
7FC0
7FC0
ENDCHAR
STARTCHAR U+AD29
ENCODING 44329
SWIDTH 666 0
DWIDTH 12 0
BBX 10 11 0 0
BITMAP
FAC0
FAC0
0BC0
6BC0
6AC0
FEC0
60C0
7FC0
60C0
7FC0
7FC0
ENDCHAR
STARTCHAR U+AD2A
ENCODING 44330
SWIDTH 666 0
DWIDTH 12 0
BBX 10 11 0 0
BITMAP
FAC0
FAC0
0BC0
6BC0
6AC0
FEC0
0000
6D80
7D80
6FC0
7EC0
ENDCHAR
STARTCHAR U+AD2B
ENCODING 44331
SWIDTH 666 0
DWIDTH 12 0
BBX 10 11 0 0
BITMAP
FAC0
FAC0
0BC0
6BC0
62C0
FEC0
0000
0E00
1F00
7BC0
71C0
ENDCHAR
STARTCHAR U+AD2C
ENCODING 44332
SWIDTH 666 0
DWIDTH 12 0
BBX 10 11 0 0
BITMAP
FAC0
FAC0
0BC0
6BC0
62C0
FEC0
0000
1100
3B80
7FC0
6EC0
ENDCHAR
STARTCHAR U+AD2D
ENCODING 44333
SWIDTH 666 0
DWIDTH 12 0
BBX 10 11 0 0
BITMAP
FAC0
FAC0
0BC0
6BC0
62C0
FEC0
0000
3F80
60C0
7FC0
3F80
ENDCHAR
STARTCHAR U+AD2E
ENCODING 44334
SWIDTH 666 0
DWIDTH 12 0
BBX 10 11 0 0
BITMAP
FAC0
FAC0
0BC0
6BC0
62C0
FEC0
0000
7FC0
1F00
7BC0
71C0
ENDCHAR
STARTCHAR U+AD2F
ENCODING 44335
SWIDTH 666 0
DWIDTH 12 0
BBX 10 11 0 0
BITMAP
FAC0
FAC0
0BC0
6BC0
62C0
FEC0
0C00
7FC0
1F00
7BC0
71C0
ENDCHAR
STARTCHAR U+AD30
ENCODING 44336
SWIDTH 666 0
DWIDTH 12 0
BBX 10 11 0 0
BITMAP
FAC0
FAC0
0BC0
6BC0
62C0
FEC0
0000
7FC0
00C0
7FC0
00C0
ENDCHAR
STARTCHAR U+AD31
ENCODING 44337
SWIDTH 666 0
DWIDTH 12 0
BBX 10 11 0 0
BITMAP
FAC0
FAC0
0BC0
6BC0
62C0
FFC0
6000
7FC0
6000
7FC0
7FC0
ENDCHAR
STARTCHAR U+AD32
ENCODING 44338
SWIDTH 666 0
DWIDTH 12 0
BBX 10 11 0 0
BITMAP
FAC0
FAC0
0BC0
6BC0
62C0
FEC0
0000
7FC0
3180
7FC0
7FC0
ENDCHAR
STARTCHAR U+AD33
ENCODING 44339
SWIDTH 666 0
DWIDTH 12 0
BBX 10 11 0 0
BITMAP
FAC0
FAC0
0BC0
6BC0
62C0
FEC0
0C00
7FC0
3180
3F80
1F00
ENDCHAR
STARTCHAR U+AD34
ENCODING 44340
SWIDTH 666 0
DWIDTH 12 0
BBX 10 11 0 0
BITMAP
FEC0
FEC0
06C0
06C0
36C0
36C0
36C0
30C0
FFC0
FFC0
00C0
ENDCHAR
STARTCHAR U+AD35
ENCODING 44341
SWIDTH 666 0
DWIDTH 12 0
BBX 10 11 0 0
BITMAP
7EC0
7EC0
06C0
36C0
30C0
FFC0
0000
7FC0
7FC0
00C0
00C0
ENDCHAR
STARTCHAR U+AD36
ENCODING 44342
SWIDTH 666 0
DWIDTH 12 0
BBX 10 11 0 0
BITMAP
7EC0
7EC0
06C0
36C0
30C0
FFC0
0000
7FC0
7FC0
0CC0
0CC0
ENDCHAR
STARTCHAR U+AD37
ENCODING 44343
SWIDTH 666 0
DWIDTH 12 0
BBX 10 11 0 0
BITMAP
7EC0
7EC0
06C0
36C0
30C0
FFC0
0000
7980
7980
1BC0
1AC0
ENDCHAR
STARTCHAR U+AD38
ENCODING 44344
SWIDTH 666 0
DWIDTH 12 0
BBX 10 11 0 0
BITMAP
7EC0
7EC0
06C0
36C0
30C0
FFC0
00C0
6000
6000
7FC0
7FC0
ENDCHAR
STARTCHAR U+AD39
ENCODING 44345
SWIDTH 666 0
DWIDTH 12 0
BBX 10 11 0 0
BITMAP
7EC0
7EC0
06C0
36C0
30C0
FFC0
0000
67C0
6380
7FC0
7EC0
ENDCHAR
STARTCHAR U+AD3A
ENCODING 44346
SWIDTH 666 0
DWIDTH 12 0
BBX 11 11 0 0
BITMAP
7EC0
7EC0
06C0
36C0
30C0
FFC0
0300
6FE0
66C0
7FC0
7B80
ENDCHAR
STARTCHAR U+AD3B
ENCODING 44347
SWIDTH 666 0
DWIDTH 12 0
BBX 10 11 0 0
BITMAP
7EC0
7EC0
06C0
36C0
30C0
FFC0
0000
7FC0
6000
7FC0
7FC0
ENDCHAR
STARTCHAR U+AD3C
ENCODING 44348
SWIDTH 666 0
DWIDTH 12 0
BBX 10 11 0 0
BITMAP
7EC0
7EC0
06C0
36C0
FFC0
0000
7FC0
07C0
7800
7FC0
7FC0
ENDCHAR
STARTCHAR U+AD3D
ENCODING 44349
SWIDTH 666 0
DWIDTH 12 0
BBX 10 11 0 0
BITMAP
7EC0
7EC0
06C0
36C0
FFC0
0000
7BC0
1BC0
60C0
78C0
78C0
ENDCHAR
STARTCHAR U+AD3E
ENCODING 44350
SWIDTH 666 0
DWIDTH 12 0
BBX 10 11 0 0
BITMAP
7EC0
7EC0
06C0
36C0
FFC0
0000
7BC0
1AC0
62C0
7BC0
7BC0
ENDCHAR
STARTCHAR U+AD3F
ENCODING 44351
SWIDTH 666 0
DWIDTH 12 0
BBX 10 11 0 0
BITMAP
7EC0
7EC0
06C0
36C0
FFC0
0000
7AC0
1BC0
62C0
7BC0
7BC0
ENDCHAR
STARTCHAR U+AD40
ENCODING 44352
SWIDTH 666 0
DWIDTH 12 0
BBX 10 11 0 0
BITMAP
7EC0
7EC0
06C0
36C0
FFC0
0000
7980
1980
6180
7BC0
7AC0
ENDCHAR
STARTCHAR U+AD41
ENCODING 44353
SWIDTH 666 0
DWIDTH 12 0
BBX 10 11 0 0
BITMAP
7EC0
7EC0
06C0
36C0
FFC0
0000
7BC0
1B00
63C0
7B00
7BC0
ENDCHAR
STARTCHAR U+AD42
ENCODING 44354
SWIDTH 666 0
DWIDTH 12 0
BBX 10 11 0 0
BITMAP
7EC0
7EC0
06C0
36C0
FFC0
0000
7FC0
1A80
6280
7FC0
7FC0
ENDCHAR
STARTCHAR U+AD43
ENCODING 44355
SWIDTH 666 0
DWIDTH 12 0
BBX 10 11 0 0
BITMAP
7EC0
7EC0
06C0
36C0
FFC0
0100
7FC0
1B80
66C0
7FC0
7B80
ENDCHAR
STARTCHAR U+AD44
ENCODING 44356
SWIDTH 666 0
DWIDTH 12 0
BBX 10 11 0 0
BITMAP
7EC0
7EC0
06C0
36C0
30C0
FFC0
0000
7FC0
60C0
7FC0
7FC0
ENDCHAR
STARTCHAR U+AD45
ENCODING 44357
SWIDTH 666 0
DWIDTH 12 0
BBX 10 11 0 0
BITMAP
7EC0
7EC0
06C0
36C0
30C0
FFC0
60C0
7FC0
60C0
7FC0
7FC0
ENDCHAR
STARTCHAR U+AD46
ENCODING 44358
SWIDTH 666 0
DWIDTH 12 0
BBX 10 11 0 0
BITMAP
7EC0
7EC0
06C0
36C0
30C0
FFC0
0000
6D80
7D80
6FC0
7EC0
ENDCHAR
STARTCHAR U+AD47
ENCODING 44359
SWIDTH 666 0
DWIDTH 12 0
BBX 10 11 0 0
BITMAP
7EC0
7EC0
06C0
36C0
30C0
FFC0
00C0
0E00
1F00
7BC0
71C0
ENDCHAR
STARTCHAR U+AD48
ENCODING 44360
SWIDTH 666 0
DWIDTH 12 0
BBX 10 11 0 0
BITMAP
7EC0
7EC0
06C0
36C0
30C0
FFC0
0000
1100
3B80
7FC0
6EC0
ENDCHAR
STARTCHAR U+AD49
ENCODING 44361
SWIDTH 666 0
DWIDTH 12 0
BBX 10 11 0 0
BITMAP
7EC0
7EC0
06C0
36C0
30C0
FFC0
0000
3F80
60C0
7FC0
3F80
ENDCHAR
STARTCHAR U+AD4A
ENCODING 44362
SWIDTH 666 0
DWIDTH 12 0
BBX 10 11 0 0
BITMAP
7EC0
7EC0
06C0
36C0
30C0
FFC0
0000
7FC0
1F00
7BC0
71C0
ENDCHAR
STARTCHAR U+AD4B
ENCODING 44363
SWIDTH 666 0
DWIDTH 12 0
BBX 10 11 0 0
BITMAP
7EC0
7EC0
06C0
36C0
30C0
FFC0
0C00
7FC0
1F00
7BC0
71C0
ENDCHAR
STARTCHAR U+AD4C
ENCODING 44364
SWIDTH 666 0
DWIDTH 12 0
BBX 10 11 0 0
BITMAP
7EC0
7EC0
06C0
36C0
30C0
FFC0
0000
7FC0
00C0
7FC0
00C0
ENDCHAR
STARTCHAR U+AD4D
ENCODING 44365
SWIDTH 666 0
DWIDTH 12 0
BBX 10 11 0 0
BITMAP
7EC0
7EC0
06C0
36C0
30C0
FFC0
6000
7FC0
6000
7FC0
7FC0
ENDCHAR
STARTCHAR U+AD4E
ENCODING 44366
SWIDTH 666 0
DWIDTH 12 0
BBX 10 11 0 0
BITMAP
7EC0
7EC0
06C0
36C0
30C0
FFC0
0000
7FC0
3180
7FC0
7FC0
ENDCHAR
STARTCHAR U+AD4F
ENCODING 44367
SWIDTH 666 0
DWIDTH 12 0
BBX 10 11 0 0
BITMAP
7EC0
7EC0
06C0
36C0
30C0
FFC0
0C00
7FC0
3180
3F80
1F00
ENDCHAR
STARTCHAR U+AD50
ENCODING 44368
SWIDTH 666 0
DWIDTH 12 0
BBX 11 10 0 1
BITMAP
7FC0
7FC0
00C0
00C0
36C0
36C0
36C0
3600
FFE0
FFE0
ENDCHAR
STARTCHAR U+AD51
ENCODING 44369
SWIDTH 666 0
DWIDTH 12 0
BBX 11 11 0 0
BITMAP
7FC0
7FC0
00C0
36C0
36C0
FFE0
0000
7FC0
7FC0
00C0
00C0
ENDCHAR
STARTCHAR U+AD52
ENCODING 44370
SWIDTH 666 0
DWIDTH 12 0
BBX 11 11 0 0
BITMAP
7FC0
7FC0
00C0
36C0
36C0
FFE0
0000
7FC0
7FC0
0CC0
0CC0
ENDCHAR
STARTCHAR U+AD53
ENCODING 44371
SWIDTH 666 0
DWIDTH 12 0
BBX 11 11 0 0
BITMAP
7FC0
7FC0
00C0
36C0
36C0
FFE0
0000
7980
7980
1BC0
1AC0
ENDCHAR
STARTCHAR U+AD54
ENCODING 44372
SWIDTH 666 0
DWIDTH 12 0
BBX 11 11 0 0
BITMAP
7FC0
7FC0
00C0
36C0
36C0
FFE0
FFE0
0000
6000
7FC0
7FC0
ENDCHAR
STARTCHAR U+AD55
ENCODING 44373
SWIDTH 666 0
DWIDTH 12 0
BBX 11 11 0 0
BITMAP
7FC0
7FC0
00C0
36C0
36C0
FFE0
0000
67C0
6380
7FC0
7EC0
ENDCHAR
STARTCHAR U+AD56
ENCODING 44374
SWIDTH 666 0
DWIDTH 12 0
BBX 11 11 0 0
BITMAP
7FC0
7FC0
00C0
36C0
36C0
FFE0
0300
6FE0
66C0
7FC0
7B80
ENDCHAR
STARTCHAR U+AD57
ENCODING 44375
SWIDTH 666 0
DWIDTH 12 0
BBX 11 11 0 0
BITMAP
7FC0
7FC0
00C0
36C0
36C0
FFE0
0000
7FC0
6000
7FC0
7FC0
ENDCHAR
STARTCHAR U+AD58
ENCODING 44376
SWIDTH 666 0
DWIDTH 12 0
BBX 11 11 0 0
BITMAP
7FC0
7FC0
00C0
36C0
FFE0
0000
7FC0
07C0
7800
7FC0
7FC0
ENDCHAR
STARTCHAR U+AD59
ENCODING 44377
SWIDTH 666 0
DWIDTH 12 0
BBX 11 11 0 0
BITMAP
7FC0
7FC0
00C0
36C0
FFE0
0000
7BC0
1BC0
60C0
78C0
78C0
ENDCHAR
STARTCHAR U+AD5A
ENCODING 44378
SWIDTH 666 0
DWIDTH 12 0
BBX 11 11 0 0
BITMAP
7FC0
7FC0
00C0
36C0
FFE0
0000
7BC0
1AC0
62C0
7BC0
7BC0
ENDCHAR
STARTCHAR U+AD5B
ENCODING 44379
SWIDTH 666 0
DWIDTH 12 0
BBX 11 11 0 0
BITMAP
7FC0
7FC0
00C0
36C0
FFE0
0000
7AC0
1BC0
62C0
7BC0
7BC0
ENDCHAR
STARTCHAR U+AD5C
ENCODING 44380
SWIDTH 666 0
DWIDTH 12 0
BBX 11 11 0 0
BITMAP
7FC0
7FC0
00C0
36C0
FFE0
0000
7980
1980
6180
7BC0
7AC0
ENDCHAR
STARTCHAR U+AD5D
ENCODING 44381
SWIDTH 666 0
DWIDTH 12 0
BBX 11 11 0 0
BITMAP
7FC0
7FC0
00C0
36C0
FFE0
0000
7BC0
1B00
63C0
7B00
7BC0
ENDCHAR
STARTCHAR U+AD5E
ENCODING 44382
SWIDTH 666 0
DWIDTH 12 0
BBX 11 11 0 0
BITMAP
7FC0
7FC0
00C0
36C0
FFE0
0000
7FC0
1A80
6280
7FC0
7FC0
ENDCHAR
STARTCHAR U+AD5F
ENCODING 44383
SWIDTH 666 0
DWIDTH 12 0
BBX 11 11 0 0
BITMAP
7FC0
7FC0
00C0
36C0
FFE0
0100
7FC0
1B80
66C0
7FC0
7B80
ENDCHAR
STARTCHAR U+AD60
ENCODING 44384
SWIDTH 666 0
DWIDTH 12 0
BBX 11 11 0 0
BITMAP
7FC0
7FC0
00C0
36C0
36C0
FFE0
0000
7FC0
60C0
7FC0
7FC0
ENDCHAR
STARTCHAR U+AD61
ENCODING 44385
SWIDTH 666 0
DWIDTH 12 0
BBX 11 11 0 0
BITMAP
7FC0
7FC0
00C0
36C0
36C0
FFE0
60C0
7FC0
60C0
7FC0
7FC0
ENDCHAR
STARTCHAR U+AD62
ENCODING 44386
SWIDTH 666 0
DWIDTH 12 0
BBX 11 11 0 0
BITMAP
7FC0
7FC0
00C0
36C0
36C0
FFE0
0000
6D80
7D80
6FC0
7EC0
ENDCHAR
STARTCHAR U+AD63
ENCODING 44387
SWIDTH 666 0
DWIDTH 12 0
BBX 11 11 0 0
BITMAP
7FC0
7FC0
00C0
36C0
36C0
FFE0
0000
0E00
1F00
7BC0
71C0
ENDCHAR
STARTCHAR U+AD64
ENCODING 44388
SWIDTH 666 0
DWIDTH 12 0
BBX 11 11 0 0
BITMAP
7FC0
7FC0
00C0
36C0
36C0
FFE0
0000
1100
3B80
7FC0
6EC0
ENDCHAR
STARTCHAR U+AD65
ENCODING 44389
SWIDTH 666 0
DWIDTH 12 0
BBX 11 11 0 0
BITMAP
7FC0
7FC0
00C0
36C0
36C0
FFE0
0000
3F80
60C0
7FC0
3F80
ENDCHAR
STARTCHAR U+AD66
ENCODING 44390
SWIDTH 666 0
DWIDTH 12 0
BBX 11 11 0 0
BITMAP
7FC0
7FC0
00C0
36C0
36C0
FFE0
0000
7FC0
1F00
7BC0
71C0
ENDCHAR
STARTCHAR U+AD67
ENCODING 44391
SWIDTH 666 0
DWIDTH 12 0
BBX 11 11 0 0
BITMAP
7FC0
7FC0
00C0
36C0
36C0
FFE0
0C00
7FC0
1F00
7BC0
71C0
ENDCHAR
STARTCHAR U+AD68
ENCODING 44392
SWIDTH 666 0
DWIDTH 12 0
BBX 11 11 0 0
BITMAP
7FC0
7FC0
00C0
36C0
36C0
FFE0
0000
7FC0
00C0
7FC0
00C0
ENDCHAR
STARTCHAR U+AD69
ENCODING 44393
SWIDTH 666 0
DWIDTH 12 0
BBX 11 11 0 0
BITMAP
7FC0
7FC0
00C0
36C0
36C0
FFE0
6000
7FC0
6000
7FC0
7FC0
ENDCHAR
STARTCHAR U+AD6A
ENCODING 44394
SWIDTH 666 0
DWIDTH 12 0
BBX 11 11 0 0
BITMAP
7FC0
7FC0
00C0
36C0
36C0
FFE0
0000
7FC0
3180
7FC0
7FC0
ENDCHAR
STARTCHAR U+AD6B
ENCODING 44395
SWIDTH 666 0
DWIDTH 12 0
BBX 11 11 0 0
BITMAP
7FC0
7FC0
00C0
36C0
36C0
FFE0
0C00
7FC0
3180
3F80
1F00
ENDCHAR
STARTCHAR U+AD6C
ENCODING 44396
SWIDTH 666 0
DWIDTH 12 0
BBX 11 11 0 0
BITMAP
7FC0
7FC0
00C0
00C0
00C0
FFE0
FFE0
0600
0600
0600
0600
ENDCHAR
STARTCHAR U+AD6D
ENCODING 44397
SWIDTH 666 0
DWIDTH 12 0
BBX 11 11 0 0
BITMAP
7FC0
7FC0
00C0
00C0
FFE0
FFE0
0600
7FC0
7FC0
00C0
00C0
ENDCHAR
STARTCHAR U+AD6E
ENCODING 44398
SWIDTH 666 0
DWIDTH 12 0
BBX 11 11 0 0
BITMAP
7FC0
7FC0
00C0
00C0
FFE0
FFE0
0600
7FC0
7FC0
0CC0
0CC0
ENDCHAR
STARTCHAR U+AD6F
ENCODING 44399
SWIDTH 666 0
DWIDTH 12 0
BBX 11 11 0 0
BITMAP
7FC0
7FC0
00C0
00C0
FFE0
FFE0
0600
7F80
7980
1BC0
1AC0
ENDCHAR
STARTCHAR U+AD70
ENCODING 44400
SWIDTH 666 0
DWIDTH 12 0
BBX 11 11 0 0
BITMAP
7FC0
7FC0
00C0
00C0
FFE0
FFE0
0600
6600
6000
7FC0
7FC0
ENDCHAR
STARTCHAR U+AD71
ENCODING 44401
SWIDTH 666 0
DWIDTH 12 0
BBX 11 11 0 0
BITMAP
7FC0
7FC0
00C0
00C0
FFE0
FFE0
0C00
6FC0
6380
7FC0
7EC0
ENDCHAR
STARTCHAR U+AD72
ENCODING 44402
SWIDTH 666 0
DWIDTH 12 0
BBX 11 11 0 0
BITMAP
7FC0
7FC0
00C0
00C0
FFE0
FFE0
0D80
6FE0
66C0
7FC0
7B80
ENDCHAR
STARTCHAR U+AD73
ENCODING 44403
SWIDTH 666 0
DWIDTH 12 0
BBX 11 11 0 0
BITMAP
7FC0
7FC0
00C0
00C0
FFE0
FFE0
0600
7FC0
6000
7FC0
7FC0
ENDCHAR
STARTCHAR U+AD74
ENCODING 44404
SWIDTH 666 0
DWIDTH 12 0
BBX 11 11 0 0
BITMAP
7FC0
7FC0
00C0
FFE0
FFE0
0600
7FC0
07C0
7800
7FC0
7FC0
ENDCHAR
STARTCHAR U+AD75
ENCODING 44405
SWIDTH 666 0
DWIDTH 12 0
BBX 11 11 0 0
BITMAP
7FC0
7FC0
00C0
FFE0
FFE0
0600
7BC0
1BC0
60C0
78C0
78C0
ENDCHAR
STARTCHAR U+AD76
ENCODING 44406
SWIDTH 666 0
DWIDTH 12 0
BBX 11 11 0 0
BITMAP
7FC0
7FC0
00C0
FFE0
FFE0
0600
7BC0
1AC0
62C0
7BC0
7BC0
ENDCHAR
STARTCHAR U+AD77
ENCODING 44407
SWIDTH 666 0
DWIDTH 12 0
BBX 11 11 0 0
BITMAP
7FC0
7FC0
00C0
FFE0
FFE0
0600
7AC0
1BC0
62C0
7BC0
7BC0
ENDCHAR
STARTCHAR U+AD78
ENCODING 44408
SWIDTH 666 0
DWIDTH 12 0
BBX 11 11 0 0
BITMAP
7FC0
7FC0
00C0
FFE0
FFE0
0600
7980
1980
6180
7BC0
7AC0
ENDCHAR
STARTCHAR U+AD79
ENCODING 44409
SWIDTH 666 0
DWIDTH 12 0
BBX 11 11 0 0
BITMAP
7FC0
7FC0
00C0
FFE0
FFE0
0600
7BC0
1B00
63C0
7B00
7BC0
ENDCHAR
STARTCHAR U+AD7A
ENCODING 44410
SWIDTH 666 0
DWIDTH 12 0
BBX 11 11 0 0
BITMAP
7FC0
7FC0
00C0
FFE0
FFE0
0600
7FC0
1A80
6280
7FC0
7FC0
ENDCHAR
STARTCHAR U+AD7B
ENCODING 44411
SWIDTH 666 0
DWIDTH 12 0
BBX 11 11 0 0
BITMAP
7FC0
7FC0
00C0
FFE0
FFE0
0D00
7FC0
1B80
66C0
7FC0
7B80
ENDCHAR
STARTCHAR U+AD7C
ENCODING 44412
SWIDTH 666 0
DWIDTH 12 0
BBX 11 11 0 0
BITMAP
7FC0
7FC0
00C0
00C0
FFE0
FFE0
0600
7FC0
60C0
7FC0
7FC0
ENDCHAR
STARTCHAR U+AD7D
ENCODING 44413
SWIDTH 666 0
DWIDTH 12 0
BBX 11 11 0 0
BITMAP
7FC0
7FC0
00C0
FFE0
FFE0
0600
60C0
7FC0
60C0
7FC0
7FC0
ENDCHAR
STARTCHAR U+AD7E
ENCODING 44414
SWIDTH 666 0
DWIDTH 12 0
BBX 11 11 0 0
BITMAP
7FC0
7FC0
00C0
00C0
FFE0
FFE0
0600
6D80
7D80
6FC0
7EC0
ENDCHAR
STARTCHAR U+AD7F
ENCODING 44415
SWIDTH 666 0
DWIDTH 12 0
BBX 11 11 0 0
BITMAP
7FC0
7FC0
00C0
00C0
FFE0
FFE0
0600
0E00
1F00
7BC0
71C0
ENDCHAR
STARTCHAR U+AD80
ENCODING 44416
SWIDTH 666 0
DWIDTH 12 0
BBX 11 11 0 0
BITMAP
7FC0
7FC0
00C0
00C0
FFE0
FFE0
0600
1100
3B80
7FC0
6EC0
ENDCHAR
STARTCHAR U+AD81
ENCODING 44417
SWIDTH 666 0
DWIDTH 12 0
BBX 11 11 0 0
BITMAP
7FC0
7FC0
00C0
00C0
FFE0
FFE0
0600
3F80
60C0
7FC0
3F80
ENDCHAR
STARTCHAR U+AD82
ENCODING 44418
SWIDTH 666 0
DWIDTH 12 0
BBX 11 11 0 0
BITMAP
7FC0
7FC0
00C0
00C0
FFE0
FFE0
0600
7FC0
1F00
7BC0
71C0
ENDCHAR
STARTCHAR U+AD83
ENCODING 44419
SWIDTH 666 0
DWIDTH 12 0
BBX 11 11 0 0
BITMAP
7FC0
7FC0
00C0
00C0
FFE0
FFE0
0600
7FC0
1F00
7BC0
71C0
ENDCHAR
STARTCHAR U+AD84
ENCODING 44420
SWIDTH 666 0
DWIDTH 12 0
BBX 11 11 0 0
BITMAP
7FC0
7FC0
00C0
00C0
FFE0
FFE0
0600
7FC0
00C0
7FC0
00C0
ENDCHAR
STARTCHAR U+AD85
ENCODING 44421
SWIDTH 666 0
DWIDTH 12 0
BBX 11 11 0 0
BITMAP
7FC0
7FC0
00C0
FFE0
0600
7FC0
6000
7FC0
6000
7FC0
7FC0
ENDCHAR
STARTCHAR U+AD86
ENCODING 44422
SWIDTH 666 0
DWIDTH 12 0
BBX 11 11 0 0
BITMAP
7FC0
7FC0
00C0
00C0
FFE0
FFE0
0600
7FC0
3180
7FC0
7FC0
ENDCHAR
STARTCHAR U+AD87
ENCODING 44423
SWIDTH 666 0
DWIDTH 12 0
BBX 11 11 0 0
BITMAP
7FC0
7FC0
00C0
00C0
FFE0
FFE0
0600
7FC0
3180
3F80
1F00
ENDCHAR
STARTCHAR U+AD88
ENCODING 44424
SWIDTH 666 0
DWIDTH 12 0
BBX 10 11 0 0
BITMAP
FCC0
FCC0
0CC0
0CC0
0CC0
FEC0
FEC0
33C0
33C0
30C0
30C0
ENDCHAR
STARTCHAR U+AD89
ENCODING 44425
SWIDTH 666 0
DWIDTH 12 0
BBX 10 11 0 0
BITMAP
7EC0
7EC0
06C0
FEC0
FEC0
1BC0
18C0
7FC0
7FC0
00C0
00C0
ENDCHAR
STARTCHAR U+AD8A
ENCODING 44426
SWIDTH 666 0
DWIDTH 12 0
BBX 10 11 0 0
BITMAP
7EC0
7EC0
06C0
FEC0
FEC0
1BC0
18C0
7FC0
7FC0
0CC0
0CC0
ENDCHAR
STARTCHAR U+AD8B
ENCODING 44427
SWIDTH 666 0
DWIDTH 12 0
BBX 10 11 0 0
BITMAP
7EC0
7EC0
06C0
FEC0
FEC0
1BC0
18C0
7980
7980
1BC0
1AC0
ENDCHAR
STARTCHAR U+AD8C
ENCODING 44428
SWIDTH 666 0
DWIDTH 12 0
BBX 10 11 0 0
BITMAP
7EC0
7EC0
06C0
FEC0
FEC0
1BC0
1BC0
78C0
6000
7FC0
7FC0
ENDCHAR
STARTCHAR U+AD90
ENCODING 44432
SWIDTH 666 0
DWIDTH 12 0
BBX 10 11 0 0
BITMAP
7EC0
7EC0
06C0
FEC0
1BC0
18C0
7FC0
07C0
7800
7FC0
7FC0
ENDCHAR
STARTCHAR U+AD91
ENCODING 44433
SWIDTH 666 0
DWIDTH 12 0
BBX 10 11 0 0
BITMAP
7EC0
7EC0
06C0
FEC0
1BC0
18C0
7BC0
1BC0
60C0
78C0
78C0
ENDCHAR
STARTCHAR U+AD92
ENCODING 44434
SWIDTH 666 0
DWIDTH 12 0
BBX 10 11 0 0
BITMAP
7EC0
7EC0
06C0
FEC0
1BC0
18C0
7BC0
1AC0
62C0
7BC0
7BC0
ENDCHAR
STARTCHAR U+AD93
ENCODING 44435
SWIDTH 666 0
DWIDTH 12 0
BBX 10 11 0 0
BITMAP
7EC0
7EC0
06C0
FEC0
1BC0
18C0
7AC0
1BC0
62C0
7BC0
7BC0
ENDCHAR
STARTCHAR U+AD94
ENCODING 44436
SWIDTH 666 0
DWIDTH 12 0
BBX 10 11 0 0
BITMAP
7EC0
7EC0
06C0
FEC0
1BC0
18C0
7980
1980
6180
7BC0
7AC0
ENDCHAR
STARTCHAR U+AD95
ENCODING 44437
SWIDTH 666 0
DWIDTH 12 0
BBX 10 11 0 0
BITMAP
7EC0
7EC0
06C0
FEC0
1BC0
18C0
7BC0
1B00
63C0
7B00
7BC0
ENDCHAR
STARTCHAR U+AD96
ENCODING 44438
SWIDTH 666 0
DWIDTH 12 0
BBX 10 11 0 0
BITMAP
7EC0
7EC0
06C0
FEC0
1BC0
18C0
7FC0
1A80
6280
7FC0
7FC0
ENDCHAR
STARTCHAR U+AD97
ENCODING 44439
SWIDTH 666 0
DWIDTH 12 0
BBX 10 11 0 0
BITMAP
7EC0
7EC0
06C0
FEC0
1BC0
19C0
7FC0
1B80
66C0
7FC0
7B80
ENDCHAR
STARTCHAR U+AD9C
ENCODING 44444
SWIDTH 666 0
DWIDTH 12 0
BBX 10 11 0 0
BITMAP
7EC0
7EC0
06C0
FEC0
FEC0
33C0
30C0
0100
3B80
7FC0
6EC0
ENDCHAR
STARTCHAR U+AD9D
ENCODING 44445
SWIDTH 666 0
DWIDTH 12 0
BBX 10 11 0 0
BITMAP
7EC0
7EC0
06C0
FEC0
FEC0
1BC0
18C0
3F80
60C0
7FC0
3F80
ENDCHAR
STARTCHAR U+ADA4
ENCODING 44452
SWIDTH 666 0
DWIDTH 12 0
BBX 10 11 0 0
BITMAP
FAC0
FAC0
1AC0
1AC0
02C0
FAC0
FAC0
6EC0
6EC0
62C0
62C0
ENDCHAR
STARTCHAR U+ADA5
ENCODING 44453
SWIDTH 666 0
DWIDTH 12 0
BBX 10 11 0 0
BITMAP
FAC0
FAC0
1AC0
FAC0
FAC0
2EC0
22C0
7FC0
7FC0
00C0
00C0
ENDCHAR
STARTCHAR U+ADA8
ENCODING 44456
SWIDTH 666 0
DWIDTH 12 0
BBX 10 11 0 0
BITMAP
FAC0
FAC0
1AC0
FAC0
FAC0
6EC0
62C0
0000
6000
7FC0
7FC0
ENDCHAR
STARTCHAR U+ADB7
ENCODING 44471
SWIDTH 666 0
DWIDTH 12 0
BBX 10 11 0 0
BITMAP
FAC0
FAC0
1AC0
FAC0
FAC0
6EC0
62C0
0E00
1F00
7BC0
71C0
ENDCHAR
STARTCHAR U+ADB8
ENCODING 44472
SWIDTH 666 0
DWIDTH 12 0
BBX 10 11 0 0
BITMAP
FAC0
FAC0
1AC0
FAC0
FAC0
6EC0
62C0
1100
3B80
7FC0
6EC0
ENDCHAR
STARTCHAR U+ADC0
ENCODING 44480
SWIDTH 666 0
DWIDTH 12 0
BBX 10 11 0 0
BITMAP
FEC0
FEC0
06C0
06C0
06C0
00C0
FFC0
FFC0
18C0
18C0
18C0
ENDCHAR
STARTCHAR U+ADC1
ENCODING 44481
SWIDTH 666 0
DWIDTH 12 0
BBX 10 11 0 0
BITMAP
7EC0
7EC0
06C0
FFC0
FFC0
18C0
1800
7FC0
7FC0
00C0
00C0
ENDCHAR
STARTCHAR U+ADC4
ENCODING 44484
SWIDTH 666 0
DWIDTH 12 0
BBX 10 11 0 0
BITMAP
7EC0
7EC0
06C0
FFC0
FFC0
18C0
18C0
6000
6000
7FC0
7FC0
ENDCHAR
STARTCHAR U+ADC8
ENCODING 44488
SWIDTH 666 0
DWIDTH 12 0
BBX 10 11 0 0
BITMAP
7EC0
7EC0
06C0
FFC0
FFC0
18C0
7FC0
07C0
7800
7FC0
7FC0
ENDCHAR
STARTCHAR U+ADD0
ENCODING 44496
SWIDTH 666 0
DWIDTH 12 0
BBX 10 11 0 0
BITMAP
7EC0
7EC0
06C0
FFC0
FFC0
18C0
1800
7FC0
60C0
7FC0
7FC0
ENDCHAR
STARTCHAR U+ADD1
ENCODING 44497
SWIDTH 666 0
DWIDTH 12 0
BBX 10 11 0 0
BITMAP
7EC0
7EC0
06C0
FFC0
FFC0
0CC0
6CC0
7FC0
60C0
7FC0
7FC0
ENDCHAR
STARTCHAR U+ADD3
ENCODING 44499
SWIDTH 666 0
DWIDTH 12 0
BBX 10 11 0 0
BITMAP
7EC0
7EC0
06C0
FFC0
FFC0
30C0
34C0
0E00
1F00
7BC0
71C0
ENDCHAR
STARTCHAR U+ADD5
ENCODING 44501
SWIDTH 666 0
DWIDTH 12 0
BBX 10 11 0 0
BITMAP
7EC0
7EC0
06C0
FFC0
FFC0
18C0
1800
3F80
60C0
7FC0
3F80
ENDCHAR
STARTCHAR U+ADDC
ENCODING 44508
SWIDTH 666 0
DWIDTH 12 0
BBX 11 11 0 0
BITMAP
7FC0
7FC0
00C0
00C0
00C0
FFE0
FFE0
3180
3180
3180
3180
ENDCHAR
STARTCHAR U+ADE0
ENCODING 44512
SWIDTH 666 0
DWIDTH 12 0
BBX 11 11 0 0
BITMAP
7FC0
7FC0
00C0
00C0
FFE0
FFE0
0D80
6D80
6000
7FC0
7FC0
ENDCHAR
STARTCHAR U+ADE4
ENCODING 44516
SWIDTH 666 0
DWIDTH 12 0
BBX 11 11 0 0
BITMAP
7FC0
7FC0
00C0
FFE0
FFE0
3180
7FC0
07C0
7800
7FC0
7FC0
ENDCHAR
STARTCHAR U+ADEC
ENCODING 44524
SWIDTH 666 0
DWIDTH 12 0
BBX 11 11 0 0
BITMAP
7FC0
7FC0
00C0
00C0
FFE0
FFE0
3180
7FC0
60C0
7FC0
7FC0
ENDCHAR
STARTCHAR U+ADED
ENCODING 44525
SWIDTH 666 0
DWIDTH 12 0
BBX 11 11 0 0
BITMAP
7FC0
7FC0
00C0
FFE0
FFE0
1B00
60C0
7FC0
60C0
7FC0
7FC0
ENDCHAR
STARTCHAR U+ADF8
ENCODING 44536
SWIDTH 666 0
DWIDTH 12 0
BBX 11 10 0 1
BITMAP
7FC0
7FC0
00C0
00C0
00C0
00C0
00C0
0000
FFE0
FFE0
ENDCHAR
STARTCHAR U+ADF9
ENCODING 44537
SWIDTH 666 0
DWIDTH 12 0
BBX 11 11 0 0
BITMAP
7FC0
7FC0
00C0
00C0
FFE0
FFE0
0000
7FC0
7FC0
00C0
00C0
ENDCHAR
STARTCHAR U+ADFA
ENCODING 44538
SWIDTH 666 0
DWIDTH 12 0
BBX 11 11 0 0
BITMAP
7FC0
7FC0
00C0
00C0
FFE0
FFE0
0000
7FC0
7FC0
0CC0
0CC0
ENDCHAR
STARTCHAR U+ADFB
ENCODING 44539
SWIDTH 666 0
DWIDTH 12 0
BBX 11 11 0 0
BITMAP
7FC0
7FC0
00C0
00C0
FFE0
FFE0
0000
7980
7980
1BC0
1AC0
ENDCHAR
STARTCHAR U+ADFC
ENCODING 44540
SWIDTH 666 0
DWIDTH 12 0
BBX 11 11 0 0
BITMAP
7FC0
7FC0
00C0
00C0
FFE0
FFE0
0000
6000
6000
7FC0
7FC0
ENDCHAR
STARTCHAR U+ADFD
ENCODING 44541
SWIDTH 666 0
DWIDTH 12 0
BBX 11 11 0 0
BITMAP
7FC0
7FC0
00C0
00C0
FFE0
FFE0
0000
67C0
6380
7FC0
7EC0
ENDCHAR
STARTCHAR U+ADFE
ENCODING 44542
SWIDTH 666 0
DWIDTH 12 0
BBX 11 11 0 0
BITMAP
7FC0
7FC0
00C0
00C0
FFE0
FFE0
0300
6FE0
66C0
7FC0
7B80
ENDCHAR
STARTCHAR U+ADFF
ENCODING 44543
SWIDTH 666 0
DWIDTH 12 0
BBX 11 11 0 0
BITMAP
7FC0
7FC0
00C0
00C0
FFE0
FFE0
0000
7FC0
6000
7FC0
7FC0
ENDCHAR
STARTCHAR U+AE00
ENCODING 44544
SWIDTH 666 0
DWIDTH 12 0
BBX 11 11 0 0
BITMAP
7FC0
7FC0
00C0
FFE0
FFE0
0000
7FC0
07C0
7800
7FC0
7FC0
ENDCHAR
STARTCHAR U+AE01
ENCODING 44545
SWIDTH 666 0
DWIDTH 12 0
BBX 11 11 0 0
BITMAP
7FC0
7FC0
00C0
FFE0
FFE0
0000
7BC0
1BC0
60C0
78C0
78C0
ENDCHAR
STARTCHAR U+AE02
ENCODING 44546
SWIDTH 666 0
DWIDTH 12 0
BBX 11 11 0 0
BITMAP
7FC0
7FC0
00C0
FFE0
FFE0
0000
7BC0
1AC0
62C0
7BC0
7BC0
ENDCHAR
STARTCHAR U+AE03
ENCODING 44547
SWIDTH 666 0
DWIDTH 12 0
BBX 11 11 0 0
BITMAP
7FC0
7FC0
00C0
FFE0
FFE0
0000
7AC0
1BC0
62C0
7BC0
7BC0
ENDCHAR
STARTCHAR U+AE04
ENCODING 44548
SWIDTH 666 0
DWIDTH 12 0
BBX 11 11 0 0
BITMAP
7FC0
7FC0
00C0
FFE0
FFE0
0000
7980
1980
6180
7BC0
7AC0
ENDCHAR
STARTCHAR U+AE05
ENCODING 44549
SWIDTH 666 0
DWIDTH 12 0
BBX 11 11 0 0
BITMAP
7FC0
7FC0
00C0
FFE0
FFE0
0000
7BC0
1B00
63C0
7B00
7BC0
ENDCHAR
STARTCHAR U+AE06
ENCODING 44550
SWIDTH 666 0
DWIDTH 12 0
BBX 11 11 0 0
BITMAP
7FC0
7FC0
00C0
FFE0
FFE0
0000
7FC0
1A80
6280
7FC0
7FC0
ENDCHAR
STARTCHAR U+AE07
ENCODING 44551
SWIDTH 666 0
DWIDTH 12 0
BBX 11 11 0 0
BITMAP
7FC0
7FC0
00C0
FFE0
FFE0
0300
7FC0
1B80
66C0
7FC0
7B80
ENDCHAR
STARTCHAR U+AE08
ENCODING 44552
SWIDTH 666 0
DWIDTH 12 0
BBX 11 11 0 0
BITMAP
7FC0
7FC0
00C0
00C0
FFE0
FFE0
0000
7FC0
60C0
7FC0
7FC0
ENDCHAR
STARTCHAR U+AE09
ENCODING 44553
SWIDTH 666 0
DWIDTH 12 0
BBX 11 11 0 0
BITMAP
7FC0
7FC0
00C0
00C0
FFE0
FFE0
60C0
7FC0
60C0
7FC0
7FC0
ENDCHAR
STARTCHAR U+AE0A
ENCODING 44554
SWIDTH 666 0
DWIDTH 12 0
BBX 11 11 0 0
BITMAP
7FC0
7FC0
00C0
00C0
FFE0
FFE0
0000
6D80
7D80
6FC0
7EC0
ENDCHAR
STARTCHAR U+AE0B
ENCODING 44555
SWIDTH 666 0
DWIDTH 12 0
BBX 11 11 0 0
BITMAP
7FC0
7FC0
00C0
00C0
FFE0
FFE0
0000
0E00
1F00
7BC0
71C0
ENDCHAR
STARTCHAR U+AE0C
ENCODING 44556
SWIDTH 666 0
DWIDTH 12 0
BBX 11 11 0 0
BITMAP
7FC0
7FC0
00C0
00C0
FFE0
FFE0
0000
1100
3B80
7FC0
6EC0
ENDCHAR
STARTCHAR U+AE0D
ENCODING 44557
SWIDTH 666 0
DWIDTH 12 0
BBX 11 11 0 0
BITMAP
7FC0
7FC0
00C0
00C0
FFE0
FFE0
0000
3F80
60C0
7FC0
3F80
ENDCHAR
STARTCHAR U+AE0E
ENCODING 44558
SWIDTH 666 0
DWIDTH 12 0
BBX 11 11 0 0
BITMAP
7FC0
7FC0
00C0
00C0
FFE0
FFE0
0000
7FC0
1F00
7BC0
71C0
ENDCHAR
STARTCHAR U+AE0F
ENCODING 44559
SWIDTH 666 0
DWIDTH 12 0
BBX 11 11 0 0
BITMAP
7FC0
7FC0
00C0
00C0
FFE0
FFE0
0600
7FC0
1F00
7BC0
71C0
ENDCHAR
STARTCHAR U+AE10
ENCODING 44560
SWIDTH 666 0
DWIDTH 12 0
BBX 11 11 0 0
BITMAP
7FC0
7FC0
00C0
00C0
FFE0
FFE0
0000
7FC0
00C0
7FC0
00C0
ENDCHAR
STARTCHAR U+AE11
ENCODING 44561
SWIDTH 666 0
DWIDTH 12 0
BBX 11 11 0 0
BITMAP
7FC0
7FC0
00C0
FFE0
0000
7FC0
6000
7FC0
6000
7FC0
7FC0
ENDCHAR
STARTCHAR U+AE12
ENCODING 44562
SWIDTH 666 0
DWIDTH 12 0
BBX 11 11 0 0
BITMAP
7FC0
7FC0
00C0
00C0
FFE0
FFE0
0000
7FC0
3180
7FC0
7FC0
ENDCHAR
STARTCHAR U+AE13
ENCODING 44563
SWIDTH 666 0
DWIDTH 12 0
BBX 11 11 0 0
BITMAP
7FC0
7FC0
00C0
00C0
FFE0
FFE0
0600
7FC0
3180
3F80
1F00
ENDCHAR
STARTCHAR U+AE14
ENCODING 44564
SWIDTH 666 0
DWIDTH 12 0
BBX 10 11 0 0
BITMAP
FEC0
FEC0
06C0
06C0
06C0
06C0
06C0
00C0
FFC0
FFC0
00C0
ENDCHAR
STARTCHAR U+AE18
ENCODING 44568
SWIDTH 666 0
DWIDTH 12 0
BBX 10 11 0 0
BITMAP
7EC0
7EC0
06C0
06C0
FFC0
FFC0
00C0
6000
6000
7FC0
7FC0
ENDCHAR
STARTCHAR U+AE29
ENCODING 44585
SWIDTH 666 0
DWIDTH 12 0
BBX 10 11 0 0
BITMAP
7EC0
7EC0
06C0
06C0
FFC0
FFC0
0000
3F80
60C0
7FC0
3F80
ENDCHAR
STARTCHAR U+AE30
ENCODING 44592
SWIDTH 666 0
DWIDTH 12 0
BBX 10 11 0 0
BITMAP
FCC0
FCC0
0CC0
0CC0
0CC0
1CC0
18C0
38C0
F0C0
E0C0
00C0
ENDCHAR
STARTCHAR U+AE31
ENCODING 44593
SWIDTH 666 0
DWIDTH 12 0
BBX 10 11 0 0
BITMAP
FCC0
FCC0
0CC0
1CC0
F8C0
F0C0
0000
7FC0
7FC0
00C0
00C0
ENDCHAR
STARTCHAR U+AE32
ENCODING 44594
SWIDTH 666 0
DWIDTH 12 0
BBX 10 11 0 0
BITMAP
FCC0
FCC0
0CC0
1CC0
F8C0
F0C0
0000
7FC0
7FC0
0CC0
0CC0
ENDCHAR
STARTCHAR U+AE33
ENCODING 44595
SWIDTH 666 0
DWIDTH 12 0
BBX 10 11 0 0
BITMAP
FCC0
FCC0
0CC0
1CC0
F8C0
F0C0
0000
7980
7980
1BC0
1AC0
ENDCHAR
STARTCHAR U+AE34
ENCODING 44596
SWIDTH 666 0
DWIDTH 12 0
BBX 10 11 0 0
BITMAP
FCC0
FCC0
0CC0
1CC0
F8C0
F0C0
00C0
6000
6000
7FC0
7FC0
ENDCHAR
STARTCHAR U+AE35
ENCODING 44597
SWIDTH 666 0
DWIDTH 12 0
BBX 10 11 0 0
BITMAP
FCC0
FCC0
0CC0
1CC0
F8C0
F0C0
0000
67C0
6380
7FC0
7EC0
ENDCHAR
STARTCHAR U+AE36
ENCODING 44598
SWIDTH 666 0
DWIDTH 12 0
BBX 11 11 0 0
BITMAP
FCC0
FCC0
0CC0
1CC0
F8C0
F0C0
0300
6FE0
66C0
7FC0
7B80
ENDCHAR
ENDFONT
